G04 #@! TF.GenerationSoftware,KiCad,Pcbnew,7.0.10*
G04 #@! TF.CreationDate,2024-02-12T15:02:02-05:00*
G04 #@! TF.ProjectId,breakout_pcb,62726561-6b6f-4757-945f-7063622e6b69,rev?*
G04 #@! TF.SameCoordinates,Original*
G04 #@! TF.FileFunction,Soldermask,Top*
G04 #@! TF.FilePolarity,Negative*
%FSLAX46Y46*%
G04 Gerber Fmt 4.6, Leading zero omitted, Abs format (unit mm)*
G04 Created by KiCad (PCBNEW 7.0.10) date 2024-02-12 15:02:02*
%MOMM*%
%LPD*%
G01*
G04 APERTURE LIST*
G04 Aperture macros list*
%AMRoundRect*
0 Rectangle with rounded corners*
0 $1 Rounding radius*
0 $2 $3 $4 $5 $6 $7 $8 $9 X,Y pos of 4 corners*
0 Add a 4 corners polygon primitive as box body*
4,1,4,$2,$3,$4,$5,$6,$7,$8,$9,$2,$3,0*
0 Add four circle primitives for the rounded corners*
1,1,$1+$1,$2,$3*
1,1,$1+$1,$4,$5*
1,1,$1+$1,$6,$7*
1,1,$1+$1,$8,$9*
0 Add four rect primitives between the rounded corners*
20,1,$1+$1,$2,$3,$4,$5,0*
20,1,$1+$1,$4,$5,$6,$7,0*
20,1,$1+$1,$6,$7,$8,$9,0*
20,1,$1+$1,$8,$9,$2,$3,0*%
%AMFreePoly0*
4,1,19,0.500000,-0.750000,0.000000,-0.750000,0.000000,-0.744911,-0.071157,-0.744911,-0.207708,-0.704816,-0.327430,-0.627875,-0.420627,-0.520320,-0.479746,-0.390866,-0.500000,-0.250000,-0.500000,0.250000,-0.479746,0.390866,-0.420627,0.520320,-0.327430,0.627875,-0.207708,0.704816,-0.071157,0.744911,0.000000,0.744911,0.000000,0.750000,0.500000,0.750000,0.500000,-0.750000,0.500000,-0.750000,
$1*%
%AMFreePoly1*
4,1,19,0.000000,0.744911,0.071157,0.744911,0.207708,0.704816,0.327430,0.627875,0.420627,0.520320,0.479746,0.390866,0.500000,0.250000,0.500000,-0.250000,0.479746,-0.390866,0.420627,-0.520320,0.327430,-0.627875,0.207708,-0.704816,0.071157,-0.744911,0.000000,-0.744911,0.000000,-0.750000,-0.500000,-0.750000,-0.500000,0.750000,0.000000,0.750000,0.000000,0.744911,0.000000,0.744911,
$1*%
G04 Aperture macros list end*
%ADD10R,0.850000X0.850000*%
%ADD11R,1.600000X1.600000*%
%ADD12O,1.600000X1.600000*%
%ADD13C,3.000000*%
%ADD14R,1.000000X1.000000*%
%ADD15O,1.000000X1.000000*%
%ADD16R,1.560000X0.650000*%
%ADD17RoundRect,0.250000X-0.450000X0.350000X-0.450000X-0.350000X0.450000X-0.350000X0.450000X0.350000X0*%
%ADD18RoundRect,0.250000X-0.350000X-0.450000X0.350000X-0.450000X0.350000X0.450000X-0.350000X0.450000X0*%
%ADD19C,1.600000*%
%ADD20R,2.200000X2.200000*%
%ADD21O,2.200000X2.200000*%
%ADD22RoundRect,0.250000X0.450000X-0.350000X0.450000X0.350000X-0.450000X0.350000X-0.450000X-0.350000X0*%
%ADD23RoundRect,0.250000X-0.475000X0.337500X-0.475000X-0.337500X0.475000X-0.337500X0.475000X0.337500X0*%
%ADD24RoundRect,0.250000X-0.337500X-0.475000X0.337500X-0.475000X0.337500X0.475000X-0.337500X0.475000X0*%
%ADD25R,2.000000X0.650000*%
%ADD26RoundRect,0.150000X-0.825000X-0.150000X0.825000X-0.150000X0.825000X0.150000X-0.825000X0.150000X0*%
%ADD27C,2.600000*%
%ADD28R,2.000000X1.905000*%
%ADD29O,2.000000X1.905000*%
%ADD30RoundRect,0.250000X0.350000X0.450000X-0.350000X0.450000X-0.350000X-0.450000X0.350000X-0.450000X0*%
%ADD31FreePoly0,270.000000*%
%ADD32FreePoly1,270.000000*%
%ADD33RoundRect,0.250000X0.475000X-0.337500X0.475000X0.337500X-0.475000X0.337500X-0.475000X-0.337500X0*%
%ADD34R,1.800000X1.800000*%
%ADD35C,1.800000*%
G04 APERTURE END LIST*
D10*
X190000000Y-61500000D03*
X101500000Y-44500000D03*
D11*
X116200000Y-67200000D03*
D12*
X116200000Y-69740000D03*
X116200000Y-72280000D03*
X116200000Y-74820000D03*
X123820000Y-74820000D03*
X123820000Y-72280000D03*
X123820000Y-69740000D03*
X123820000Y-67200000D03*
D13*
X138636000Y-54604000D03*
X134318000Y-54604000D03*
X138636000Y-48000000D03*
X134318000Y-48000000D03*
X130000000Y-54604000D03*
X130000000Y-48000000D03*
D14*
X190000000Y-54270000D03*
D15*
X190000000Y-53000000D03*
D16*
X120350000Y-60950000D03*
X120350000Y-60000000D03*
X120350000Y-59050000D03*
X117650000Y-59050000D03*
X117650000Y-60950000D03*
D10*
X106000000Y-44500000D03*
D17*
X105000000Y-72000000D03*
X105000000Y-74000000D03*
D18*
X141000000Y-59000000D03*
X143000000Y-59000000D03*
D11*
X181000000Y-53000000D03*
D19*
X181000000Y-55000000D03*
D16*
X171650000Y-53050000D03*
X171650000Y-54000000D03*
X171650000Y-54950000D03*
X174350000Y-54950000D03*
X174350000Y-53050000D03*
D20*
X167000000Y-59080000D03*
D21*
X167000000Y-48920000D03*
D10*
X104500000Y-67000000D03*
D22*
X109000000Y-76000000D03*
X109000000Y-74000000D03*
D23*
X127000000Y-69925000D03*
X127000000Y-72000000D03*
D24*
X112962500Y-59000000D03*
X115037500Y-59000000D03*
D14*
X99000000Y-51270000D03*
D15*
X99000000Y-50000000D03*
D25*
X156580000Y-58050000D03*
X156580000Y-59000000D03*
X156580000Y-59950000D03*
X160000000Y-59950000D03*
X160000000Y-59000000D03*
X160000000Y-58050000D03*
D26*
X112525000Y-46555000D03*
X112525000Y-47825000D03*
X112525000Y-49095000D03*
X112525000Y-50365000D03*
X112525000Y-51635000D03*
X112525000Y-52905000D03*
X112525000Y-54175000D03*
X112525000Y-55445000D03*
X117475000Y-55445000D03*
X117475000Y-54175000D03*
X117475000Y-52905000D03*
X117475000Y-51635000D03*
X117475000Y-50365000D03*
X117475000Y-49095000D03*
X117475000Y-47825000D03*
X117475000Y-46555000D03*
D27*
X160790000Y-49000000D03*
X155790000Y-49000000D03*
D22*
X151000000Y-61000000D03*
X151000000Y-59000000D03*
D28*
X148000000Y-54080000D03*
D29*
X148000000Y-51540000D03*
X148000000Y-49000000D03*
D23*
X123000000Y-56962500D03*
X123000000Y-59037500D03*
D22*
X113000000Y-73000000D03*
X113000000Y-71000000D03*
D30*
X156000000Y-64000000D03*
X154000000Y-64000000D03*
D11*
X146000000Y-64000000D03*
D19*
X146000000Y-66000000D03*
D31*
X123000000Y-53000000D03*
D32*
X123000000Y-54300000D03*
D22*
X181000000Y-49000000D03*
X181000000Y-47000000D03*
D10*
X164500000Y-66000000D03*
D22*
X109000000Y-72000000D03*
X109000000Y-70000000D03*
D20*
X135000000Y-70080000D03*
D21*
X135000000Y-59920000D03*
D33*
X123000000Y-63037500D03*
X123000000Y-60962500D03*
D10*
X99000000Y-73000000D03*
D17*
X163000000Y-58000000D03*
X163000000Y-60000000D03*
D34*
X106000000Y-57000000D03*
D35*
X103460000Y-57000000D03*
D14*
X99000000Y-64270000D03*
D15*
X99000000Y-63000000D03*
D11*
X172000000Y-62000000D03*
D19*
X174000000Y-62000000D03*
G36*
X191004418Y-64000316D02*
G01*
X191275785Y-64019724D01*
X191293297Y-64022242D01*
X191554794Y-64079127D01*
X191571770Y-64084111D01*
X191822524Y-64177638D01*
X191838617Y-64184988D01*
X192073496Y-64313241D01*
X192088380Y-64322806D01*
X192302624Y-64483188D01*
X192315994Y-64494774D01*
X192505225Y-64684005D01*
X192516811Y-64697375D01*
X192677193Y-64911619D01*
X192686758Y-64926503D01*
X192815011Y-65161382D01*
X192822361Y-65177475D01*
X192915888Y-65428229D01*
X192920872Y-65445205D01*
X192977757Y-65706702D01*
X192980275Y-65724214D01*
X192999684Y-65995581D01*
X193000000Y-66004427D01*
X193000000Y-76927477D01*
X192999980Y-76929691D01*
X192998765Y-76997739D01*
X192998607Y-77002163D01*
X192994963Y-77070135D01*
X192994825Y-77072342D01*
X192989980Y-77140090D01*
X192989585Y-77144500D01*
X192975070Y-77279507D01*
X192973811Y-77288268D01*
X192950100Y-77419694D01*
X192948218Y-77428345D01*
X192915191Y-77557741D01*
X192912697Y-77566234D01*
X192870520Y-77692952D01*
X192867427Y-77701245D01*
X192816322Y-77824624D01*
X192812645Y-77832675D01*
X192752872Y-77952087D01*
X192748630Y-77959856D01*
X192680479Y-78074719D01*
X192675693Y-78082166D01*
X192599525Y-78191868D01*
X192594220Y-78198954D01*
X192510433Y-78302927D01*
X192504637Y-78309617D01*
X192413627Y-78407368D01*
X192407368Y-78413626D01*
X192309626Y-78504628D01*
X192302936Y-78510425D01*
X192198942Y-78594229D01*
X192191856Y-78599534D01*
X192082166Y-78675693D01*
X192074719Y-78680479D01*
X191959856Y-78748630D01*
X191952087Y-78752872D01*
X191832671Y-78812647D01*
X191824620Y-78816324D01*
X191701237Y-78867431D01*
X191692943Y-78870524D01*
X191566234Y-78912697D01*
X191557740Y-78915191D01*
X191428325Y-78948221D01*
X191419676Y-78950103D01*
X191288268Y-78973811D01*
X191279507Y-78975070D01*
X191144500Y-78989585D01*
X191140090Y-78989980D01*
X191072342Y-78994825D01*
X191070135Y-78994963D01*
X191002163Y-78998607D01*
X190997739Y-78998765D01*
X190929692Y-78999980D01*
X190927478Y-79000000D01*
X182004428Y-79000000D01*
X181995582Y-78999684D01*
X181724214Y-78980275D01*
X181706702Y-78977757D01*
X181445205Y-78920872D01*
X181428229Y-78915888D01*
X181177475Y-78822361D01*
X181161382Y-78815011D01*
X180926503Y-78686758D01*
X180911619Y-78677193D01*
X180697375Y-78516811D01*
X180684005Y-78505225D01*
X180494774Y-78315994D01*
X180483188Y-78302624D01*
X180322806Y-78088380D01*
X180313241Y-78073496D01*
X180184988Y-77838617D01*
X180177638Y-77822524D01*
X180084111Y-77571770D01*
X180079127Y-77554794D01*
X180022242Y-77293297D01*
X180019724Y-77275785D01*
X180000316Y-77004418D01*
X180000000Y-76995572D01*
X180000000Y-66004427D01*
X180000316Y-65995581D01*
X180019724Y-65724214D01*
X180022242Y-65706702D01*
X180079127Y-65445205D01*
X180084111Y-65428229D01*
X180177638Y-65177475D01*
X180184988Y-65161382D01*
X180313241Y-64926503D01*
X180322806Y-64911619D01*
X180483188Y-64697375D01*
X180494774Y-64684005D01*
X180684005Y-64494774D01*
X180697375Y-64483188D01*
X180911619Y-64322806D01*
X180926503Y-64313241D01*
X181161382Y-64184988D01*
X181177475Y-64177638D01*
X181428229Y-64084111D01*
X181445205Y-64079127D01*
X181706702Y-64022242D01*
X181724214Y-64019724D01*
X181995582Y-64000316D01*
X182004428Y-64000000D01*
X190995572Y-64000000D01*
X191004418Y-64000316D01*
G37*
M02*
