G04 #@! TF.GenerationSoftware,KiCad,Pcbnew,7.0.10*
G04 #@! TF.CreationDate,2024-02-12T15:02:02-05:00*
G04 #@! TF.ProjectId,breakout_pcb,62726561-6b6f-4757-945f-7063622e6b69,rev?*
G04 #@! TF.SameCoordinates,Original*
G04 #@! TF.FileFunction,Legend,Top*
G04 #@! TF.FilePolarity,Positive*
%FSLAX46Y46*%
G04 Gerber Fmt 4.6, Leading zero omitted, Abs format (unit mm)*
G04 Created by KiCad (PCBNEW 7.0.10) date 2024-02-12 15:02:02*
%MOMM*%
%LPD*%
G01*
G04 APERTURE LIST*
G04 Aperture macros list*
%AMRoundRect*
0 Rectangle with rounded corners*
0 $1 Rounding radius*
0 $2 $3 $4 $5 $6 $7 $8 $9 X,Y pos of 4 corners*
0 Add a 4 corners polygon primitive as box body*
4,1,4,$2,$3,$4,$5,$6,$7,$8,$9,$2,$3,0*
0 Add four circle primitives for the rounded corners*
1,1,$1+$1,$2,$3*
1,1,$1+$1,$4,$5*
1,1,$1+$1,$6,$7*
1,1,$1+$1,$8,$9*
0 Add four rect primitives between the rounded corners*
20,1,$1+$1,$2,$3,$4,$5,0*
20,1,$1+$1,$4,$5,$6,$7,0*
20,1,$1+$1,$6,$7,$8,$9,0*
20,1,$1+$1,$8,$9,$2,$3,0*%
%AMFreePoly0*
4,1,19,0.500000,-0.750000,0.000000,-0.750000,0.000000,-0.744911,-0.071157,-0.744911,-0.207708,-0.704816,-0.327430,-0.627875,-0.420627,-0.520320,-0.479746,-0.390866,-0.500000,-0.250000,-0.500000,0.250000,-0.479746,0.390866,-0.420627,0.520320,-0.327430,0.627875,-0.207708,0.704816,-0.071157,0.744911,0.000000,0.744911,0.000000,0.750000,0.500000,0.750000,0.500000,-0.750000,0.500000,-0.750000,
$1*%
%AMFreePoly1*
4,1,19,0.000000,0.744911,0.071157,0.744911,0.207708,0.704816,0.327430,0.627875,0.420627,0.520320,0.479746,0.390866,0.500000,0.250000,0.500000,-0.250000,0.479746,-0.390866,0.420627,-0.520320,0.327430,-0.627875,0.207708,-0.704816,0.071157,-0.744911,0.000000,-0.744911,0.000000,-0.750000,-0.500000,-0.750000,-0.500000,0.750000,0.000000,0.750000,0.000000,0.744911,0.000000,0.744911,
$1*%
G04 Aperture macros list end*
%ADD10C,0.400000*%
%ADD11C,0.150000*%
%ADD12C,0.100000*%
%ADD13C,0.120000*%
%ADD14R,0.850000X0.850000*%
%ADD15R,1.600000X1.600000*%
%ADD16O,1.600000X1.600000*%
%ADD17C,3.000000*%
%ADD18R,1.000000X1.000000*%
%ADD19O,1.000000X1.000000*%
%ADD20R,1.560000X0.650000*%
%ADD21RoundRect,0.250000X-0.450000X0.350000X-0.450000X-0.350000X0.450000X-0.350000X0.450000X0.350000X0*%
%ADD22RoundRect,0.250000X-0.350000X-0.450000X0.350000X-0.450000X0.350000X0.450000X-0.350000X0.450000X0*%
%ADD23C,1.600000*%
%ADD24R,2.200000X2.200000*%
%ADD25O,2.200000X2.200000*%
%ADD26RoundRect,0.250000X0.450000X-0.350000X0.450000X0.350000X-0.450000X0.350000X-0.450000X-0.350000X0*%
%ADD27RoundRect,0.250000X-0.475000X0.337500X-0.475000X-0.337500X0.475000X-0.337500X0.475000X0.337500X0*%
%ADD28RoundRect,0.250000X-0.337500X-0.475000X0.337500X-0.475000X0.337500X0.475000X-0.337500X0.475000X0*%
%ADD29R,2.000000X0.650000*%
%ADD30RoundRect,0.150000X-0.825000X-0.150000X0.825000X-0.150000X0.825000X0.150000X-0.825000X0.150000X0*%
%ADD31C,2.600000*%
%ADD32R,2.000000X1.905000*%
%ADD33O,2.000000X1.905000*%
%ADD34RoundRect,0.250000X0.350000X0.450000X-0.350000X0.450000X-0.350000X-0.450000X0.350000X-0.450000X0*%
%ADD35FreePoly0,270.000000*%
%ADD36FreePoly1,270.000000*%
%ADD37RoundRect,0.250000X0.475000X-0.337500X0.475000X0.337500X-0.475000X0.337500X-0.475000X-0.337500X0*%
%ADD38R,1.800000X1.800000*%
%ADD39C,1.800000*%
G04 APERTURE END LIST*
D10*
X169786966Y-41829676D02*
X169596490Y-41734438D01*
X169596490Y-41734438D02*
X169310776Y-41734438D01*
X169310776Y-41734438D02*
X169025061Y-41829676D01*
X169025061Y-41829676D02*
X168834585Y-42020152D01*
X168834585Y-42020152D02*
X168739347Y-42210628D01*
X168739347Y-42210628D02*
X168644109Y-42591580D01*
X168644109Y-42591580D02*
X168644109Y-42877295D01*
X168644109Y-42877295D02*
X168739347Y-43258247D01*
X168739347Y-43258247D02*
X168834585Y-43448723D01*
X168834585Y-43448723D02*
X169025061Y-43639200D01*
X169025061Y-43639200D02*
X169310776Y-43734438D01*
X169310776Y-43734438D02*
X169501252Y-43734438D01*
X169501252Y-43734438D02*
X169786966Y-43639200D01*
X169786966Y-43639200D02*
X169882204Y-43543961D01*
X169882204Y-43543961D02*
X169882204Y-42877295D01*
X169882204Y-42877295D02*
X169501252Y-42877295D01*
X170739347Y-43543961D02*
X170834585Y-43639200D01*
X170834585Y-43639200D02*
X170739347Y-43734438D01*
X170739347Y-43734438D02*
X170644109Y-43639200D01*
X170644109Y-43639200D02*
X170739347Y-43543961D01*
X170739347Y-43543961D02*
X170739347Y-43734438D01*
X171596490Y-43163009D02*
X172548871Y-43163009D01*
X171406014Y-43734438D02*
X172072680Y-41734438D01*
X172072680Y-41734438D02*
X172739347Y-43734438D01*
X173406014Y-43543961D02*
X173501252Y-43639200D01*
X173501252Y-43639200D02*
X173406014Y-43734438D01*
X173406014Y-43734438D02*
X173310776Y-43639200D01*
X173310776Y-43639200D02*
X173406014Y-43543961D01*
X173406014Y-43543961D02*
X173406014Y-43734438D01*
X174358395Y-43734438D02*
X174358395Y-41734438D01*
X175310776Y-43543961D02*
X175406014Y-43639200D01*
X175406014Y-43639200D02*
X175310776Y-43734438D01*
X175310776Y-43734438D02*
X175215538Y-43639200D01*
X175215538Y-43639200D02*
X175310776Y-43543961D01*
X175310776Y-43543961D02*
X175310776Y-43734438D01*
X176263157Y-43734438D02*
X176263157Y-41734438D01*
X176263157Y-41734438D02*
X177406014Y-43734438D01*
X177406014Y-43734438D02*
X177406014Y-41734438D01*
X178358395Y-43543961D02*
X178453633Y-43639200D01*
X178453633Y-43639200D02*
X178358395Y-43734438D01*
X178358395Y-43734438D02*
X178263157Y-43639200D01*
X178263157Y-43639200D02*
X178358395Y-43543961D01*
X178358395Y-43543961D02*
X178358395Y-43734438D01*
X179215538Y-43639200D02*
X179501252Y-43734438D01*
X179501252Y-43734438D02*
X179977443Y-43734438D01*
X179977443Y-43734438D02*
X180167919Y-43639200D01*
X180167919Y-43639200D02*
X180263157Y-43543961D01*
X180263157Y-43543961D02*
X180358395Y-43353485D01*
X180358395Y-43353485D02*
X180358395Y-43163009D01*
X180358395Y-43163009D02*
X180263157Y-42972533D01*
X180263157Y-42972533D02*
X180167919Y-42877295D01*
X180167919Y-42877295D02*
X179977443Y-42782057D01*
X179977443Y-42782057D02*
X179596490Y-42686819D01*
X179596490Y-42686819D02*
X179406014Y-42591580D01*
X179406014Y-42591580D02*
X179310776Y-42496342D01*
X179310776Y-42496342D02*
X179215538Y-42305866D01*
X179215538Y-42305866D02*
X179215538Y-42115390D01*
X179215538Y-42115390D02*
X179310776Y-41924914D01*
X179310776Y-41924914D02*
X179406014Y-41829676D01*
X179406014Y-41829676D02*
X179596490Y-41734438D01*
X179596490Y-41734438D02*
X180072681Y-41734438D01*
X180072681Y-41734438D02*
X180358395Y-41829676D01*
X181215538Y-43543961D02*
X181310776Y-43639200D01*
X181310776Y-43639200D02*
X181215538Y-43734438D01*
X181215538Y-43734438D02*
X181120300Y-43639200D01*
X181120300Y-43639200D02*
X181215538Y-43543961D01*
X181215538Y-43543961D02*
X181215538Y-43734438D01*
X183691729Y-43734438D02*
X183691729Y-41734438D01*
X183691729Y-41734438D02*
X184453634Y-41734438D01*
X184453634Y-41734438D02*
X184644110Y-41829676D01*
X184644110Y-41829676D02*
X184739348Y-41924914D01*
X184739348Y-41924914D02*
X184834586Y-42115390D01*
X184834586Y-42115390D02*
X184834586Y-42401104D01*
X184834586Y-42401104D02*
X184739348Y-42591580D01*
X184739348Y-42591580D02*
X184644110Y-42686819D01*
X184644110Y-42686819D02*
X184453634Y-42782057D01*
X184453634Y-42782057D02*
X183691729Y-42782057D01*
X185977443Y-43734438D02*
X185786967Y-43639200D01*
X185786967Y-43639200D02*
X185691729Y-43543961D01*
X185691729Y-43543961D02*
X185596491Y-43353485D01*
X185596491Y-43353485D02*
X185596491Y-42782057D01*
X185596491Y-42782057D02*
X185691729Y-42591580D01*
X185691729Y-42591580D02*
X185786967Y-42496342D01*
X185786967Y-42496342D02*
X185977443Y-42401104D01*
X185977443Y-42401104D02*
X186263158Y-42401104D01*
X186263158Y-42401104D02*
X186453634Y-42496342D01*
X186453634Y-42496342D02*
X186548872Y-42591580D01*
X186548872Y-42591580D02*
X186644110Y-42782057D01*
X186644110Y-42782057D02*
X186644110Y-43353485D01*
X186644110Y-43353485D02*
X186548872Y-43543961D01*
X186548872Y-43543961D02*
X186453634Y-43639200D01*
X186453634Y-43639200D02*
X186263158Y-43734438D01*
X186263158Y-43734438D02*
X185977443Y-43734438D01*
X187310777Y-42401104D02*
X187691729Y-43734438D01*
X187691729Y-43734438D02*
X188072682Y-42782057D01*
X188072682Y-42782057D02*
X188453634Y-43734438D01*
X188453634Y-43734438D02*
X188834586Y-42401104D01*
X190358396Y-43639200D02*
X190167920Y-43734438D01*
X190167920Y-43734438D02*
X189786967Y-43734438D01*
X189786967Y-43734438D02*
X189596491Y-43639200D01*
X189596491Y-43639200D02*
X189501253Y-43448723D01*
X189501253Y-43448723D02*
X189501253Y-42686819D01*
X189501253Y-42686819D02*
X189596491Y-42496342D01*
X189596491Y-42496342D02*
X189786967Y-42401104D01*
X189786967Y-42401104D02*
X190167920Y-42401104D01*
X190167920Y-42401104D02*
X190358396Y-42496342D01*
X190358396Y-42496342D02*
X190453634Y-42686819D01*
X190453634Y-42686819D02*
X190453634Y-42877295D01*
X190453634Y-42877295D02*
X189501253Y-43067771D01*
X191310777Y-43734438D02*
X191310777Y-42401104D01*
X191310777Y-42782057D02*
X191406015Y-42591580D01*
X191406015Y-42591580D02*
X191501253Y-42496342D01*
X191501253Y-42496342D02*
X191691729Y-42401104D01*
X191691729Y-42401104D02*
X191882206Y-42401104D01*
D11*
X169312969Y-44869819D02*
X169884398Y-44869819D01*
X169473684Y-45869819D02*
X169598684Y-44869819D01*
X170479636Y-45822200D02*
X170378446Y-45869819D01*
X170378446Y-45869819D02*
X170187969Y-45869819D01*
X170187969Y-45869819D02*
X170098684Y-45822200D01*
X170098684Y-45822200D02*
X170062969Y-45726961D01*
X170062969Y-45726961D02*
X170110589Y-45346009D01*
X170110589Y-45346009D02*
X170170112Y-45250771D01*
X170170112Y-45250771D02*
X170271303Y-45203152D01*
X170271303Y-45203152D02*
X170461779Y-45203152D01*
X170461779Y-45203152D02*
X170551065Y-45250771D01*
X170551065Y-45250771D02*
X170586779Y-45346009D01*
X170586779Y-45346009D02*
X170574874Y-45441247D01*
X170574874Y-45441247D02*
X170086779Y-45536485D01*
X171378446Y-45869819D02*
X171443922Y-45346009D01*
X171443922Y-45346009D02*
X171408208Y-45250771D01*
X171408208Y-45250771D02*
X171318922Y-45203152D01*
X171318922Y-45203152D02*
X171128446Y-45203152D01*
X171128446Y-45203152D02*
X171027255Y-45250771D01*
X171384398Y-45822200D02*
X171283208Y-45869819D01*
X171283208Y-45869819D02*
X171045112Y-45869819D01*
X171045112Y-45869819D02*
X170955827Y-45822200D01*
X170955827Y-45822200D02*
X170920112Y-45726961D01*
X170920112Y-45726961D02*
X170932017Y-45631723D01*
X170932017Y-45631723D02*
X170991541Y-45536485D01*
X170991541Y-45536485D02*
X171092732Y-45488866D01*
X171092732Y-45488866D02*
X171330827Y-45488866D01*
X171330827Y-45488866D02*
X171432017Y-45441247D01*
X171854636Y-45869819D02*
X171937970Y-45203152D01*
X171926065Y-45298390D02*
X171979636Y-45250771D01*
X171979636Y-45250771D02*
X172080827Y-45203152D01*
X172080827Y-45203152D02*
X172223684Y-45203152D01*
X172223684Y-45203152D02*
X172312970Y-45250771D01*
X172312970Y-45250771D02*
X172348684Y-45346009D01*
X172348684Y-45346009D02*
X172283208Y-45869819D01*
X172348684Y-45346009D02*
X172408208Y-45250771D01*
X172408208Y-45250771D02*
X172509398Y-45203152D01*
X172509398Y-45203152D02*
X172652255Y-45203152D01*
X172652255Y-45203152D02*
X172741541Y-45250771D01*
X172741541Y-45250771D02*
X172777255Y-45346009D01*
X172777255Y-45346009D02*
X172711779Y-45869819D01*
X174473684Y-45869819D02*
X173902255Y-45869819D01*
X174187970Y-45869819D02*
X174312970Y-44869819D01*
X174312970Y-44869819D02*
X174199874Y-45012676D01*
X174199874Y-45012676D02*
X174092732Y-45107914D01*
X174092732Y-45107914D02*
X173991541Y-45155533D01*
X174949874Y-45869819D02*
X175140351Y-45869819D01*
X175140351Y-45869819D02*
X175241541Y-45822200D01*
X175241541Y-45822200D02*
X175295113Y-45774580D01*
X175295113Y-45774580D02*
X175408208Y-45631723D01*
X175408208Y-45631723D02*
X175479636Y-45441247D01*
X175479636Y-45441247D02*
X175527255Y-45060295D01*
X175527255Y-45060295D02*
X175491541Y-44965057D01*
X175491541Y-44965057D02*
X175449874Y-44917438D01*
X175449874Y-44917438D02*
X175360589Y-44869819D01*
X175360589Y-44869819D02*
X175170113Y-44869819D01*
X175170113Y-44869819D02*
X175068922Y-44917438D01*
X175068922Y-44917438D02*
X175015351Y-44965057D01*
X175015351Y-44965057D02*
X174955827Y-45060295D01*
X174955827Y-45060295D02*
X174926065Y-45298390D01*
X174926065Y-45298390D02*
X174961779Y-45393628D01*
X174961779Y-45393628D02*
X175003446Y-45441247D01*
X175003446Y-45441247D02*
X175092732Y-45488866D01*
X175092732Y-45488866D02*
X175283208Y-45488866D01*
X175283208Y-45488866D02*
X175384398Y-45441247D01*
X175384398Y-45441247D02*
X175437970Y-45393628D01*
X175437970Y-45393628D02*
X175497493Y-45298390D01*
X188738095Y-59394819D02*
X189309523Y-59394819D01*
X189023809Y-60394819D02*
X189023809Y-59394819D01*
X189642857Y-60394819D02*
X189642857Y-59394819D01*
X189642857Y-59394819D02*
X190023809Y-59394819D01*
X190023809Y-59394819D02*
X190119047Y-59442438D01*
X190119047Y-59442438D02*
X190166666Y-59490057D01*
X190166666Y-59490057D02*
X190214285Y-59585295D01*
X190214285Y-59585295D02*
X190214285Y-59728152D01*
X190214285Y-59728152D02*
X190166666Y-59823390D01*
X190166666Y-59823390D02*
X190119047Y-59871009D01*
X190119047Y-59871009D02*
X190023809Y-59918628D01*
X190023809Y-59918628D02*
X189642857Y-59918628D01*
X191071428Y-59728152D02*
X191071428Y-60394819D01*
X190833333Y-59347200D02*
X190595238Y-60061485D01*
X190595238Y-60061485D02*
X191214285Y-60061485D01*
X100238095Y-42394819D02*
X100809523Y-42394819D01*
X100523809Y-43394819D02*
X100523809Y-42394819D01*
X101142857Y-43394819D02*
X101142857Y-42394819D01*
X101142857Y-42394819D02*
X101523809Y-42394819D01*
X101523809Y-42394819D02*
X101619047Y-42442438D01*
X101619047Y-42442438D02*
X101666666Y-42490057D01*
X101666666Y-42490057D02*
X101714285Y-42585295D01*
X101714285Y-42585295D02*
X101714285Y-42728152D01*
X101714285Y-42728152D02*
X101666666Y-42823390D01*
X101666666Y-42823390D02*
X101619047Y-42871009D01*
X101619047Y-42871009D02*
X101523809Y-42918628D01*
X101523809Y-42918628D02*
X101142857Y-42918628D01*
X102666666Y-43394819D02*
X102095238Y-43394819D01*
X102380952Y-43394819D02*
X102380952Y-42394819D01*
X102380952Y-42394819D02*
X102285714Y-42537676D01*
X102285714Y-42537676D02*
X102190476Y-42632914D01*
X102190476Y-42632914D02*
X102095238Y-42680533D01*
X119248095Y-64324819D02*
X119248095Y-65134342D01*
X119248095Y-65134342D02*
X119295714Y-65229580D01*
X119295714Y-65229580D02*
X119343333Y-65277200D01*
X119343333Y-65277200D02*
X119438571Y-65324819D01*
X119438571Y-65324819D02*
X119629047Y-65324819D01*
X119629047Y-65324819D02*
X119724285Y-65277200D01*
X119724285Y-65277200D02*
X119771904Y-65229580D01*
X119771904Y-65229580D02*
X119819523Y-65134342D01*
X119819523Y-65134342D02*
X119819523Y-64324819D01*
X120771904Y-64324819D02*
X120295714Y-64324819D01*
X120295714Y-64324819D02*
X120248095Y-64801009D01*
X120248095Y-64801009D02*
X120295714Y-64753390D01*
X120295714Y-64753390D02*
X120390952Y-64705771D01*
X120390952Y-64705771D02*
X120629047Y-64705771D01*
X120629047Y-64705771D02*
X120724285Y-64753390D01*
X120724285Y-64753390D02*
X120771904Y-64801009D01*
X120771904Y-64801009D02*
X120819523Y-64896247D01*
X120819523Y-64896247D02*
X120819523Y-65134342D01*
X120819523Y-65134342D02*
X120771904Y-65229580D01*
X120771904Y-65229580D02*
X120724285Y-65277200D01*
X120724285Y-65277200D02*
X120629047Y-65324819D01*
X120629047Y-65324819D02*
X120390952Y-65324819D01*
X120390952Y-65324819D02*
X120295714Y-65277200D01*
X120295714Y-65277200D02*
X120248095Y-65229580D01*
D12*
X132984667Y-52211800D02*
X133127524Y-52259419D01*
X133127524Y-52259419D02*
X133365619Y-52259419D01*
X133365619Y-52259419D02*
X133460857Y-52211800D01*
X133460857Y-52211800D02*
X133508476Y-52164180D01*
X133508476Y-52164180D02*
X133556095Y-52068942D01*
X133556095Y-52068942D02*
X133556095Y-51973704D01*
X133556095Y-51973704D02*
X133508476Y-51878466D01*
X133508476Y-51878466D02*
X133460857Y-51830847D01*
X133460857Y-51830847D02*
X133365619Y-51783228D01*
X133365619Y-51783228D02*
X133175143Y-51735609D01*
X133175143Y-51735609D02*
X133079905Y-51687990D01*
X133079905Y-51687990D02*
X133032286Y-51640371D01*
X133032286Y-51640371D02*
X132984667Y-51545133D01*
X132984667Y-51545133D02*
X132984667Y-51449895D01*
X132984667Y-51449895D02*
X133032286Y-51354657D01*
X133032286Y-51354657D02*
X133079905Y-51307038D01*
X133079905Y-51307038D02*
X133175143Y-51259419D01*
X133175143Y-51259419D02*
X133413238Y-51259419D01*
X133413238Y-51259419D02*
X133556095Y-51307038D01*
X133889429Y-51259419D02*
X134127524Y-52259419D01*
X134127524Y-52259419D02*
X134318000Y-51545133D01*
X134318000Y-51545133D02*
X134508476Y-52259419D01*
X134508476Y-52259419D02*
X134746572Y-51259419D01*
X135651333Y-52259419D02*
X135079905Y-52259419D01*
X135365619Y-52259419D02*
X135365619Y-51259419D01*
X135365619Y-51259419D02*
X135270381Y-51402276D01*
X135270381Y-51402276D02*
X135175143Y-51497514D01*
X135175143Y-51497514D02*
X135079905Y-51545133D01*
D11*
X189666666Y-55419819D02*
X189666666Y-56134104D01*
X189666666Y-56134104D02*
X189619047Y-56276961D01*
X189619047Y-56276961D02*
X189523809Y-56372200D01*
X189523809Y-56372200D02*
X189380952Y-56419819D01*
X189380952Y-56419819D02*
X189285714Y-56419819D01*
X190047619Y-55419819D02*
X190666666Y-55419819D01*
X190666666Y-55419819D02*
X190333333Y-55800771D01*
X190333333Y-55800771D02*
X190476190Y-55800771D01*
X190476190Y-55800771D02*
X190571428Y-55848390D01*
X190571428Y-55848390D02*
X190619047Y-55896009D01*
X190619047Y-55896009D02*
X190666666Y-55991247D01*
X190666666Y-55991247D02*
X190666666Y-56229342D01*
X190666666Y-56229342D02*
X190619047Y-56324580D01*
X190619047Y-56324580D02*
X190571428Y-56372200D01*
X190571428Y-56372200D02*
X190476190Y-56419819D01*
X190476190Y-56419819D02*
X190190476Y-56419819D01*
X190190476Y-56419819D02*
X190095238Y-56372200D01*
X190095238Y-56372200D02*
X190047619Y-56324580D01*
X118238095Y-62354819D02*
X118238095Y-63164342D01*
X118238095Y-63164342D02*
X118285714Y-63259580D01*
X118285714Y-63259580D02*
X118333333Y-63307200D01*
X118333333Y-63307200D02*
X118428571Y-63354819D01*
X118428571Y-63354819D02*
X118619047Y-63354819D01*
X118619047Y-63354819D02*
X118714285Y-63307200D01*
X118714285Y-63307200D02*
X118761904Y-63259580D01*
X118761904Y-63259580D02*
X118809523Y-63164342D01*
X118809523Y-63164342D02*
X118809523Y-62354819D01*
X119190476Y-62354819D02*
X119809523Y-62354819D01*
X119809523Y-62354819D02*
X119476190Y-62735771D01*
X119476190Y-62735771D02*
X119619047Y-62735771D01*
X119619047Y-62735771D02*
X119714285Y-62783390D01*
X119714285Y-62783390D02*
X119761904Y-62831009D01*
X119761904Y-62831009D02*
X119809523Y-62926247D01*
X119809523Y-62926247D02*
X119809523Y-63164342D01*
X119809523Y-63164342D02*
X119761904Y-63259580D01*
X119761904Y-63259580D02*
X119714285Y-63307200D01*
X119714285Y-63307200D02*
X119619047Y-63354819D01*
X119619047Y-63354819D02*
X119333333Y-63354819D01*
X119333333Y-63354819D02*
X119238095Y-63307200D01*
X119238095Y-63307200D02*
X119190476Y-63259580D01*
X104738095Y-42394819D02*
X105309523Y-42394819D01*
X105023809Y-43394819D02*
X105023809Y-42394819D01*
X105642857Y-43394819D02*
X105642857Y-42394819D01*
X105642857Y-42394819D02*
X106023809Y-42394819D01*
X106023809Y-42394819D02*
X106119047Y-42442438D01*
X106119047Y-42442438D02*
X106166666Y-42490057D01*
X106166666Y-42490057D02*
X106214285Y-42585295D01*
X106214285Y-42585295D02*
X106214285Y-42728152D01*
X106214285Y-42728152D02*
X106166666Y-42823390D01*
X106166666Y-42823390D02*
X106119047Y-42871009D01*
X106119047Y-42871009D02*
X106023809Y-42918628D01*
X106023809Y-42918628D02*
X105642857Y-42918628D01*
X106595238Y-42490057D02*
X106642857Y-42442438D01*
X106642857Y-42442438D02*
X106738095Y-42394819D01*
X106738095Y-42394819D02*
X106976190Y-42394819D01*
X106976190Y-42394819D02*
X107071428Y-42442438D01*
X107071428Y-42442438D02*
X107119047Y-42490057D01*
X107119047Y-42490057D02*
X107166666Y-42585295D01*
X107166666Y-42585295D02*
X107166666Y-42680533D01*
X107166666Y-42680533D02*
X107119047Y-42823390D01*
X107119047Y-42823390D02*
X106547619Y-43394819D01*
X106547619Y-43394819D02*
X107166666Y-43394819D01*
X103954819Y-73166666D02*
X103478628Y-73499999D01*
X103954819Y-73738094D02*
X102954819Y-73738094D01*
X102954819Y-73738094D02*
X102954819Y-73357142D01*
X102954819Y-73357142D02*
X103002438Y-73261904D01*
X103002438Y-73261904D02*
X103050057Y-73214285D01*
X103050057Y-73214285D02*
X103145295Y-73166666D01*
X103145295Y-73166666D02*
X103288152Y-73166666D01*
X103288152Y-73166666D02*
X103383390Y-73214285D01*
X103383390Y-73214285D02*
X103431009Y-73261904D01*
X103431009Y-73261904D02*
X103478628Y-73357142D01*
X103478628Y-73357142D02*
X103478628Y-73738094D01*
X103383390Y-72595237D02*
X103335771Y-72690475D01*
X103335771Y-72690475D02*
X103288152Y-72738094D01*
X103288152Y-72738094D02*
X103192914Y-72785713D01*
X103192914Y-72785713D02*
X103145295Y-72785713D01*
X103145295Y-72785713D02*
X103050057Y-72738094D01*
X103050057Y-72738094D02*
X103002438Y-72690475D01*
X103002438Y-72690475D02*
X102954819Y-72595237D01*
X102954819Y-72595237D02*
X102954819Y-72404761D01*
X102954819Y-72404761D02*
X103002438Y-72309523D01*
X103002438Y-72309523D02*
X103050057Y-72261904D01*
X103050057Y-72261904D02*
X103145295Y-72214285D01*
X103145295Y-72214285D02*
X103192914Y-72214285D01*
X103192914Y-72214285D02*
X103288152Y-72261904D01*
X103288152Y-72261904D02*
X103335771Y-72309523D01*
X103335771Y-72309523D02*
X103383390Y-72404761D01*
X103383390Y-72404761D02*
X103383390Y-72595237D01*
X103383390Y-72595237D02*
X103431009Y-72690475D01*
X103431009Y-72690475D02*
X103478628Y-72738094D01*
X103478628Y-72738094D02*
X103573866Y-72785713D01*
X103573866Y-72785713D02*
X103764342Y-72785713D01*
X103764342Y-72785713D02*
X103859580Y-72738094D01*
X103859580Y-72738094D02*
X103907200Y-72690475D01*
X103907200Y-72690475D02*
X103954819Y-72595237D01*
X103954819Y-72595237D02*
X103954819Y-72404761D01*
X103954819Y-72404761D02*
X103907200Y-72309523D01*
X103907200Y-72309523D02*
X103859580Y-72261904D01*
X103859580Y-72261904D02*
X103764342Y-72214285D01*
X103764342Y-72214285D02*
X103573866Y-72214285D01*
X103573866Y-72214285D02*
X103478628Y-72261904D01*
X103478628Y-72261904D02*
X103431009Y-72309523D01*
X103431009Y-72309523D02*
X103383390Y-72404761D01*
X141833333Y-57804819D02*
X141500000Y-57328628D01*
X141261905Y-57804819D02*
X141261905Y-56804819D01*
X141261905Y-56804819D02*
X141642857Y-56804819D01*
X141642857Y-56804819D02*
X141738095Y-56852438D01*
X141738095Y-56852438D02*
X141785714Y-56900057D01*
X141785714Y-56900057D02*
X141833333Y-56995295D01*
X141833333Y-56995295D02*
X141833333Y-57138152D01*
X141833333Y-57138152D02*
X141785714Y-57233390D01*
X141785714Y-57233390D02*
X141738095Y-57281009D01*
X141738095Y-57281009D02*
X141642857Y-57328628D01*
X141642857Y-57328628D02*
X141261905Y-57328628D01*
X142785714Y-57804819D02*
X142214286Y-57804819D01*
X142500000Y-57804819D02*
X142500000Y-56804819D01*
X142500000Y-56804819D02*
X142404762Y-56947676D01*
X142404762Y-56947676D02*
X142309524Y-57042914D01*
X142309524Y-57042914D02*
X142214286Y-57090533D01*
X185109580Y-54166666D02*
X185157200Y-54214285D01*
X185157200Y-54214285D02*
X185204819Y-54357142D01*
X185204819Y-54357142D02*
X185204819Y-54452380D01*
X185204819Y-54452380D02*
X185157200Y-54595237D01*
X185157200Y-54595237D02*
X185061961Y-54690475D01*
X185061961Y-54690475D02*
X184966723Y-54738094D01*
X184966723Y-54738094D02*
X184776247Y-54785713D01*
X184776247Y-54785713D02*
X184633390Y-54785713D01*
X184633390Y-54785713D02*
X184442914Y-54738094D01*
X184442914Y-54738094D02*
X184347676Y-54690475D01*
X184347676Y-54690475D02*
X184252438Y-54595237D01*
X184252438Y-54595237D02*
X184204819Y-54452380D01*
X184204819Y-54452380D02*
X184204819Y-54357142D01*
X184204819Y-54357142D02*
X184252438Y-54214285D01*
X184252438Y-54214285D02*
X184300057Y-54166666D01*
X184204819Y-53833332D02*
X184204819Y-53166666D01*
X184204819Y-53166666D02*
X185204819Y-53595237D01*
X172238095Y-50554819D02*
X172238095Y-51364342D01*
X172238095Y-51364342D02*
X172285714Y-51459580D01*
X172285714Y-51459580D02*
X172333333Y-51507200D01*
X172333333Y-51507200D02*
X172428571Y-51554819D01*
X172428571Y-51554819D02*
X172619047Y-51554819D01*
X172619047Y-51554819D02*
X172714285Y-51507200D01*
X172714285Y-51507200D02*
X172761904Y-51459580D01*
X172761904Y-51459580D02*
X172809523Y-51364342D01*
X172809523Y-51364342D02*
X172809523Y-50554819D01*
X173714285Y-50888152D02*
X173714285Y-51554819D01*
X173476190Y-50507200D02*
X173238095Y-51221485D01*
X173238095Y-51221485D02*
X173857142Y-51221485D01*
X164984819Y-54738094D02*
X163984819Y-54738094D01*
X163984819Y-54738094D02*
X163984819Y-54499999D01*
X163984819Y-54499999D02*
X164032438Y-54357142D01*
X164032438Y-54357142D02*
X164127676Y-54261904D01*
X164127676Y-54261904D02*
X164222914Y-54214285D01*
X164222914Y-54214285D02*
X164413390Y-54166666D01*
X164413390Y-54166666D02*
X164556247Y-54166666D01*
X164556247Y-54166666D02*
X164746723Y-54214285D01*
X164746723Y-54214285D02*
X164841961Y-54261904D01*
X164841961Y-54261904D02*
X164937200Y-54357142D01*
X164937200Y-54357142D02*
X164984819Y-54499999D01*
X164984819Y-54499999D02*
X164984819Y-54738094D01*
X164984819Y-53214285D02*
X164984819Y-53785713D01*
X164984819Y-53499999D02*
X163984819Y-53499999D01*
X163984819Y-53499999D02*
X164127676Y-53595237D01*
X164127676Y-53595237D02*
X164222914Y-53690475D01*
X164222914Y-53690475D02*
X164270533Y-53785713D01*
X169454819Y-59341904D02*
X168454819Y-59341904D01*
X169454819Y-58770476D02*
X168883390Y-59199047D01*
X168454819Y-58770476D02*
X169026247Y-59341904D01*
X103238095Y-64894819D02*
X103809523Y-64894819D01*
X103523809Y-65894819D02*
X103523809Y-64894819D01*
X104142857Y-65894819D02*
X104142857Y-64894819D01*
X104142857Y-64894819D02*
X104523809Y-64894819D01*
X104523809Y-64894819D02*
X104619047Y-64942438D01*
X104619047Y-64942438D02*
X104666666Y-64990057D01*
X104666666Y-64990057D02*
X104714285Y-65085295D01*
X104714285Y-65085295D02*
X104714285Y-65228152D01*
X104714285Y-65228152D02*
X104666666Y-65323390D01*
X104666666Y-65323390D02*
X104619047Y-65371009D01*
X104619047Y-65371009D02*
X104523809Y-65418628D01*
X104523809Y-65418628D02*
X104142857Y-65418628D01*
X105571428Y-64894819D02*
X105380952Y-64894819D01*
X105380952Y-64894819D02*
X105285714Y-64942438D01*
X105285714Y-64942438D02*
X105238095Y-64990057D01*
X105238095Y-64990057D02*
X105142857Y-65132914D01*
X105142857Y-65132914D02*
X105095238Y-65323390D01*
X105095238Y-65323390D02*
X105095238Y-65704342D01*
X105095238Y-65704342D02*
X105142857Y-65799580D01*
X105142857Y-65799580D02*
X105190476Y-65847200D01*
X105190476Y-65847200D02*
X105285714Y-65894819D01*
X105285714Y-65894819D02*
X105476190Y-65894819D01*
X105476190Y-65894819D02*
X105571428Y-65847200D01*
X105571428Y-65847200D02*
X105619047Y-65799580D01*
X105619047Y-65799580D02*
X105666666Y-65704342D01*
X105666666Y-65704342D02*
X105666666Y-65466247D01*
X105666666Y-65466247D02*
X105619047Y-65371009D01*
X105619047Y-65371009D02*
X105571428Y-65323390D01*
X105571428Y-65323390D02*
X105476190Y-65275771D01*
X105476190Y-65275771D02*
X105285714Y-65275771D01*
X105285714Y-65275771D02*
X105190476Y-65323390D01*
X105190476Y-65323390D02*
X105142857Y-65371009D01*
X105142857Y-65371009D02*
X105095238Y-65466247D01*
X107804819Y-75166666D02*
X107328628Y-75499999D01*
X107804819Y-75738094D02*
X106804819Y-75738094D01*
X106804819Y-75738094D02*
X106804819Y-75357142D01*
X106804819Y-75357142D02*
X106852438Y-75261904D01*
X106852438Y-75261904D02*
X106900057Y-75214285D01*
X106900057Y-75214285D02*
X106995295Y-75166666D01*
X106995295Y-75166666D02*
X107138152Y-75166666D01*
X107138152Y-75166666D02*
X107233390Y-75214285D01*
X107233390Y-75214285D02*
X107281009Y-75261904D01*
X107281009Y-75261904D02*
X107328628Y-75357142D01*
X107328628Y-75357142D02*
X107328628Y-75738094D01*
X106804819Y-74309523D02*
X106804819Y-74499999D01*
X106804819Y-74499999D02*
X106852438Y-74595237D01*
X106852438Y-74595237D02*
X106900057Y-74642856D01*
X106900057Y-74642856D02*
X107042914Y-74738094D01*
X107042914Y-74738094D02*
X107233390Y-74785713D01*
X107233390Y-74785713D02*
X107614342Y-74785713D01*
X107614342Y-74785713D02*
X107709580Y-74738094D01*
X107709580Y-74738094D02*
X107757200Y-74690475D01*
X107757200Y-74690475D02*
X107804819Y-74595237D01*
X107804819Y-74595237D02*
X107804819Y-74404761D01*
X107804819Y-74404761D02*
X107757200Y-74309523D01*
X107757200Y-74309523D02*
X107709580Y-74261904D01*
X107709580Y-74261904D02*
X107614342Y-74214285D01*
X107614342Y-74214285D02*
X107376247Y-74214285D01*
X107376247Y-74214285D02*
X107281009Y-74261904D01*
X107281009Y-74261904D02*
X107233390Y-74309523D01*
X107233390Y-74309523D02*
X107185771Y-74404761D01*
X107185771Y-74404761D02*
X107185771Y-74595237D01*
X107185771Y-74595237D02*
X107233390Y-74690475D01*
X107233390Y-74690475D02*
X107281009Y-74738094D01*
X107281009Y-74738094D02*
X107376247Y-74785713D01*
X129039580Y-71129166D02*
X129087200Y-71176785D01*
X129087200Y-71176785D02*
X129134819Y-71319642D01*
X129134819Y-71319642D02*
X129134819Y-71414880D01*
X129134819Y-71414880D02*
X129087200Y-71557737D01*
X129087200Y-71557737D02*
X128991961Y-71652975D01*
X128991961Y-71652975D02*
X128896723Y-71700594D01*
X128896723Y-71700594D02*
X128706247Y-71748213D01*
X128706247Y-71748213D02*
X128563390Y-71748213D01*
X128563390Y-71748213D02*
X128372914Y-71700594D01*
X128372914Y-71700594D02*
X128277676Y-71652975D01*
X128277676Y-71652975D02*
X128182438Y-71557737D01*
X128182438Y-71557737D02*
X128134819Y-71414880D01*
X128134819Y-71414880D02*
X128134819Y-71319642D01*
X128134819Y-71319642D02*
X128182438Y-71176785D01*
X128182438Y-71176785D02*
X128230057Y-71129166D01*
X128134819Y-70272023D02*
X128134819Y-70462499D01*
X128134819Y-70462499D02*
X128182438Y-70557737D01*
X128182438Y-70557737D02*
X128230057Y-70605356D01*
X128230057Y-70605356D02*
X128372914Y-70700594D01*
X128372914Y-70700594D02*
X128563390Y-70748213D01*
X128563390Y-70748213D02*
X128944342Y-70748213D01*
X128944342Y-70748213D02*
X129039580Y-70700594D01*
X129039580Y-70700594D02*
X129087200Y-70652975D01*
X129087200Y-70652975D02*
X129134819Y-70557737D01*
X129134819Y-70557737D02*
X129134819Y-70367261D01*
X129134819Y-70367261D02*
X129087200Y-70272023D01*
X129087200Y-70272023D02*
X129039580Y-70224404D01*
X129039580Y-70224404D02*
X128944342Y-70176785D01*
X128944342Y-70176785D02*
X128706247Y-70176785D01*
X128706247Y-70176785D02*
X128611009Y-70224404D01*
X128611009Y-70224404D02*
X128563390Y-70272023D01*
X128563390Y-70272023D02*
X128515771Y-70367261D01*
X128515771Y-70367261D02*
X128515771Y-70557737D01*
X128515771Y-70557737D02*
X128563390Y-70652975D01*
X128563390Y-70652975D02*
X128611009Y-70700594D01*
X128611009Y-70700594D02*
X128706247Y-70748213D01*
X113833333Y-57679580D02*
X113785714Y-57727200D01*
X113785714Y-57727200D02*
X113642857Y-57774819D01*
X113642857Y-57774819D02*
X113547619Y-57774819D01*
X113547619Y-57774819D02*
X113404762Y-57727200D01*
X113404762Y-57727200D02*
X113309524Y-57631961D01*
X113309524Y-57631961D02*
X113261905Y-57536723D01*
X113261905Y-57536723D02*
X113214286Y-57346247D01*
X113214286Y-57346247D02*
X113214286Y-57203390D01*
X113214286Y-57203390D02*
X113261905Y-57012914D01*
X113261905Y-57012914D02*
X113309524Y-56917676D01*
X113309524Y-56917676D02*
X113404762Y-56822438D01*
X113404762Y-56822438D02*
X113547619Y-56774819D01*
X113547619Y-56774819D02*
X113642857Y-56774819D01*
X113642857Y-56774819D02*
X113785714Y-56822438D01*
X113785714Y-56822438D02*
X113833333Y-56870057D01*
X114785714Y-57774819D02*
X114214286Y-57774819D01*
X114500000Y-57774819D02*
X114500000Y-56774819D01*
X114500000Y-56774819D02*
X114404762Y-56917676D01*
X114404762Y-56917676D02*
X114309524Y-57012914D01*
X114309524Y-57012914D02*
X114214286Y-57060533D01*
X98666666Y-52419819D02*
X98666666Y-53134104D01*
X98666666Y-53134104D02*
X98619047Y-53276961D01*
X98619047Y-53276961D02*
X98523809Y-53372200D01*
X98523809Y-53372200D02*
X98380952Y-53419819D01*
X98380952Y-53419819D02*
X98285714Y-53419819D01*
X99666666Y-53419819D02*
X99095238Y-53419819D01*
X99380952Y-53419819D02*
X99380952Y-52419819D01*
X99380952Y-52419819D02*
X99285714Y-52562676D01*
X99285714Y-52562676D02*
X99190476Y-52657914D01*
X99190476Y-52657914D02*
X99095238Y-52705533D01*
X157528095Y-56004819D02*
X157528095Y-56814342D01*
X157528095Y-56814342D02*
X157575714Y-56909580D01*
X157575714Y-56909580D02*
X157623333Y-56957200D01*
X157623333Y-56957200D02*
X157718571Y-57004819D01*
X157718571Y-57004819D02*
X157909047Y-57004819D01*
X157909047Y-57004819D02*
X158004285Y-56957200D01*
X158004285Y-56957200D02*
X158051904Y-56909580D01*
X158051904Y-56909580D02*
X158099523Y-56814342D01*
X158099523Y-56814342D02*
X158099523Y-56004819D01*
X158528095Y-56100057D02*
X158575714Y-56052438D01*
X158575714Y-56052438D02*
X158670952Y-56004819D01*
X158670952Y-56004819D02*
X158909047Y-56004819D01*
X158909047Y-56004819D02*
X159004285Y-56052438D01*
X159004285Y-56052438D02*
X159051904Y-56100057D01*
X159051904Y-56100057D02*
X159099523Y-56195295D01*
X159099523Y-56195295D02*
X159099523Y-56290533D01*
X159099523Y-56290533D02*
X159051904Y-56433390D01*
X159051904Y-56433390D02*
X158480476Y-57004819D01*
X158480476Y-57004819D02*
X159099523Y-57004819D01*
X114238095Y-44554819D02*
X114238095Y-45364342D01*
X114238095Y-45364342D02*
X114285714Y-45459580D01*
X114285714Y-45459580D02*
X114333333Y-45507200D01*
X114333333Y-45507200D02*
X114428571Y-45554819D01*
X114428571Y-45554819D02*
X114619047Y-45554819D01*
X114619047Y-45554819D02*
X114714285Y-45507200D01*
X114714285Y-45507200D02*
X114761904Y-45459580D01*
X114761904Y-45459580D02*
X114809523Y-45364342D01*
X114809523Y-45364342D02*
X114809523Y-44554819D01*
X115809523Y-45554819D02*
X115238095Y-45554819D01*
X115523809Y-45554819D02*
X115523809Y-44554819D01*
X115523809Y-44554819D02*
X115428571Y-44697676D01*
X115428571Y-44697676D02*
X115333333Y-44792914D01*
X115333333Y-44792914D02*
X115238095Y-44840533D01*
X158123333Y-55454819D02*
X157647143Y-55454819D01*
X157647143Y-55454819D02*
X157647143Y-54454819D01*
X158980476Y-55454819D02*
X158409048Y-55454819D01*
X158694762Y-55454819D02*
X158694762Y-54454819D01*
X158694762Y-54454819D02*
X158599524Y-54597676D01*
X158599524Y-54597676D02*
X158504286Y-54692914D01*
X158504286Y-54692914D02*
X158409048Y-54740533D01*
X149804819Y-60166666D02*
X149328628Y-60499999D01*
X149804819Y-60738094D02*
X148804819Y-60738094D01*
X148804819Y-60738094D02*
X148804819Y-60357142D01*
X148804819Y-60357142D02*
X148852438Y-60261904D01*
X148852438Y-60261904D02*
X148900057Y-60214285D01*
X148900057Y-60214285D02*
X148995295Y-60166666D01*
X148995295Y-60166666D02*
X149138152Y-60166666D01*
X149138152Y-60166666D02*
X149233390Y-60214285D01*
X149233390Y-60214285D02*
X149281009Y-60261904D01*
X149281009Y-60261904D02*
X149328628Y-60357142D01*
X149328628Y-60357142D02*
X149328628Y-60738094D01*
X149138152Y-59309523D02*
X149804819Y-59309523D01*
X148757200Y-59547618D02*
X149471485Y-59785713D01*
X149471485Y-59785713D02*
X149471485Y-59166666D01*
X144280057Y-51635238D02*
X144232438Y-51730476D01*
X144232438Y-51730476D02*
X144137200Y-51825714D01*
X144137200Y-51825714D02*
X143994342Y-51968571D01*
X143994342Y-51968571D02*
X143946723Y-52063809D01*
X143946723Y-52063809D02*
X143946723Y-52159047D01*
X144184819Y-52111428D02*
X144137200Y-52206666D01*
X144137200Y-52206666D02*
X144041961Y-52301904D01*
X144041961Y-52301904D02*
X143851485Y-52349523D01*
X143851485Y-52349523D02*
X143518152Y-52349523D01*
X143518152Y-52349523D02*
X143327676Y-52301904D01*
X143327676Y-52301904D02*
X143232438Y-52206666D01*
X143232438Y-52206666D02*
X143184819Y-52111428D01*
X143184819Y-52111428D02*
X143184819Y-51920952D01*
X143184819Y-51920952D02*
X143232438Y-51825714D01*
X143232438Y-51825714D02*
X143327676Y-51730476D01*
X143327676Y-51730476D02*
X143518152Y-51682857D01*
X143518152Y-51682857D02*
X143851485Y-51682857D01*
X143851485Y-51682857D02*
X144041961Y-51730476D01*
X144041961Y-51730476D02*
X144137200Y-51825714D01*
X144137200Y-51825714D02*
X144184819Y-51920952D01*
X144184819Y-51920952D02*
X144184819Y-52111428D01*
X144184819Y-50730476D02*
X144184819Y-51301904D01*
X144184819Y-51016190D02*
X143184819Y-51016190D01*
X143184819Y-51016190D02*
X143327676Y-51111428D01*
X143327676Y-51111428D02*
X143422914Y-51206666D01*
X143422914Y-51206666D02*
X143470533Y-51301904D01*
X125359580Y-58166666D02*
X125407200Y-58214285D01*
X125407200Y-58214285D02*
X125454819Y-58357142D01*
X125454819Y-58357142D02*
X125454819Y-58452380D01*
X125454819Y-58452380D02*
X125407200Y-58595237D01*
X125407200Y-58595237D02*
X125311961Y-58690475D01*
X125311961Y-58690475D02*
X125216723Y-58738094D01*
X125216723Y-58738094D02*
X125026247Y-58785713D01*
X125026247Y-58785713D02*
X124883390Y-58785713D01*
X124883390Y-58785713D02*
X124692914Y-58738094D01*
X124692914Y-58738094D02*
X124597676Y-58690475D01*
X124597676Y-58690475D02*
X124502438Y-58595237D01*
X124502438Y-58595237D02*
X124454819Y-58452380D01*
X124454819Y-58452380D02*
X124454819Y-58357142D01*
X124454819Y-58357142D02*
X124502438Y-58214285D01*
X124502438Y-58214285D02*
X124550057Y-58166666D01*
X124454819Y-57833332D02*
X124454819Y-57214285D01*
X124454819Y-57214285D02*
X124835771Y-57547618D01*
X124835771Y-57547618D02*
X124835771Y-57404761D01*
X124835771Y-57404761D02*
X124883390Y-57309523D01*
X124883390Y-57309523D02*
X124931009Y-57261904D01*
X124931009Y-57261904D02*
X125026247Y-57214285D01*
X125026247Y-57214285D02*
X125264342Y-57214285D01*
X125264342Y-57214285D02*
X125359580Y-57261904D01*
X125359580Y-57261904D02*
X125407200Y-57309523D01*
X125407200Y-57309523D02*
X125454819Y-57404761D01*
X125454819Y-57404761D02*
X125454819Y-57690475D01*
X125454819Y-57690475D02*
X125407200Y-57785713D01*
X125407200Y-57785713D02*
X125359580Y-57833332D01*
X111804819Y-72166666D02*
X111328628Y-72499999D01*
X111804819Y-72738094D02*
X110804819Y-72738094D01*
X110804819Y-72738094D02*
X110804819Y-72357142D01*
X110804819Y-72357142D02*
X110852438Y-72261904D01*
X110852438Y-72261904D02*
X110900057Y-72214285D01*
X110900057Y-72214285D02*
X110995295Y-72166666D01*
X110995295Y-72166666D02*
X111138152Y-72166666D01*
X111138152Y-72166666D02*
X111233390Y-72214285D01*
X111233390Y-72214285D02*
X111281009Y-72261904D01*
X111281009Y-72261904D02*
X111328628Y-72357142D01*
X111328628Y-72357142D02*
X111328628Y-72738094D01*
X110804819Y-71833332D02*
X110804819Y-71166666D01*
X110804819Y-71166666D02*
X111804819Y-71595237D01*
X154833333Y-66104819D02*
X154500000Y-65628628D01*
X154261905Y-66104819D02*
X154261905Y-65104819D01*
X154261905Y-65104819D02*
X154642857Y-65104819D01*
X154642857Y-65104819D02*
X154738095Y-65152438D01*
X154738095Y-65152438D02*
X154785714Y-65200057D01*
X154785714Y-65200057D02*
X154833333Y-65295295D01*
X154833333Y-65295295D02*
X154833333Y-65438152D01*
X154833333Y-65438152D02*
X154785714Y-65533390D01*
X154785714Y-65533390D02*
X154738095Y-65581009D01*
X154738095Y-65581009D02*
X154642857Y-65628628D01*
X154642857Y-65628628D02*
X154261905Y-65628628D01*
X155166667Y-65104819D02*
X155785714Y-65104819D01*
X155785714Y-65104819D02*
X155452381Y-65485771D01*
X155452381Y-65485771D02*
X155595238Y-65485771D01*
X155595238Y-65485771D02*
X155690476Y-65533390D01*
X155690476Y-65533390D02*
X155738095Y-65581009D01*
X155738095Y-65581009D02*
X155785714Y-65676247D01*
X155785714Y-65676247D02*
X155785714Y-65914342D01*
X155785714Y-65914342D02*
X155738095Y-66009580D01*
X155738095Y-66009580D02*
X155690476Y-66057200D01*
X155690476Y-66057200D02*
X155595238Y-66104819D01*
X155595238Y-66104819D02*
X155309524Y-66104819D01*
X155309524Y-66104819D02*
X155214286Y-66057200D01*
X155214286Y-66057200D02*
X155166667Y-66009580D01*
X150109580Y-65166666D02*
X150157200Y-65214285D01*
X150157200Y-65214285D02*
X150204819Y-65357142D01*
X150204819Y-65357142D02*
X150204819Y-65452380D01*
X150204819Y-65452380D02*
X150157200Y-65595237D01*
X150157200Y-65595237D02*
X150061961Y-65690475D01*
X150061961Y-65690475D02*
X149966723Y-65738094D01*
X149966723Y-65738094D02*
X149776247Y-65785713D01*
X149776247Y-65785713D02*
X149633390Y-65785713D01*
X149633390Y-65785713D02*
X149442914Y-65738094D01*
X149442914Y-65738094D02*
X149347676Y-65690475D01*
X149347676Y-65690475D02*
X149252438Y-65595237D01*
X149252438Y-65595237D02*
X149204819Y-65452380D01*
X149204819Y-65452380D02*
X149204819Y-65357142D01*
X149204819Y-65357142D02*
X149252438Y-65214285D01*
X149252438Y-65214285D02*
X149300057Y-65166666D01*
X149300057Y-64785713D02*
X149252438Y-64738094D01*
X149252438Y-64738094D02*
X149204819Y-64642856D01*
X149204819Y-64642856D02*
X149204819Y-64404761D01*
X149204819Y-64404761D02*
X149252438Y-64309523D01*
X149252438Y-64309523D02*
X149300057Y-64261904D01*
X149300057Y-64261904D02*
X149395295Y-64214285D01*
X149395295Y-64214285D02*
X149490533Y-64214285D01*
X149490533Y-64214285D02*
X149633390Y-64261904D01*
X149633390Y-64261904D02*
X150204819Y-64833332D01*
X150204819Y-64833332D02*
X150204819Y-64214285D01*
X124254819Y-54483333D02*
X124969104Y-54483333D01*
X124969104Y-54483333D02*
X125111961Y-54530952D01*
X125111961Y-54530952D02*
X125207200Y-54626190D01*
X125207200Y-54626190D02*
X125254819Y-54769047D01*
X125254819Y-54769047D02*
X125254819Y-54864285D01*
X125254819Y-54007142D02*
X124254819Y-54007142D01*
X124254819Y-54007142D02*
X124254819Y-53626190D01*
X124254819Y-53626190D02*
X124302438Y-53530952D01*
X124302438Y-53530952D02*
X124350057Y-53483333D01*
X124350057Y-53483333D02*
X124445295Y-53435714D01*
X124445295Y-53435714D02*
X124588152Y-53435714D01*
X124588152Y-53435714D02*
X124683390Y-53483333D01*
X124683390Y-53483333D02*
X124731009Y-53530952D01*
X124731009Y-53530952D02*
X124778628Y-53626190D01*
X124778628Y-53626190D02*
X124778628Y-54007142D01*
X125254819Y-52483333D02*
X125254819Y-53054761D01*
X125254819Y-52769047D02*
X124254819Y-52769047D01*
X124254819Y-52769047D02*
X124397676Y-52864285D01*
X124397676Y-52864285D02*
X124492914Y-52959523D01*
X124492914Y-52959523D02*
X124540533Y-53054761D01*
X179804819Y-48166666D02*
X179328628Y-48499999D01*
X179804819Y-48738094D02*
X178804819Y-48738094D01*
X178804819Y-48738094D02*
X178804819Y-48357142D01*
X178804819Y-48357142D02*
X178852438Y-48261904D01*
X178852438Y-48261904D02*
X178900057Y-48214285D01*
X178900057Y-48214285D02*
X178995295Y-48166666D01*
X178995295Y-48166666D02*
X179138152Y-48166666D01*
X179138152Y-48166666D02*
X179233390Y-48214285D01*
X179233390Y-48214285D02*
X179281009Y-48261904D01*
X179281009Y-48261904D02*
X179328628Y-48357142D01*
X179328628Y-48357142D02*
X179328628Y-48738094D01*
X178804819Y-47261904D02*
X178804819Y-47738094D01*
X178804819Y-47738094D02*
X179281009Y-47785713D01*
X179281009Y-47785713D02*
X179233390Y-47738094D01*
X179233390Y-47738094D02*
X179185771Y-47642856D01*
X179185771Y-47642856D02*
X179185771Y-47404761D01*
X179185771Y-47404761D02*
X179233390Y-47309523D01*
X179233390Y-47309523D02*
X179281009Y-47261904D01*
X179281009Y-47261904D02*
X179376247Y-47214285D01*
X179376247Y-47214285D02*
X179614342Y-47214285D01*
X179614342Y-47214285D02*
X179709580Y-47261904D01*
X179709580Y-47261904D02*
X179757200Y-47309523D01*
X179757200Y-47309523D02*
X179804819Y-47404761D01*
X179804819Y-47404761D02*
X179804819Y-47642856D01*
X179804819Y-47642856D02*
X179757200Y-47738094D01*
X179757200Y-47738094D02*
X179709580Y-47785713D01*
X163238095Y-63894819D02*
X163809523Y-63894819D01*
X163523809Y-64894819D02*
X163523809Y-63894819D01*
X164142857Y-64894819D02*
X164142857Y-63894819D01*
X164142857Y-63894819D02*
X164523809Y-63894819D01*
X164523809Y-63894819D02*
X164619047Y-63942438D01*
X164619047Y-63942438D02*
X164666666Y-63990057D01*
X164666666Y-63990057D02*
X164714285Y-64085295D01*
X164714285Y-64085295D02*
X164714285Y-64228152D01*
X164714285Y-64228152D02*
X164666666Y-64323390D01*
X164666666Y-64323390D02*
X164619047Y-64371009D01*
X164619047Y-64371009D02*
X164523809Y-64418628D01*
X164523809Y-64418628D02*
X164142857Y-64418628D01*
X165619047Y-63894819D02*
X165142857Y-63894819D01*
X165142857Y-63894819D02*
X165095238Y-64371009D01*
X165095238Y-64371009D02*
X165142857Y-64323390D01*
X165142857Y-64323390D02*
X165238095Y-64275771D01*
X165238095Y-64275771D02*
X165476190Y-64275771D01*
X165476190Y-64275771D02*
X165571428Y-64323390D01*
X165571428Y-64323390D02*
X165619047Y-64371009D01*
X165619047Y-64371009D02*
X165666666Y-64466247D01*
X165666666Y-64466247D02*
X165666666Y-64704342D01*
X165666666Y-64704342D02*
X165619047Y-64799580D01*
X165619047Y-64799580D02*
X165571428Y-64847200D01*
X165571428Y-64847200D02*
X165476190Y-64894819D01*
X165476190Y-64894819D02*
X165238095Y-64894819D01*
X165238095Y-64894819D02*
X165142857Y-64847200D01*
X165142857Y-64847200D02*
X165095238Y-64799580D01*
X107804819Y-71166666D02*
X107328628Y-71499999D01*
X107804819Y-71738094D02*
X106804819Y-71738094D01*
X106804819Y-71738094D02*
X106804819Y-71357142D01*
X106804819Y-71357142D02*
X106852438Y-71261904D01*
X106852438Y-71261904D02*
X106900057Y-71214285D01*
X106900057Y-71214285D02*
X106995295Y-71166666D01*
X106995295Y-71166666D02*
X107138152Y-71166666D01*
X107138152Y-71166666D02*
X107233390Y-71214285D01*
X107233390Y-71214285D02*
X107281009Y-71261904D01*
X107281009Y-71261904D02*
X107328628Y-71357142D01*
X107328628Y-71357142D02*
X107328628Y-71738094D01*
X107804819Y-70690475D02*
X107804819Y-70499999D01*
X107804819Y-70499999D02*
X107757200Y-70404761D01*
X107757200Y-70404761D02*
X107709580Y-70357142D01*
X107709580Y-70357142D02*
X107566723Y-70261904D01*
X107566723Y-70261904D02*
X107376247Y-70214285D01*
X107376247Y-70214285D02*
X106995295Y-70214285D01*
X106995295Y-70214285D02*
X106900057Y-70261904D01*
X106900057Y-70261904D02*
X106852438Y-70309523D01*
X106852438Y-70309523D02*
X106804819Y-70404761D01*
X106804819Y-70404761D02*
X106804819Y-70595237D01*
X106804819Y-70595237D02*
X106852438Y-70690475D01*
X106852438Y-70690475D02*
X106900057Y-70738094D01*
X106900057Y-70738094D02*
X106995295Y-70785713D01*
X106995295Y-70785713D02*
X107233390Y-70785713D01*
X107233390Y-70785713D02*
X107328628Y-70738094D01*
X107328628Y-70738094D02*
X107376247Y-70690475D01*
X107376247Y-70690475D02*
X107423866Y-70595237D01*
X107423866Y-70595237D02*
X107423866Y-70404761D01*
X107423866Y-70404761D02*
X107376247Y-70309523D01*
X107376247Y-70309523D02*
X107328628Y-70261904D01*
X107328628Y-70261904D02*
X107233390Y-70214285D01*
X132984819Y-65738094D02*
X131984819Y-65738094D01*
X131984819Y-65738094D02*
X131984819Y-65499999D01*
X131984819Y-65499999D02*
X132032438Y-65357142D01*
X132032438Y-65357142D02*
X132127676Y-65261904D01*
X132127676Y-65261904D02*
X132222914Y-65214285D01*
X132222914Y-65214285D02*
X132413390Y-65166666D01*
X132413390Y-65166666D02*
X132556247Y-65166666D01*
X132556247Y-65166666D02*
X132746723Y-65214285D01*
X132746723Y-65214285D02*
X132841961Y-65261904D01*
X132841961Y-65261904D02*
X132937200Y-65357142D01*
X132937200Y-65357142D02*
X132984819Y-65499999D01*
X132984819Y-65499999D02*
X132984819Y-65738094D01*
X132080057Y-64785713D02*
X132032438Y-64738094D01*
X132032438Y-64738094D02*
X131984819Y-64642856D01*
X131984819Y-64642856D02*
X131984819Y-64404761D01*
X131984819Y-64404761D02*
X132032438Y-64309523D01*
X132032438Y-64309523D02*
X132080057Y-64261904D01*
X132080057Y-64261904D02*
X132175295Y-64214285D01*
X132175295Y-64214285D02*
X132270533Y-64214285D01*
X132270533Y-64214285D02*
X132413390Y-64261904D01*
X132413390Y-64261904D02*
X132984819Y-64833332D01*
X132984819Y-64833332D02*
X132984819Y-64214285D01*
X133354819Y-70341904D02*
X132354819Y-70341904D01*
X133354819Y-69770476D02*
X132783390Y-70199047D01*
X132354819Y-69770476D02*
X132926247Y-70341904D01*
X125359580Y-62166666D02*
X125407200Y-62214285D01*
X125407200Y-62214285D02*
X125454819Y-62357142D01*
X125454819Y-62357142D02*
X125454819Y-62452380D01*
X125454819Y-62452380D02*
X125407200Y-62595237D01*
X125407200Y-62595237D02*
X125311961Y-62690475D01*
X125311961Y-62690475D02*
X125216723Y-62738094D01*
X125216723Y-62738094D02*
X125026247Y-62785713D01*
X125026247Y-62785713D02*
X124883390Y-62785713D01*
X124883390Y-62785713D02*
X124692914Y-62738094D01*
X124692914Y-62738094D02*
X124597676Y-62690475D01*
X124597676Y-62690475D02*
X124502438Y-62595237D01*
X124502438Y-62595237D02*
X124454819Y-62452380D01*
X124454819Y-62452380D02*
X124454819Y-62357142D01*
X124454819Y-62357142D02*
X124502438Y-62214285D01*
X124502438Y-62214285D02*
X124550057Y-62166666D01*
X124454819Y-61261904D02*
X124454819Y-61738094D01*
X124454819Y-61738094D02*
X124931009Y-61785713D01*
X124931009Y-61785713D02*
X124883390Y-61738094D01*
X124883390Y-61738094D02*
X124835771Y-61642856D01*
X124835771Y-61642856D02*
X124835771Y-61404761D01*
X124835771Y-61404761D02*
X124883390Y-61309523D01*
X124883390Y-61309523D02*
X124931009Y-61261904D01*
X124931009Y-61261904D02*
X125026247Y-61214285D01*
X125026247Y-61214285D02*
X125264342Y-61214285D01*
X125264342Y-61214285D02*
X125359580Y-61261904D01*
X125359580Y-61261904D02*
X125407200Y-61309523D01*
X125407200Y-61309523D02*
X125454819Y-61404761D01*
X125454819Y-61404761D02*
X125454819Y-61642856D01*
X125454819Y-61642856D02*
X125407200Y-61738094D01*
X125407200Y-61738094D02*
X125359580Y-61785713D01*
X97738095Y-70894819D02*
X98309523Y-70894819D01*
X98023809Y-71894819D02*
X98023809Y-70894819D01*
X98642857Y-71894819D02*
X98642857Y-70894819D01*
X98642857Y-70894819D02*
X99023809Y-70894819D01*
X99023809Y-70894819D02*
X99119047Y-70942438D01*
X99119047Y-70942438D02*
X99166666Y-70990057D01*
X99166666Y-70990057D02*
X99214285Y-71085295D01*
X99214285Y-71085295D02*
X99214285Y-71228152D01*
X99214285Y-71228152D02*
X99166666Y-71323390D01*
X99166666Y-71323390D02*
X99119047Y-71371009D01*
X99119047Y-71371009D02*
X99023809Y-71418628D01*
X99023809Y-71418628D02*
X98642857Y-71418628D01*
X99547619Y-70894819D02*
X100166666Y-70894819D01*
X100166666Y-70894819D02*
X99833333Y-71275771D01*
X99833333Y-71275771D02*
X99976190Y-71275771D01*
X99976190Y-71275771D02*
X100071428Y-71323390D01*
X100071428Y-71323390D02*
X100119047Y-71371009D01*
X100119047Y-71371009D02*
X100166666Y-71466247D01*
X100166666Y-71466247D02*
X100166666Y-71704342D01*
X100166666Y-71704342D02*
X100119047Y-71799580D01*
X100119047Y-71799580D02*
X100071428Y-71847200D01*
X100071428Y-71847200D02*
X99976190Y-71894819D01*
X99976190Y-71894819D02*
X99690476Y-71894819D01*
X99690476Y-71894819D02*
X99595238Y-71847200D01*
X99595238Y-71847200D02*
X99547619Y-71799580D01*
X165104819Y-59166666D02*
X164628628Y-59499999D01*
X165104819Y-59738094D02*
X164104819Y-59738094D01*
X164104819Y-59738094D02*
X164104819Y-59357142D01*
X164104819Y-59357142D02*
X164152438Y-59261904D01*
X164152438Y-59261904D02*
X164200057Y-59214285D01*
X164200057Y-59214285D02*
X164295295Y-59166666D01*
X164295295Y-59166666D02*
X164438152Y-59166666D01*
X164438152Y-59166666D02*
X164533390Y-59214285D01*
X164533390Y-59214285D02*
X164581009Y-59261904D01*
X164581009Y-59261904D02*
X164628628Y-59357142D01*
X164628628Y-59357142D02*
X164628628Y-59738094D01*
X164200057Y-58785713D02*
X164152438Y-58738094D01*
X164152438Y-58738094D02*
X164104819Y-58642856D01*
X164104819Y-58642856D02*
X164104819Y-58404761D01*
X164104819Y-58404761D02*
X164152438Y-58309523D01*
X164152438Y-58309523D02*
X164200057Y-58261904D01*
X164200057Y-58261904D02*
X164295295Y-58214285D01*
X164295295Y-58214285D02*
X164390533Y-58214285D01*
X164390533Y-58214285D02*
X164533390Y-58261904D01*
X164533390Y-58261904D02*
X165104819Y-58833332D01*
X165104819Y-58833332D02*
X165104819Y-58214285D01*
X103991905Y-61414819D02*
X103991905Y-60414819D01*
X103991905Y-60414819D02*
X104230000Y-60414819D01*
X104230000Y-60414819D02*
X104372857Y-60462438D01*
X104372857Y-60462438D02*
X104468095Y-60557676D01*
X104468095Y-60557676D02*
X104515714Y-60652914D01*
X104515714Y-60652914D02*
X104563333Y-60843390D01*
X104563333Y-60843390D02*
X104563333Y-60986247D01*
X104563333Y-60986247D02*
X104515714Y-61176723D01*
X104515714Y-61176723D02*
X104468095Y-61271961D01*
X104468095Y-61271961D02*
X104372857Y-61367200D01*
X104372857Y-61367200D02*
X104230000Y-61414819D01*
X104230000Y-61414819D02*
X103991905Y-61414819D01*
X104896667Y-60414819D02*
X105515714Y-60414819D01*
X105515714Y-60414819D02*
X105182381Y-60795771D01*
X105182381Y-60795771D02*
X105325238Y-60795771D01*
X105325238Y-60795771D02*
X105420476Y-60843390D01*
X105420476Y-60843390D02*
X105468095Y-60891009D01*
X105468095Y-60891009D02*
X105515714Y-60986247D01*
X105515714Y-60986247D02*
X105515714Y-61224342D01*
X105515714Y-61224342D02*
X105468095Y-61319580D01*
X105468095Y-61319580D02*
X105420476Y-61367200D01*
X105420476Y-61367200D02*
X105325238Y-61414819D01*
X105325238Y-61414819D02*
X105039524Y-61414819D01*
X105039524Y-61414819D02*
X104944286Y-61367200D01*
X104944286Y-61367200D02*
X104896667Y-61319580D01*
X98666666Y-65419819D02*
X98666666Y-66134104D01*
X98666666Y-66134104D02*
X98619047Y-66276961D01*
X98619047Y-66276961D02*
X98523809Y-66372200D01*
X98523809Y-66372200D02*
X98380952Y-66419819D01*
X98380952Y-66419819D02*
X98285714Y-66419819D01*
X99095238Y-65515057D02*
X99142857Y-65467438D01*
X99142857Y-65467438D02*
X99238095Y-65419819D01*
X99238095Y-65419819D02*
X99476190Y-65419819D01*
X99476190Y-65419819D02*
X99571428Y-65467438D01*
X99571428Y-65467438D02*
X99619047Y-65515057D01*
X99619047Y-65515057D02*
X99666666Y-65610295D01*
X99666666Y-65610295D02*
X99666666Y-65705533D01*
X99666666Y-65705533D02*
X99619047Y-65848390D01*
X99619047Y-65848390D02*
X99047619Y-66419819D01*
X99047619Y-66419819D02*
X99666666Y-66419819D01*
X172833333Y-58609580D02*
X172785714Y-58657200D01*
X172785714Y-58657200D02*
X172642857Y-58704819D01*
X172642857Y-58704819D02*
X172547619Y-58704819D01*
X172547619Y-58704819D02*
X172404762Y-58657200D01*
X172404762Y-58657200D02*
X172309524Y-58561961D01*
X172309524Y-58561961D02*
X172261905Y-58466723D01*
X172261905Y-58466723D02*
X172214286Y-58276247D01*
X172214286Y-58276247D02*
X172214286Y-58133390D01*
X172214286Y-58133390D02*
X172261905Y-57942914D01*
X172261905Y-57942914D02*
X172309524Y-57847676D01*
X172309524Y-57847676D02*
X172404762Y-57752438D01*
X172404762Y-57752438D02*
X172547619Y-57704819D01*
X172547619Y-57704819D02*
X172642857Y-57704819D01*
X172642857Y-57704819D02*
X172785714Y-57752438D01*
X172785714Y-57752438D02*
X172833333Y-57800057D01*
X173690476Y-58038152D02*
X173690476Y-58704819D01*
X173452381Y-57657200D02*
X173214286Y-58371485D01*
X173214286Y-58371485D02*
X173833333Y-58371485D01*
D13*
X189305000Y-60815000D02*
X190000000Y-60815000D01*
X189305000Y-61500000D02*
X189305000Y-60815000D01*
X189305000Y-62185000D02*
X189305000Y-62060000D01*
X189305000Y-62185000D02*
X189391724Y-62185000D01*
X189305000Y-62185000D02*
X190695000Y-62185000D01*
X190608276Y-62185000D02*
X190695000Y-62185000D01*
X190695000Y-62185000D02*
X190695000Y-62060000D01*
X100805000Y-43815000D02*
X101500000Y-43815000D01*
X100805000Y-44500000D02*
X100805000Y-43815000D01*
X100805000Y-45185000D02*
X100805000Y-45060000D01*
X100805000Y-45185000D02*
X100891724Y-45185000D01*
X100805000Y-45185000D02*
X102195000Y-45185000D01*
X102108276Y-45185000D02*
X102195000Y-45185000D01*
X102195000Y-45185000D02*
X102195000Y-45060000D01*
X117360000Y-65870000D02*
X117360000Y-76150000D01*
X117360000Y-76150000D02*
X122660000Y-76150000D01*
X119010000Y-65870000D02*
X117360000Y-65870000D01*
X122660000Y-65870000D02*
X121010000Y-65870000D01*
X122660000Y-76150000D02*
X122660000Y-65870000D01*
X119010000Y-65870000D02*
G75*
G03*
X121010000Y-65870000I1000000J0D01*
G01*
D12*
X126698000Y-56382000D02*
X141938000Y-56382000D01*
X141938000Y-56382000D02*
X141938000Y-46222000D01*
X141938000Y-46222000D02*
X126698000Y-46222000D01*
X126698000Y-46222000D02*
X126698000Y-56382000D01*
D13*
X191110000Y-55030000D02*
X190000000Y-55030000D01*
X191110000Y-54270000D02*
X191110000Y-55030000D01*
X191110000Y-53510000D02*
X191110000Y-52305000D01*
X191110000Y-53510000D02*
X190563471Y-53510000D01*
X191110000Y-52305000D02*
X190307530Y-52305000D01*
X189692470Y-52305000D02*
X188890000Y-52305000D01*
X189436529Y-53510000D02*
X188890000Y-53510000D01*
X188890000Y-53510000D02*
X188890000Y-52305000D01*
X119900000Y-58390000D02*
X118100000Y-58390000D01*
X118100000Y-61610000D02*
X120550000Y-61610000D01*
X105305000Y-43815000D02*
X106000000Y-43815000D01*
X105305000Y-44500000D02*
X105305000Y-43815000D01*
X105305000Y-45185000D02*
X105305000Y-45060000D01*
X105305000Y-45185000D02*
X105391724Y-45185000D01*
X105305000Y-45185000D02*
X106695000Y-45185000D01*
X106608276Y-45185000D02*
X106695000Y-45185000D01*
X106695000Y-45185000D02*
X106695000Y-45060000D01*
X105735000Y-72772936D02*
X105735000Y-73227064D01*
X104265000Y-72772936D02*
X104265000Y-73227064D01*
X141772936Y-58265000D02*
X142227064Y-58265000D01*
X141772936Y-59735000D02*
X142227064Y-59735000D01*
X182475000Y-51195225D02*
X182475000Y-51695225D01*
X182725000Y-51445225D02*
X182225000Y-51445225D01*
X183580000Y-54000000D02*
X182040000Y-54000000D01*
X179960000Y-54000000D02*
X178420000Y-54000000D01*
X183580000Y-54040000D02*
X182040000Y-54040000D01*
X179960000Y-54040000D02*
X178420000Y-54040000D01*
X183579000Y-54080000D02*
X182040000Y-54080000D01*
X179960000Y-54080000D02*
X178421000Y-54080000D01*
X183578000Y-54120000D02*
X182040000Y-54120000D01*
X179960000Y-54120000D02*
X178422000Y-54120000D01*
X183576000Y-54160000D02*
X182040000Y-54160000D01*
X179960000Y-54160000D02*
X178424000Y-54160000D01*
X183573000Y-54200000D02*
X182040000Y-54200000D01*
X179960000Y-54200000D02*
X178427000Y-54200000D01*
X183569000Y-54240000D02*
X182040000Y-54240000D01*
X179960000Y-54240000D02*
X178431000Y-54240000D01*
X183565000Y-54280000D02*
X182040000Y-54280000D01*
X179960000Y-54280000D02*
X178435000Y-54280000D01*
X183561000Y-54320000D02*
X182040000Y-54320000D01*
X179960000Y-54320000D02*
X178439000Y-54320000D01*
X183556000Y-54360000D02*
X182040000Y-54360000D01*
X179960000Y-54360000D02*
X178444000Y-54360000D01*
X183550000Y-54400000D02*
X182040000Y-54400000D01*
X179960000Y-54400000D02*
X178450000Y-54400000D01*
X183543000Y-54440000D02*
X182040000Y-54440000D01*
X179960000Y-54440000D02*
X178457000Y-54440000D01*
X183536000Y-54480000D02*
X182040000Y-54480000D01*
X179960000Y-54480000D02*
X178464000Y-54480000D01*
X183528000Y-54520000D02*
X182040000Y-54520000D01*
X179960000Y-54520000D02*
X178472000Y-54520000D01*
X183520000Y-54560000D02*
X182040000Y-54560000D01*
X179960000Y-54560000D02*
X178480000Y-54560000D01*
X183511000Y-54600000D02*
X182040000Y-54600000D01*
X179960000Y-54600000D02*
X178489000Y-54600000D01*
X183501000Y-54640000D02*
X182040000Y-54640000D01*
X179960000Y-54640000D02*
X178499000Y-54640000D01*
X183491000Y-54680000D02*
X182040000Y-54680000D01*
X179960000Y-54680000D02*
X178509000Y-54680000D01*
X183480000Y-54721000D02*
X182040000Y-54721000D01*
X179960000Y-54721000D02*
X178520000Y-54721000D01*
X183468000Y-54761000D02*
X182040000Y-54761000D01*
X179960000Y-54761000D02*
X178532000Y-54761000D01*
X183455000Y-54801000D02*
X182040000Y-54801000D01*
X179960000Y-54801000D02*
X178545000Y-54801000D01*
X183442000Y-54841000D02*
X182040000Y-54841000D01*
X179960000Y-54841000D02*
X178558000Y-54841000D01*
X183428000Y-54881000D02*
X182040000Y-54881000D01*
X179960000Y-54881000D02*
X178572000Y-54881000D01*
X183414000Y-54921000D02*
X182040000Y-54921000D01*
X179960000Y-54921000D02*
X178586000Y-54921000D01*
X183398000Y-54961000D02*
X182040000Y-54961000D01*
X179960000Y-54961000D02*
X178602000Y-54961000D01*
X183382000Y-55001000D02*
X182040000Y-55001000D01*
X179960000Y-55001000D02*
X178618000Y-55001000D01*
X183365000Y-55041000D02*
X182040000Y-55041000D01*
X179960000Y-55041000D02*
X178635000Y-55041000D01*
X183348000Y-55081000D02*
X182040000Y-55081000D01*
X179960000Y-55081000D02*
X178652000Y-55081000D01*
X183329000Y-55121000D02*
X182040000Y-55121000D01*
X179960000Y-55121000D02*
X178671000Y-55121000D01*
X183310000Y-55161000D02*
X182040000Y-55161000D01*
X179960000Y-55161000D02*
X178690000Y-55161000D01*
X183290000Y-55201000D02*
X182040000Y-55201000D01*
X179960000Y-55201000D02*
X178710000Y-55201000D01*
X183268000Y-55241000D02*
X182040000Y-55241000D01*
X179960000Y-55241000D02*
X178732000Y-55241000D01*
X183247000Y-55281000D02*
X182040000Y-55281000D01*
X179960000Y-55281000D02*
X178753000Y-55281000D01*
X183224000Y-55321000D02*
X182040000Y-55321000D01*
X179960000Y-55321000D02*
X178776000Y-55321000D01*
X183200000Y-55361000D02*
X182040000Y-55361000D01*
X179960000Y-55361000D02*
X178800000Y-55361000D01*
X183175000Y-55401000D02*
X182040000Y-55401000D01*
X179960000Y-55401000D02*
X178825000Y-55401000D01*
X183149000Y-55441000D02*
X182040000Y-55441000D01*
X179960000Y-55441000D02*
X178851000Y-55441000D01*
X183122000Y-55481000D02*
X182040000Y-55481000D01*
X179960000Y-55481000D02*
X178878000Y-55481000D01*
X183095000Y-55521000D02*
X182040000Y-55521000D01*
X179960000Y-55521000D02*
X178905000Y-55521000D01*
X183065000Y-55561000D02*
X182040000Y-55561000D01*
X179960000Y-55561000D02*
X178935000Y-55561000D01*
X183035000Y-55601000D02*
X182040000Y-55601000D01*
X179960000Y-55601000D02*
X178965000Y-55601000D01*
X183004000Y-55641000D02*
X182040000Y-55641000D01*
X179960000Y-55641000D02*
X178996000Y-55641000D01*
X182971000Y-55681000D02*
X182040000Y-55681000D01*
X179960000Y-55681000D02*
X179029000Y-55681000D01*
X182937000Y-55721000D02*
X182040000Y-55721000D01*
X179960000Y-55721000D02*
X179063000Y-55721000D01*
X182901000Y-55761000D02*
X182040000Y-55761000D01*
X179960000Y-55761000D02*
X179099000Y-55761000D01*
X182864000Y-55801000D02*
X182040000Y-55801000D01*
X179960000Y-55801000D02*
X179136000Y-55801000D01*
X182826000Y-55841000D02*
X182040000Y-55841000D01*
X179960000Y-55841000D02*
X179174000Y-55841000D01*
X182785000Y-55881000D02*
X182040000Y-55881000D01*
X179960000Y-55881000D02*
X179215000Y-55881000D01*
X182743000Y-55921000D02*
X182040000Y-55921000D01*
X179960000Y-55921000D02*
X179257000Y-55921000D01*
X182699000Y-55961000D02*
X182040000Y-55961000D01*
X179960000Y-55961000D02*
X179301000Y-55961000D01*
X182653000Y-56001000D02*
X182040000Y-56001000D01*
X179960000Y-56001000D02*
X179347000Y-56001000D01*
X182605000Y-56041000D02*
X179395000Y-56041000D01*
X182554000Y-56081000D02*
X179446000Y-56081000D01*
X182500000Y-56121000D02*
X179500000Y-56121000D01*
X182443000Y-56161000D02*
X179557000Y-56161000D01*
X182383000Y-56201000D02*
X179617000Y-56201000D01*
X182319000Y-56241000D02*
X179681000Y-56241000D01*
X182251000Y-56281000D02*
X179749000Y-56281000D01*
X182178000Y-56321000D02*
X179822000Y-56321000D01*
X182098000Y-56361000D02*
X179902000Y-56361000D01*
X182011000Y-56401000D02*
X179989000Y-56401000D01*
X181915000Y-56441000D02*
X180085000Y-56441000D01*
X181805000Y-56481000D02*
X180195000Y-56481000D01*
X181677000Y-56521000D02*
X180323000Y-56521000D01*
X181518000Y-56561000D02*
X180482000Y-56561000D01*
X181284000Y-56601000D02*
X180716000Y-56601000D01*
X183620000Y-54000000D02*
G75*
G03*
X178380000Y-54000000I-2620000J0D01*
G01*
X178380000Y-54000000D02*
G75*
G03*
X183620000Y-54000000I2620000J0D01*
G01*
X172100000Y-55610000D02*
X173900000Y-55610000D01*
X173900000Y-52390000D02*
X171450000Y-52390000D01*
X167000000Y-57740000D02*
X167000000Y-56720000D01*
X165530000Y-56720000D02*
X168470000Y-56720000D01*
X168470000Y-56720000D02*
X168470000Y-51280000D01*
X165530000Y-55940000D02*
X168470000Y-55940000D01*
X165530000Y-55820000D02*
X168470000Y-55820000D01*
X165530000Y-55700000D02*
X168470000Y-55700000D01*
X165530000Y-51280000D02*
X165530000Y-56720000D01*
X168470000Y-51280000D02*
X165530000Y-51280000D01*
X167000000Y-50260000D02*
X167000000Y-51280000D01*
X103805000Y-66315000D02*
X104500000Y-66315000D01*
X103805000Y-67000000D02*
X103805000Y-66315000D01*
X103805000Y-67685000D02*
X103805000Y-67560000D01*
X103805000Y-67685000D02*
X103891724Y-67685000D01*
X103805000Y-67685000D02*
X105195000Y-67685000D01*
X105108276Y-67685000D02*
X105195000Y-67685000D01*
X105195000Y-67685000D02*
X105195000Y-67560000D01*
X108265000Y-75227064D02*
X108265000Y-74772936D01*
X109735000Y-75227064D02*
X109735000Y-74772936D01*
X127735000Y-70701248D02*
X127735000Y-71223752D01*
X126265000Y-70701248D02*
X126265000Y-71223752D01*
X113738748Y-58265000D02*
X114261252Y-58265000D01*
X113738748Y-59735000D02*
X114261252Y-59735000D01*
X100110000Y-52030000D02*
X99000000Y-52030000D01*
X100110000Y-51270000D02*
X100110000Y-52030000D01*
X100110000Y-50510000D02*
X100110000Y-49305000D01*
X100110000Y-50510000D02*
X99563471Y-50510000D01*
X100110000Y-49305000D02*
X99307530Y-49305000D01*
X98692470Y-49305000D02*
X97890000Y-49305000D01*
X98436529Y-50510000D02*
X97890000Y-50510000D01*
X97890000Y-50510000D02*
X97890000Y-49305000D01*
X157410000Y-60560000D02*
X159170000Y-60560000D01*
X159170000Y-57490000D02*
X156740000Y-57490000D01*
X115000000Y-45940000D02*
X111550000Y-45940000D01*
X115000000Y-45940000D02*
X116950000Y-45940000D01*
X115000000Y-56060000D02*
X113050000Y-56060000D01*
X115000000Y-56060000D02*
X116950000Y-56060000D01*
X163160000Y-49000000D02*
G75*
G03*
X153420000Y-49000000I-4870000J0D01*
G01*
X153420000Y-49000000D02*
G75*
G03*
X163160000Y-49000000I4870000J0D01*
G01*
X150265000Y-60227064D02*
X150265000Y-59772936D01*
X151735000Y-60227064D02*
X151735000Y-59772936D01*
X144730000Y-56660000D02*
X149371000Y-56660000D01*
X144730000Y-56660000D02*
X144730000Y-46420000D01*
X146240000Y-56660000D02*
X146240000Y-46420000D01*
X149371000Y-56660000D02*
X149371000Y-46420000D01*
X144730000Y-53390000D02*
X146240000Y-53390000D01*
X144730000Y-49689000D02*
X146240000Y-49689000D01*
X144730000Y-46420000D02*
X149371000Y-46420000D01*
X123735000Y-57738748D02*
X123735000Y-58261252D01*
X122265000Y-57738748D02*
X122265000Y-58261252D01*
X112265000Y-72227064D02*
X112265000Y-71772936D01*
X113735000Y-72227064D02*
X113735000Y-71772936D01*
X155227064Y-64735000D02*
X154772936Y-64735000D01*
X155227064Y-63265000D02*
X154772936Y-63265000D01*
X147475000Y-62195225D02*
X147475000Y-62695225D01*
X147725000Y-62445225D02*
X147225000Y-62445225D01*
X148580000Y-65000000D02*
X147040000Y-65000000D01*
X144960000Y-65000000D02*
X143420000Y-65000000D01*
X148580000Y-65040000D02*
X147040000Y-65040000D01*
X144960000Y-65040000D02*
X143420000Y-65040000D01*
X148579000Y-65080000D02*
X147040000Y-65080000D01*
X144960000Y-65080000D02*
X143421000Y-65080000D01*
X148578000Y-65120000D02*
X147040000Y-65120000D01*
X144960000Y-65120000D02*
X143422000Y-65120000D01*
X148576000Y-65160000D02*
X147040000Y-65160000D01*
X144960000Y-65160000D02*
X143424000Y-65160000D01*
X148573000Y-65200000D02*
X147040000Y-65200000D01*
X144960000Y-65200000D02*
X143427000Y-65200000D01*
X148569000Y-65240000D02*
X147040000Y-65240000D01*
X144960000Y-65240000D02*
X143431000Y-65240000D01*
X148565000Y-65280000D02*
X147040000Y-65280000D01*
X144960000Y-65280000D02*
X143435000Y-65280000D01*
X148561000Y-65320000D02*
X147040000Y-65320000D01*
X144960000Y-65320000D02*
X143439000Y-65320000D01*
X148556000Y-65360000D02*
X147040000Y-65360000D01*
X144960000Y-65360000D02*
X143444000Y-65360000D01*
X148550000Y-65400000D02*
X147040000Y-65400000D01*
X144960000Y-65400000D02*
X143450000Y-65400000D01*
X148543000Y-65440000D02*
X147040000Y-65440000D01*
X144960000Y-65440000D02*
X143457000Y-65440000D01*
X148536000Y-65480000D02*
X147040000Y-65480000D01*
X144960000Y-65480000D02*
X143464000Y-65480000D01*
X148528000Y-65520000D02*
X147040000Y-65520000D01*
X144960000Y-65520000D02*
X143472000Y-65520000D01*
X148520000Y-65560000D02*
X147040000Y-65560000D01*
X144960000Y-65560000D02*
X143480000Y-65560000D01*
X148511000Y-65600000D02*
X147040000Y-65600000D01*
X144960000Y-65600000D02*
X143489000Y-65600000D01*
X148501000Y-65640000D02*
X147040000Y-65640000D01*
X144960000Y-65640000D02*
X143499000Y-65640000D01*
X148491000Y-65680000D02*
X147040000Y-65680000D01*
X144960000Y-65680000D02*
X143509000Y-65680000D01*
X148480000Y-65721000D02*
X147040000Y-65721000D01*
X144960000Y-65721000D02*
X143520000Y-65721000D01*
X148468000Y-65761000D02*
X147040000Y-65761000D01*
X144960000Y-65761000D02*
X143532000Y-65761000D01*
X148455000Y-65801000D02*
X147040000Y-65801000D01*
X144960000Y-65801000D02*
X143545000Y-65801000D01*
X148442000Y-65841000D02*
X147040000Y-65841000D01*
X144960000Y-65841000D02*
X143558000Y-65841000D01*
X148428000Y-65881000D02*
X147040000Y-65881000D01*
X144960000Y-65881000D02*
X143572000Y-65881000D01*
X148414000Y-65921000D02*
X147040000Y-65921000D01*
X144960000Y-65921000D02*
X143586000Y-65921000D01*
X148398000Y-65961000D02*
X147040000Y-65961000D01*
X144960000Y-65961000D02*
X143602000Y-65961000D01*
X148382000Y-66001000D02*
X147040000Y-66001000D01*
X144960000Y-66001000D02*
X143618000Y-66001000D01*
X148365000Y-66041000D02*
X147040000Y-66041000D01*
X144960000Y-66041000D02*
X143635000Y-66041000D01*
X148348000Y-66081000D02*
X147040000Y-66081000D01*
X144960000Y-66081000D02*
X143652000Y-66081000D01*
X148329000Y-66121000D02*
X147040000Y-66121000D01*
X144960000Y-66121000D02*
X143671000Y-66121000D01*
X148310000Y-66161000D02*
X147040000Y-66161000D01*
X144960000Y-66161000D02*
X143690000Y-66161000D01*
X148290000Y-66201000D02*
X147040000Y-66201000D01*
X144960000Y-66201000D02*
X143710000Y-66201000D01*
X148268000Y-66241000D02*
X147040000Y-66241000D01*
X144960000Y-66241000D02*
X143732000Y-66241000D01*
X148247000Y-66281000D02*
X147040000Y-66281000D01*
X144960000Y-66281000D02*
X143753000Y-66281000D01*
X148224000Y-66321000D02*
X147040000Y-66321000D01*
X144960000Y-66321000D02*
X143776000Y-66321000D01*
X148200000Y-66361000D02*
X147040000Y-66361000D01*
X144960000Y-66361000D02*
X143800000Y-66361000D01*
X148175000Y-66401000D02*
X147040000Y-66401000D01*
X144960000Y-66401000D02*
X143825000Y-66401000D01*
X148149000Y-66441000D02*
X147040000Y-66441000D01*
X144960000Y-66441000D02*
X143851000Y-66441000D01*
X148122000Y-66481000D02*
X147040000Y-66481000D01*
X144960000Y-66481000D02*
X143878000Y-66481000D01*
X148095000Y-66521000D02*
X147040000Y-66521000D01*
X144960000Y-66521000D02*
X143905000Y-66521000D01*
X148065000Y-66561000D02*
X147040000Y-66561000D01*
X144960000Y-66561000D02*
X143935000Y-66561000D01*
X148035000Y-66601000D02*
X147040000Y-66601000D01*
X144960000Y-66601000D02*
X143965000Y-66601000D01*
X148004000Y-66641000D02*
X147040000Y-66641000D01*
X144960000Y-66641000D02*
X143996000Y-66641000D01*
X147971000Y-66681000D02*
X147040000Y-66681000D01*
X144960000Y-66681000D02*
X144029000Y-66681000D01*
X147937000Y-66721000D02*
X147040000Y-66721000D01*
X144960000Y-66721000D02*
X144063000Y-66721000D01*
X147901000Y-66761000D02*
X147040000Y-66761000D01*
X144960000Y-66761000D02*
X144099000Y-66761000D01*
X147864000Y-66801000D02*
X147040000Y-66801000D01*
X144960000Y-66801000D02*
X144136000Y-66801000D01*
X147826000Y-66841000D02*
X147040000Y-66841000D01*
X144960000Y-66841000D02*
X144174000Y-66841000D01*
X147785000Y-66881000D02*
X147040000Y-66881000D01*
X144960000Y-66881000D02*
X144215000Y-66881000D01*
X147743000Y-66921000D02*
X147040000Y-66921000D01*
X144960000Y-66921000D02*
X144257000Y-66921000D01*
X147699000Y-66961000D02*
X147040000Y-66961000D01*
X144960000Y-66961000D02*
X144301000Y-66961000D01*
X147653000Y-67001000D02*
X147040000Y-67001000D01*
X144960000Y-67001000D02*
X144347000Y-67001000D01*
X147605000Y-67041000D02*
X144395000Y-67041000D01*
X147554000Y-67081000D02*
X144446000Y-67081000D01*
X147500000Y-67121000D02*
X144500000Y-67121000D01*
X147443000Y-67161000D02*
X144557000Y-67161000D01*
X147383000Y-67201000D02*
X144617000Y-67201000D01*
X147319000Y-67241000D02*
X144681000Y-67241000D01*
X147251000Y-67281000D02*
X144749000Y-67281000D01*
X147178000Y-67321000D02*
X144822000Y-67321000D01*
X147098000Y-67361000D02*
X144902000Y-67361000D01*
X147011000Y-67401000D02*
X144989000Y-67401000D01*
X146915000Y-67441000D02*
X145085000Y-67441000D01*
X146805000Y-67481000D02*
X145195000Y-67481000D01*
X146677000Y-67521000D02*
X145323000Y-67521000D01*
X146518000Y-67561000D02*
X145482000Y-67561000D01*
X146284000Y-67601000D02*
X145716000Y-67601000D01*
X148620000Y-65000000D02*
G75*
G03*
X143380000Y-65000000I-2620000J0D01*
G01*
X143380000Y-65000000D02*
G75*
G03*
X148620000Y-65000000I2620000J0D01*
G01*
X122700000Y-52250000D02*
X123300000Y-52250000D01*
X124000000Y-52950000D02*
X124000000Y-54350000D01*
X122000000Y-54350000D02*
X122000000Y-52950000D01*
X123300000Y-55050000D02*
X122700000Y-55050000D01*
X124000000Y-52950000D02*
G75*
G03*
X123300000Y-52250000I-699999J1D01*
G01*
X122700000Y-52250000D02*
G75*
G03*
X122000000Y-52950000I-1J-699999D01*
G01*
X123300000Y-55050000D02*
G75*
G03*
X124000000Y-54350000I0J700000D01*
G01*
X122000000Y-54350000D02*
G75*
G03*
X122700000Y-55050000I700000J0D01*
G01*
X180265000Y-48227064D02*
X180265000Y-47772936D01*
X181735000Y-48227064D02*
X181735000Y-47772936D01*
X163805000Y-65315000D02*
X164500000Y-65315000D01*
X163805000Y-66000000D02*
X163805000Y-65315000D01*
X163805000Y-66685000D02*
X163805000Y-66560000D01*
X163805000Y-66685000D02*
X163891724Y-66685000D01*
X163805000Y-66685000D02*
X165195000Y-66685000D01*
X165108276Y-66685000D02*
X165195000Y-66685000D01*
X165195000Y-66685000D02*
X165195000Y-66560000D01*
X108265000Y-71227064D02*
X108265000Y-70772936D01*
X109735000Y-71227064D02*
X109735000Y-70772936D01*
X135000000Y-68740000D02*
X135000000Y-67720000D01*
X133530000Y-67720000D02*
X136470000Y-67720000D01*
X136470000Y-67720000D02*
X136470000Y-62280000D01*
X133530000Y-66940000D02*
X136470000Y-66940000D01*
X133530000Y-66820000D02*
X136470000Y-66820000D01*
X133530000Y-66700000D02*
X136470000Y-66700000D01*
X133530000Y-62280000D02*
X133530000Y-67720000D01*
X136470000Y-62280000D02*
X133530000Y-62280000D01*
X135000000Y-61260000D02*
X135000000Y-62280000D01*
X122265000Y-62261252D02*
X122265000Y-61738748D01*
X123735000Y-62261252D02*
X123735000Y-61738748D01*
X98305000Y-72315000D02*
X99000000Y-72315000D01*
X98305000Y-73000000D02*
X98305000Y-72315000D01*
X98305000Y-73685000D02*
X98305000Y-73560000D01*
X98305000Y-73685000D02*
X98391724Y-73685000D01*
X98305000Y-73685000D02*
X99695000Y-73685000D01*
X99608276Y-73685000D02*
X99695000Y-73685000D01*
X99695000Y-73685000D02*
X99695000Y-73560000D01*
X163735000Y-58772936D02*
X163735000Y-59227064D01*
X162265000Y-58772936D02*
X162265000Y-59227064D01*
X107290000Y-58545000D02*
X107290000Y-55455000D01*
X101740001Y-56999538D02*
G75*
G03*
X107289999Y-58544830I2989999J-462D01*
G01*
X107290000Y-55455170D02*
G75*
G03*
X101740000Y-57000462I-2560000J-1544830D01*
G01*
X107230000Y-57000000D02*
G75*
G03*
X102230000Y-57000000I-2500000J0D01*
G01*
X102230000Y-57000000D02*
G75*
G03*
X107230000Y-57000000I2500000J0D01*
G01*
X100110000Y-65030000D02*
X99000000Y-65030000D01*
X100110000Y-64270000D02*
X100110000Y-65030000D01*
X100110000Y-63510000D02*
X100110000Y-62305000D01*
X100110000Y-63510000D02*
X99563471Y-63510000D01*
X100110000Y-62305000D02*
X99307530Y-62305000D01*
X98692470Y-62305000D02*
X97890000Y-62305000D01*
X98436529Y-63510000D02*
X97890000Y-63510000D01*
X97890000Y-63510000D02*
X97890000Y-62305000D01*
X170195225Y-60525000D02*
X170695225Y-60525000D01*
X170445225Y-60275000D02*
X170445225Y-60775000D01*
X173000000Y-59420000D02*
X173000000Y-60960000D01*
X173000000Y-63040000D02*
X173000000Y-64580000D01*
X173040000Y-59420000D02*
X173040000Y-60960000D01*
X173040000Y-63040000D02*
X173040000Y-64580000D01*
X173080000Y-59421000D02*
X173080000Y-60960000D01*
X173080000Y-63040000D02*
X173080000Y-64579000D01*
X173120000Y-59422000D02*
X173120000Y-60960000D01*
X173120000Y-63040000D02*
X173120000Y-64578000D01*
X173160000Y-59424000D02*
X173160000Y-60960000D01*
X173160000Y-63040000D02*
X173160000Y-64576000D01*
X173200000Y-59427000D02*
X173200000Y-60960000D01*
X173200000Y-63040000D02*
X173200000Y-64573000D01*
X173240000Y-59431000D02*
X173240000Y-60960000D01*
X173240000Y-63040000D02*
X173240000Y-64569000D01*
X173280000Y-59435000D02*
X173280000Y-60960000D01*
X173280000Y-63040000D02*
X173280000Y-64565000D01*
X173320000Y-59439000D02*
X173320000Y-60960000D01*
X173320000Y-63040000D02*
X173320000Y-64561000D01*
X173360000Y-59444000D02*
X173360000Y-60960000D01*
X173360000Y-63040000D02*
X173360000Y-64556000D01*
X173400000Y-59450000D02*
X173400000Y-60960000D01*
X173400000Y-63040000D02*
X173400000Y-64550000D01*
X173440000Y-59457000D02*
X173440000Y-60960000D01*
X173440000Y-63040000D02*
X173440000Y-64543000D01*
X173480000Y-59464000D02*
X173480000Y-60960000D01*
X173480000Y-63040000D02*
X173480000Y-64536000D01*
X173520000Y-59472000D02*
X173520000Y-60960000D01*
X173520000Y-63040000D02*
X173520000Y-64528000D01*
X173560000Y-59480000D02*
X173560000Y-60960000D01*
X173560000Y-63040000D02*
X173560000Y-64520000D01*
X173600000Y-59489000D02*
X173600000Y-60960000D01*
X173600000Y-63040000D02*
X173600000Y-64511000D01*
X173640000Y-59499000D02*
X173640000Y-60960000D01*
X173640000Y-63040000D02*
X173640000Y-64501000D01*
X173680000Y-59509000D02*
X173680000Y-60960000D01*
X173680000Y-63040000D02*
X173680000Y-64491000D01*
X173721000Y-59520000D02*
X173721000Y-60960000D01*
X173721000Y-63040000D02*
X173721000Y-64480000D01*
X173761000Y-59532000D02*
X173761000Y-60960000D01*
X173761000Y-63040000D02*
X173761000Y-64468000D01*
X173801000Y-59545000D02*
X173801000Y-60960000D01*
X173801000Y-63040000D02*
X173801000Y-64455000D01*
X173841000Y-59558000D02*
X173841000Y-60960000D01*
X173841000Y-63040000D02*
X173841000Y-64442000D01*
X173881000Y-59572000D02*
X173881000Y-60960000D01*
X173881000Y-63040000D02*
X173881000Y-64428000D01*
X173921000Y-59586000D02*
X173921000Y-60960000D01*
X173921000Y-63040000D02*
X173921000Y-64414000D01*
X173961000Y-59602000D02*
X173961000Y-60960000D01*
X173961000Y-63040000D02*
X173961000Y-64398000D01*
X174001000Y-59618000D02*
X174001000Y-60960000D01*
X174001000Y-63040000D02*
X174001000Y-64382000D01*
X174041000Y-59635000D02*
X174041000Y-60960000D01*
X174041000Y-63040000D02*
X174041000Y-64365000D01*
X174081000Y-59652000D02*
X174081000Y-60960000D01*
X174081000Y-63040000D02*
X174081000Y-64348000D01*
X174121000Y-59671000D02*
X174121000Y-60960000D01*
X174121000Y-63040000D02*
X174121000Y-64329000D01*
X174161000Y-59690000D02*
X174161000Y-60960000D01*
X174161000Y-63040000D02*
X174161000Y-64310000D01*
X174201000Y-59710000D02*
X174201000Y-60960000D01*
X174201000Y-63040000D02*
X174201000Y-64290000D01*
X174241000Y-59732000D02*
X174241000Y-60960000D01*
X174241000Y-63040000D02*
X174241000Y-64268000D01*
X174281000Y-59753000D02*
X174281000Y-60960000D01*
X174281000Y-63040000D02*
X174281000Y-64247000D01*
X174321000Y-59776000D02*
X174321000Y-60960000D01*
X174321000Y-63040000D02*
X174321000Y-64224000D01*
X174361000Y-59800000D02*
X174361000Y-60960000D01*
X174361000Y-63040000D02*
X174361000Y-64200000D01*
X174401000Y-59825000D02*
X174401000Y-60960000D01*
X174401000Y-63040000D02*
X174401000Y-64175000D01*
X174441000Y-59851000D02*
X174441000Y-60960000D01*
X174441000Y-63040000D02*
X174441000Y-64149000D01*
X174481000Y-59878000D02*
X174481000Y-60960000D01*
X174481000Y-63040000D02*
X174481000Y-64122000D01*
X174521000Y-59905000D02*
X174521000Y-60960000D01*
X174521000Y-63040000D02*
X174521000Y-64095000D01*
X174561000Y-59935000D02*
X174561000Y-60960000D01*
X174561000Y-63040000D02*
X174561000Y-64065000D01*
X174601000Y-59965000D02*
X174601000Y-60960000D01*
X174601000Y-63040000D02*
X174601000Y-64035000D01*
X174641000Y-59996000D02*
X174641000Y-60960000D01*
X174641000Y-63040000D02*
X174641000Y-64004000D01*
X174681000Y-60029000D02*
X174681000Y-60960000D01*
X174681000Y-63040000D02*
X174681000Y-63971000D01*
X174721000Y-60063000D02*
X174721000Y-60960000D01*
X174721000Y-63040000D02*
X174721000Y-63937000D01*
X174761000Y-60099000D02*
X174761000Y-60960000D01*
X174761000Y-63040000D02*
X174761000Y-63901000D01*
X174801000Y-60136000D02*
X174801000Y-60960000D01*
X174801000Y-63040000D02*
X174801000Y-63864000D01*
X174841000Y-60174000D02*
X174841000Y-60960000D01*
X174841000Y-63040000D02*
X174841000Y-63826000D01*
X174881000Y-60215000D02*
X174881000Y-60960000D01*
X174881000Y-63040000D02*
X174881000Y-63785000D01*
X174921000Y-60257000D02*
X174921000Y-60960000D01*
X174921000Y-63040000D02*
X174921000Y-63743000D01*
X174961000Y-60301000D02*
X174961000Y-60960000D01*
X174961000Y-63040000D02*
X174961000Y-63699000D01*
X175001000Y-60347000D02*
X175001000Y-60960000D01*
X175001000Y-63040000D02*
X175001000Y-63653000D01*
X175041000Y-60395000D02*
X175041000Y-63605000D01*
X175081000Y-60446000D02*
X175081000Y-63554000D01*
X175121000Y-60500000D02*
X175121000Y-63500000D01*
X175161000Y-60557000D02*
X175161000Y-63443000D01*
X175201000Y-60617000D02*
X175201000Y-63383000D01*
X175241000Y-60681000D02*
X175241000Y-63319000D01*
X175281000Y-60749000D02*
X175281000Y-63251000D01*
X175321000Y-60822000D02*
X175321000Y-63178000D01*
X175361000Y-60902000D02*
X175361000Y-63098000D01*
X175401000Y-60989000D02*
X175401000Y-63011000D01*
X175441000Y-61085000D02*
X175441000Y-62915000D01*
X175481000Y-61195000D02*
X175481000Y-62805000D01*
X175521000Y-61323000D02*
X175521000Y-62677000D01*
X175561000Y-61482000D02*
X175561000Y-62518000D01*
X175601000Y-61716000D02*
X175601000Y-62284000D01*
X175620000Y-62000000D02*
G75*
G03*
X170380000Y-62000000I-2620000J0D01*
G01*
X170380000Y-62000000D02*
G75*
G03*
X175620000Y-62000000I2620000J0D01*
G01*
%LPC*%
D14*
X190000000Y-61500000D03*
X101500000Y-44500000D03*
D15*
X116200000Y-67200000D03*
D16*
X116200000Y-69740000D03*
X116200000Y-72280000D03*
X116200000Y-74820000D03*
X123820000Y-74820000D03*
X123820000Y-72280000D03*
X123820000Y-69740000D03*
X123820000Y-67200000D03*
D17*
X138636000Y-54604000D03*
X134318000Y-54604000D03*
X138636000Y-48000000D03*
X134318000Y-48000000D03*
X130000000Y-54604000D03*
X130000000Y-48000000D03*
D18*
X190000000Y-54270000D03*
D19*
X190000000Y-53000000D03*
D20*
X120350000Y-60950000D03*
X120350000Y-60000000D03*
X120350000Y-59050000D03*
X117650000Y-59050000D03*
X117650000Y-60950000D03*
D14*
X106000000Y-44500000D03*
D21*
X105000000Y-72000000D03*
X105000000Y-74000000D03*
D22*
X141000000Y-59000000D03*
X143000000Y-59000000D03*
D15*
X181000000Y-53000000D03*
D23*
X181000000Y-55000000D03*
D20*
X171650000Y-53050000D03*
X171650000Y-54000000D03*
X171650000Y-54950000D03*
X174350000Y-54950000D03*
X174350000Y-53050000D03*
D24*
X167000000Y-59080000D03*
D25*
X167000000Y-48920000D03*
D14*
X104500000Y-67000000D03*
D26*
X109000000Y-76000000D03*
X109000000Y-74000000D03*
D27*
X127000000Y-69925000D03*
X127000000Y-72000000D03*
D28*
X112962500Y-59000000D03*
X115037500Y-59000000D03*
D18*
X99000000Y-51270000D03*
D19*
X99000000Y-50000000D03*
D29*
X156580000Y-58050000D03*
X156580000Y-59000000D03*
X156580000Y-59950000D03*
X160000000Y-59950000D03*
X160000000Y-59000000D03*
X160000000Y-58050000D03*
D30*
X112525000Y-46555000D03*
X112525000Y-47825000D03*
X112525000Y-49095000D03*
X112525000Y-50365000D03*
X112525000Y-51635000D03*
X112525000Y-52905000D03*
X112525000Y-54175000D03*
X112525000Y-55445000D03*
X117475000Y-55445000D03*
X117475000Y-54175000D03*
X117475000Y-52905000D03*
X117475000Y-51635000D03*
X117475000Y-50365000D03*
X117475000Y-49095000D03*
X117475000Y-47825000D03*
X117475000Y-46555000D03*
D31*
X160790000Y-49000000D03*
X155790000Y-49000000D03*
D26*
X151000000Y-61000000D03*
X151000000Y-59000000D03*
D32*
X148000000Y-54080000D03*
D33*
X148000000Y-51540000D03*
X148000000Y-49000000D03*
D27*
X123000000Y-56962500D03*
X123000000Y-59037500D03*
D26*
X113000000Y-73000000D03*
X113000000Y-71000000D03*
D34*
X156000000Y-64000000D03*
X154000000Y-64000000D03*
D15*
X146000000Y-64000000D03*
D23*
X146000000Y-66000000D03*
D35*
X123000000Y-53000000D03*
D36*
X123000000Y-54300000D03*
D26*
X181000000Y-49000000D03*
X181000000Y-47000000D03*
D14*
X164500000Y-66000000D03*
D26*
X109000000Y-72000000D03*
X109000000Y-70000000D03*
D24*
X135000000Y-70080000D03*
D25*
X135000000Y-59920000D03*
D37*
X123000000Y-63037500D03*
X123000000Y-60962500D03*
D14*
X99000000Y-73000000D03*
D21*
X163000000Y-58000000D03*
X163000000Y-60000000D03*
D38*
X106000000Y-57000000D03*
D39*
X103460000Y-57000000D03*
D18*
X99000000Y-64270000D03*
D19*
X99000000Y-63000000D03*
D15*
X172000000Y-62000000D03*
D23*
X174000000Y-62000000D03*
G36*
X191004418Y-64000316D02*
G01*
X191275785Y-64019724D01*
X191293297Y-64022242D01*
X191554794Y-64079127D01*
X191571770Y-64084111D01*
X191822524Y-64177638D01*
X191838617Y-64184988D01*
X192073496Y-64313241D01*
X192088380Y-64322806D01*
X192302624Y-64483188D01*
X192315994Y-64494774D01*
X192505225Y-64684005D01*
X192516811Y-64697375D01*
X192677193Y-64911619D01*
X192686758Y-64926503D01*
X192815011Y-65161382D01*
X192822361Y-65177475D01*
X192915888Y-65428229D01*
X192920872Y-65445205D01*
X192977757Y-65706702D01*
X192980275Y-65724214D01*
X192999684Y-65995581D01*
X193000000Y-66004427D01*
X193000000Y-76927477D01*
X192999980Y-76929691D01*
X192998765Y-76997739D01*
X192998607Y-77002163D01*
X192994963Y-77070135D01*
X192994825Y-77072342D01*
X192989980Y-77140090D01*
X192989585Y-77144500D01*
X192975070Y-77279507D01*
X192973811Y-77288268D01*
X192950100Y-77419694D01*
X192948218Y-77428345D01*
X192915191Y-77557741D01*
X192912697Y-77566234D01*
X192870520Y-77692952D01*
X192867427Y-77701245D01*
X192816322Y-77824624D01*
X192812645Y-77832675D01*
X192752872Y-77952087D01*
X192748630Y-77959856D01*
X192680479Y-78074719D01*
X192675693Y-78082166D01*
X192599525Y-78191868D01*
X192594220Y-78198954D01*
X192510433Y-78302927D01*
X192504637Y-78309617D01*
X192413627Y-78407368D01*
X192407368Y-78413626D01*
X192309626Y-78504628D01*
X192302936Y-78510425D01*
X192198942Y-78594229D01*
X192191856Y-78599534D01*
X192082166Y-78675693D01*
X192074719Y-78680479D01*
X191959856Y-78748630D01*
X191952087Y-78752872D01*
X191832671Y-78812647D01*
X191824620Y-78816324D01*
X191701237Y-78867431D01*
X191692943Y-78870524D01*
X191566234Y-78912697D01*
X191557740Y-78915191D01*
X191428325Y-78948221D01*
X191419676Y-78950103D01*
X191288268Y-78973811D01*
X191279507Y-78975070D01*
X191144500Y-78989585D01*
X191140090Y-78989980D01*
X191072342Y-78994825D01*
X191070135Y-78994963D01*
X191002163Y-78998607D01*
X190997739Y-78998765D01*
X190929692Y-78999980D01*
X190927478Y-79000000D01*
X182004428Y-79000000D01*
X181995582Y-78999684D01*
X181724214Y-78980275D01*
X181706702Y-78977757D01*
X181445205Y-78920872D01*
X181428229Y-78915888D01*
X181177475Y-78822361D01*
X181161382Y-78815011D01*
X180926503Y-78686758D01*
X180911619Y-78677193D01*
X180697375Y-78516811D01*
X180684005Y-78505225D01*
X180494774Y-78315994D01*
X180483188Y-78302624D01*
X180322806Y-78088380D01*
X180313241Y-78073496D01*
X180184988Y-77838617D01*
X180177638Y-77822524D01*
X180084111Y-77571770D01*
X180079127Y-77554794D01*
X180022242Y-77293297D01*
X180019724Y-77275785D01*
X180000316Y-77004418D01*
X180000000Y-76995572D01*
X180000000Y-66004427D01*
X180000316Y-65995581D01*
X180019724Y-65724214D01*
X180022242Y-65706702D01*
X180079127Y-65445205D01*
X180084111Y-65428229D01*
X180177638Y-65177475D01*
X180184988Y-65161382D01*
X180313241Y-64926503D01*
X180322806Y-64911619D01*
X180483188Y-64697375D01*
X180494774Y-64684005D01*
X180684005Y-64494774D01*
X180697375Y-64483188D01*
X180911619Y-64322806D01*
X180926503Y-64313241D01*
X181161382Y-64184988D01*
X181177475Y-64177638D01*
X181428229Y-64084111D01*
X181445205Y-64079127D01*
X181706702Y-64022242D01*
X181724214Y-64019724D01*
X181995582Y-64000316D01*
X182004428Y-64000000D01*
X190995572Y-64000000D01*
X191004418Y-64000316D01*
G37*
%LPD*%
M02*
