G04 #@! TF.GenerationSoftware,KiCad,Pcbnew,7.0.10*
G04 #@! TF.CreationDate,2024-02-12T15:02:02-05:00*
G04 #@! TF.ProjectId,breakout_pcb,62726561-6b6f-4757-945f-7063622e6b69,rev?*
G04 #@! TF.SameCoordinates,Original*
G04 #@! TF.FileFunction,Copper,L2,Bot*
G04 #@! TF.FilePolarity,Positive*
%FSLAX46Y46*%
G04 Gerber Fmt 4.6, Leading zero omitted, Abs format (unit mm)*
G04 Created by KiCad (PCBNEW 7.0.10) date 2024-02-12 15:02:02*
%MOMM*%
%LPD*%
G01*
G04 APERTURE LIST*
G04 Aperture macros list*
%AMRoundRect*
0 Rectangle with rounded corners*
0 $1 Rounding radius*
0 $2 $3 $4 $5 $6 $7 $8 $9 X,Y pos of 4 corners*
0 Add a 4 corners polygon primitive as box body*
4,1,4,$2,$3,$4,$5,$6,$7,$8,$9,$2,$3,0*
0 Add four circle primitives for the rounded corners*
1,1,$1+$1,$2,$3*
1,1,$1+$1,$4,$5*
1,1,$1+$1,$6,$7*
1,1,$1+$1,$8,$9*
0 Add four rect primitives between the rounded corners*
20,1,$1+$1,$2,$3,$4,$5,0*
20,1,$1+$1,$4,$5,$6,$7,0*
20,1,$1+$1,$6,$7,$8,$9,0*
20,1,$1+$1,$8,$9,$2,$3,0*%
G04 Aperture macros list end*
G04 #@! TA.AperFunction,ComponentPad*
%ADD10R,0.850000X0.850000*%
G04 #@! TD*
G04 #@! TA.AperFunction,ComponentPad*
%ADD11R,1.600000X1.600000*%
G04 #@! TD*
G04 #@! TA.AperFunction,ComponentPad*
%ADD12O,1.600000X1.600000*%
G04 #@! TD*
G04 #@! TA.AperFunction,ComponentPad*
%ADD13C,3.000000*%
G04 #@! TD*
G04 #@! TA.AperFunction,ComponentPad*
%ADD14R,1.000000X1.000000*%
G04 #@! TD*
G04 #@! TA.AperFunction,ComponentPad*
%ADD15O,1.000000X1.000000*%
G04 #@! TD*
G04 #@! TA.AperFunction,ComponentPad*
%ADD16C,1.600000*%
G04 #@! TD*
G04 #@! TA.AperFunction,ComponentPad*
%ADD17R,2.200000X2.200000*%
G04 #@! TD*
G04 #@! TA.AperFunction,ComponentPad*
%ADD18O,2.200000X2.200000*%
G04 #@! TD*
G04 #@! TA.AperFunction,ComponentPad*
%ADD19C,2.600000*%
G04 #@! TD*
G04 #@! TA.AperFunction,ComponentPad*
%ADD20R,2.000000X1.905000*%
G04 #@! TD*
G04 #@! TA.AperFunction,ComponentPad*
%ADD21O,2.000000X1.905000*%
G04 #@! TD*
G04 #@! TA.AperFunction,ComponentPad*
%ADD22R,1.800000X1.800000*%
G04 #@! TD*
G04 #@! TA.AperFunction,ComponentPad*
%ADD23C,1.800000*%
G04 #@! TD*
G04 #@! TA.AperFunction,SMDPad,CuDef*
%ADD24RoundRect,0.250000X0.350000X0.450000X-0.350000X0.450000X-0.350000X-0.450000X0.350000X-0.450000X0*%
G04 #@! TD*
G04 #@! TA.AperFunction,ViaPad*
%ADD25C,0.800000*%
G04 #@! TD*
G04 #@! TA.AperFunction,Conductor*
%ADD26C,0.200000*%
G04 #@! TD*
G04 #@! TA.AperFunction,Conductor*
%ADD27C,0.500000*%
G04 #@! TD*
G04 #@! TA.AperFunction,Conductor*
%ADD28C,1.000000*%
G04 #@! TD*
G04 #@! TA.AperFunction,Conductor*
%ADD29C,0.250000*%
G04 #@! TD*
G04 APERTURE END LIST*
D10*
X190000000Y-61500000D03*
X101500000Y-44500000D03*
D11*
X116200000Y-67200000D03*
D12*
X116200000Y-69740000D03*
X116200000Y-72280000D03*
X116200000Y-74820000D03*
X123820000Y-74820000D03*
X123820000Y-72280000D03*
X123820000Y-69740000D03*
X123820000Y-67200000D03*
D13*
X138636000Y-54604000D03*
X134318000Y-54604000D03*
X138636000Y-48000000D03*
X134318000Y-48000000D03*
X130000000Y-54604000D03*
X130000000Y-48000000D03*
D14*
X190000000Y-54270000D03*
D15*
X190000000Y-53000000D03*
D10*
X106000000Y-44500000D03*
D11*
X181000000Y-53000000D03*
D16*
X181000000Y-55000000D03*
D17*
X167000000Y-59080000D03*
D18*
X167000000Y-48920000D03*
D10*
X104500000Y-67000000D03*
D14*
X99000000Y-51270000D03*
D15*
X99000000Y-50000000D03*
D19*
X160790000Y-49000000D03*
X155790000Y-49000000D03*
D20*
X148000000Y-54080000D03*
D21*
X148000000Y-51540000D03*
X148000000Y-49000000D03*
D11*
X146000000Y-64000000D03*
D16*
X146000000Y-66000000D03*
D10*
X164500000Y-66000000D03*
D17*
X135000000Y-70080000D03*
D18*
X135000000Y-59920000D03*
D10*
X99000000Y-73000000D03*
D22*
X106000000Y-57000000D03*
D23*
X103460000Y-57000000D03*
D14*
X99000000Y-64270000D03*
D15*
X99000000Y-63000000D03*
D11*
X172000000Y-62000000D03*
D16*
X174000000Y-62000000D03*
D24*
X110000000Y-67000000D03*
X108000000Y-67000000D03*
D25*
X121435584Y-49564416D03*
D26*
X100658932Y-51270000D02*
X99000000Y-51270000D01*
X104535534Y-49464466D02*
X104194466Y-49805534D01*
X106000000Y-44500000D02*
X106000000Y-45928932D01*
X104535518Y-49464450D02*
G75*
G03*
X106000000Y-45928932I-3535518J3535550D01*
G01*
X100658932Y-51270022D02*
G75*
G03*
X104194465Y-49805533I-32J5000022D01*
G01*
D27*
X147414213Y-62585787D02*
X146000000Y-64000000D01*
D28*
X156881573Y-52908427D02*
X160790000Y-49000000D01*
X148000000Y-54080000D02*
X154053146Y-54080000D01*
D27*
X148000000Y-54080000D02*
X148000000Y-61171573D01*
X147414227Y-62585801D02*
G75*
G03*
X148000000Y-61171573I-1414227J1414201D01*
G01*
D28*
X154053146Y-54080032D02*
G75*
G03*
X156881573Y-52908427I-46J4000032D01*
G01*
D26*
X120000000Y-70171573D02*
X120000000Y-52656854D01*
X123820000Y-74820000D02*
X120585786Y-71585786D01*
X121171573Y-49828427D02*
X121435584Y-49564416D01*
X120000020Y-70171573D02*
G75*
G03*
X120585787Y-71585785I1999980J-27D01*
G01*
X121171596Y-49828450D02*
G75*
G03*
X120000000Y-52656854I2828404J-2828450D01*
G01*
D29*
X135000000Y-70080000D02*
X128356854Y-70080000D01*
X125528427Y-68908427D02*
X123820000Y-67200000D01*
X125528450Y-68908404D02*
G75*
G03*
X128356854Y-70080000I2828450J2828404D01*
G01*
X103460000Y-60388932D02*
X103460000Y-57000000D01*
X108000000Y-67000000D02*
X104924466Y-63924466D01*
X103459978Y-60388932D02*
G75*
G03*
X104924467Y-63924465I5000022J32D01*
G01*
X110200000Y-67200000D02*
X110000000Y-67000000D01*
X116200000Y-67200000D02*
X110200000Y-67200000D01*
G04 #@! TA.AperFunction,Conductor*
G36*
X191004042Y-40000764D02*
G01*
X191083586Y-40005978D01*
X191083767Y-40005991D01*
X191261587Y-40018709D01*
X191276904Y-40020772D01*
X191388378Y-40042945D01*
X191390437Y-40043374D01*
X191530240Y-40073786D01*
X191543703Y-40077522D01*
X191657725Y-40116228D01*
X191661074Y-40117420D01*
X191788808Y-40165062D01*
X191800300Y-40170024D01*
X191910687Y-40224461D01*
X191915187Y-40226798D01*
X192032478Y-40290844D01*
X192041942Y-40296574D01*
X192145269Y-40365615D01*
X192150688Y-40369450D01*
X192256727Y-40448830D01*
X192264145Y-40454844D01*
X192357976Y-40537131D01*
X192363898Y-40542678D01*
X192457320Y-40636100D01*
X192462867Y-40642022D01*
X192545150Y-40735848D01*
X192551173Y-40743278D01*
X192588691Y-40793396D01*
X192630548Y-40849310D01*
X192634383Y-40854729D01*
X192703424Y-40958056D01*
X192709154Y-40967520D01*
X192773183Y-41084779D01*
X192775564Y-41089363D01*
X192829969Y-41199687D01*
X192834938Y-41211196D01*
X192882556Y-41338863D01*
X192883793Y-41342338D01*
X192922470Y-41456276D01*
X192926217Y-41469777D01*
X192956613Y-41609508D01*
X192957064Y-41611675D01*
X192979224Y-41723080D01*
X192981291Y-41738425D01*
X192993995Y-41916046D01*
X192994045Y-41916781D01*
X192999234Y-41995941D01*
X192999500Y-42004052D01*
X192999500Y-76995947D01*
X192999234Y-77004058D01*
X192994045Y-77083217D01*
X192993995Y-77083952D01*
X192981291Y-77261573D01*
X192979224Y-77276918D01*
X192957064Y-77388323D01*
X192956613Y-77390490D01*
X192926217Y-77530221D01*
X192922470Y-77543722D01*
X192883793Y-77657660D01*
X192882556Y-77661135D01*
X192834938Y-77788802D01*
X192829969Y-77800311D01*
X192775564Y-77910635D01*
X192773183Y-77915219D01*
X192709154Y-78032478D01*
X192703424Y-78041942D01*
X192634383Y-78145269D01*
X192630548Y-78150688D01*
X192551181Y-78256711D01*
X192545142Y-78264160D01*
X192462867Y-78357976D01*
X192457320Y-78363898D01*
X192363898Y-78457320D01*
X192357976Y-78462867D01*
X192264160Y-78545142D01*
X192256711Y-78551181D01*
X192150688Y-78630548D01*
X192145269Y-78634383D01*
X192041942Y-78703424D01*
X192032478Y-78709154D01*
X191915219Y-78773183D01*
X191910635Y-78775564D01*
X191800311Y-78829969D01*
X191788802Y-78834938D01*
X191661135Y-78882556D01*
X191657660Y-78883793D01*
X191543722Y-78922470D01*
X191530221Y-78926217D01*
X191390490Y-78956613D01*
X191388323Y-78957064D01*
X191276918Y-78979224D01*
X191261573Y-78981291D01*
X191083952Y-78993995D01*
X191083217Y-78994045D01*
X191004058Y-78999234D01*
X190995947Y-78999500D01*
X98004053Y-78999500D01*
X97995942Y-78999234D01*
X97916781Y-78994045D01*
X97916046Y-78993995D01*
X97738425Y-78981291D01*
X97723080Y-78979224D01*
X97611675Y-78957064D01*
X97609508Y-78956613D01*
X97469777Y-78926217D01*
X97456276Y-78922470D01*
X97342338Y-78883793D01*
X97338863Y-78882556D01*
X97211196Y-78834938D01*
X97199687Y-78829969D01*
X97134947Y-78798043D01*
X97089348Y-78775556D01*
X97084779Y-78773183D01*
X96967520Y-78709154D01*
X96958056Y-78703424D01*
X96854729Y-78634383D01*
X96849310Y-78630548D01*
X96793396Y-78588691D01*
X96743278Y-78551173D01*
X96735848Y-78545150D01*
X96642022Y-78462867D01*
X96636100Y-78457320D01*
X96542678Y-78363898D01*
X96537131Y-78357976D01*
X96505450Y-78321851D01*
X96454844Y-78264145D01*
X96448830Y-78256727D01*
X96369450Y-78150688D01*
X96365615Y-78145269D01*
X96296574Y-78041942D01*
X96290844Y-78032478D01*
X96226798Y-77915187D01*
X96224461Y-77910687D01*
X96170024Y-77800300D01*
X96165060Y-77788802D01*
X96117420Y-77661074D01*
X96116228Y-77657725D01*
X96077522Y-77543703D01*
X96073786Y-77530240D01*
X96043374Y-77390437D01*
X96042945Y-77388378D01*
X96020772Y-77276904D01*
X96018709Y-77261587D01*
X96005991Y-77083767D01*
X96005978Y-77083586D01*
X96000765Y-77004043D01*
X96000500Y-76995934D01*
X96000500Y-74569999D01*
X114921127Y-74569999D01*
X114921128Y-74570000D01*
X115884314Y-74570000D01*
X115872359Y-74581955D01*
X115814835Y-74694852D01*
X115795014Y-74820000D01*
X115814835Y-74945148D01*
X115872359Y-75058045D01*
X115884314Y-75070000D01*
X114921128Y-75070000D01*
X114973730Y-75266317D01*
X114973734Y-75266326D01*
X115069865Y-75472482D01*
X115200342Y-75658820D01*
X115361179Y-75819657D01*
X115547517Y-75950134D01*
X115753673Y-76046265D01*
X115753682Y-76046269D01*
X115949999Y-76098872D01*
X115950000Y-76098871D01*
X115950000Y-75135686D01*
X115961955Y-75147641D01*
X116074852Y-75205165D01*
X116168519Y-75220000D01*
X116231481Y-75220000D01*
X116325148Y-75205165D01*
X116438045Y-75147641D01*
X116450000Y-75135686D01*
X116450000Y-76098872D01*
X116646317Y-76046269D01*
X116646326Y-76046265D01*
X116852482Y-75950134D01*
X117038820Y-75819657D01*
X117199657Y-75658820D01*
X117330134Y-75472482D01*
X117426265Y-75266326D01*
X117426269Y-75266317D01*
X117478872Y-75070000D01*
X116515686Y-75070000D01*
X116527641Y-75058045D01*
X116585165Y-74945148D01*
X116604986Y-74820000D01*
X116585165Y-74694852D01*
X116527641Y-74581955D01*
X116515686Y-74570000D01*
X117478872Y-74570000D01*
X117478872Y-74569999D01*
X117426269Y-74373682D01*
X117426265Y-74373673D01*
X117330134Y-74167517D01*
X117199657Y-73981179D01*
X117038820Y-73820342D01*
X116852482Y-73689865D01*
X116646328Y-73593734D01*
X116450000Y-73541127D01*
X116450000Y-74504314D01*
X116438045Y-74492359D01*
X116325148Y-74434835D01*
X116231481Y-74420000D01*
X116168519Y-74420000D01*
X116074852Y-74434835D01*
X115961955Y-74492359D01*
X115950000Y-74504314D01*
X115950000Y-73541127D01*
X115753671Y-73593734D01*
X115547517Y-73689865D01*
X115361179Y-73820342D01*
X115200342Y-73981179D01*
X115069865Y-74167517D01*
X114973734Y-74373673D01*
X114973730Y-74373682D01*
X114921127Y-74569999D01*
X96000500Y-74569999D01*
X96000500Y-73444752D01*
X98374500Y-73444752D01*
X98386131Y-73503229D01*
X98386132Y-73503230D01*
X98430447Y-73569552D01*
X98496769Y-73613867D01*
X98496770Y-73613868D01*
X98555247Y-73625499D01*
X98555250Y-73625500D01*
X98555252Y-73625500D01*
X99444750Y-73625500D01*
X99444751Y-73625499D01*
X99459568Y-73622552D01*
X99503229Y-73613868D01*
X99503229Y-73613867D01*
X99503231Y-73613867D01*
X99569552Y-73569552D01*
X99613867Y-73503231D01*
X99613867Y-73503229D01*
X99613868Y-73503229D01*
X99625499Y-73444752D01*
X99625500Y-73444750D01*
X99625500Y-72555249D01*
X99625499Y-72555247D01*
X99613868Y-72496770D01*
X99613867Y-72496769D01*
X99569552Y-72430447D01*
X99503230Y-72386132D01*
X99503229Y-72386131D01*
X99444752Y-72374500D01*
X99444748Y-72374500D01*
X98555252Y-72374500D01*
X98555247Y-72374500D01*
X98496770Y-72386131D01*
X98496769Y-72386132D01*
X98430447Y-72430447D01*
X98386132Y-72496769D01*
X98386131Y-72496770D01*
X98374500Y-72555247D01*
X98374500Y-73444752D01*
X96000500Y-73444752D01*
X96000500Y-72280000D01*
X115194659Y-72280000D01*
X115213975Y-72476129D01*
X115271188Y-72664733D01*
X115364086Y-72838532D01*
X115364090Y-72838539D01*
X115489116Y-72990883D01*
X115641460Y-73115909D01*
X115641467Y-73115913D01*
X115815266Y-73208811D01*
X115815269Y-73208811D01*
X115815273Y-73208814D01*
X116003868Y-73266024D01*
X116200000Y-73285341D01*
X116396132Y-73266024D01*
X116584727Y-73208814D01*
X116758538Y-73115910D01*
X116910883Y-72990883D01*
X117035910Y-72838538D01*
X117128814Y-72664727D01*
X117186024Y-72476132D01*
X117205341Y-72280000D01*
X117186024Y-72083868D01*
X117128814Y-71895273D01*
X117128811Y-71895269D01*
X117128811Y-71895266D01*
X117035913Y-71721467D01*
X117035909Y-71721460D01*
X116910883Y-71569116D01*
X116758539Y-71444090D01*
X116758532Y-71444086D01*
X116584733Y-71351188D01*
X116584727Y-71351186D01*
X116396132Y-71293976D01*
X116396129Y-71293975D01*
X116200000Y-71274659D01*
X116003870Y-71293975D01*
X115815266Y-71351188D01*
X115641467Y-71444086D01*
X115641460Y-71444090D01*
X115489116Y-71569116D01*
X115364090Y-71721460D01*
X115364086Y-71721467D01*
X115271188Y-71895266D01*
X115213975Y-72083870D01*
X115194659Y-72280000D01*
X96000500Y-72280000D01*
X96000500Y-69740000D01*
X115194659Y-69740000D01*
X115213975Y-69936129D01*
X115271188Y-70124733D01*
X115364086Y-70298532D01*
X115364090Y-70298539D01*
X115489116Y-70450883D01*
X115641460Y-70575909D01*
X115641467Y-70575913D01*
X115815266Y-70668811D01*
X115815269Y-70668811D01*
X115815273Y-70668814D01*
X116003868Y-70726024D01*
X116200000Y-70745341D01*
X116396132Y-70726024D01*
X116584727Y-70668814D01*
X116758538Y-70575910D01*
X116910883Y-70450883D01*
X117035910Y-70298538D01*
X117128814Y-70124727D01*
X117186024Y-69936132D01*
X117205341Y-69740000D01*
X117186024Y-69543868D01*
X117128814Y-69355273D01*
X117128811Y-69355269D01*
X117128811Y-69355266D01*
X117035913Y-69181467D01*
X117035909Y-69181460D01*
X116910883Y-69029116D01*
X116758539Y-68904090D01*
X116758532Y-68904086D01*
X116584733Y-68811188D01*
X116584727Y-68811186D01*
X116396132Y-68753976D01*
X116396129Y-68753975D01*
X116200000Y-68734659D01*
X116003870Y-68753975D01*
X115815266Y-68811188D01*
X115641467Y-68904086D01*
X115641460Y-68904090D01*
X115489116Y-69029116D01*
X115364090Y-69181460D01*
X115364086Y-69181467D01*
X115271188Y-69355266D01*
X115213975Y-69543870D01*
X115194659Y-69740000D01*
X96000500Y-69740000D01*
X96000500Y-67444752D01*
X103874500Y-67444752D01*
X103886131Y-67503229D01*
X103886132Y-67503230D01*
X103930447Y-67569552D01*
X103996769Y-67613867D01*
X103996770Y-67613868D01*
X104055247Y-67625499D01*
X104055250Y-67625500D01*
X104055252Y-67625500D01*
X104944750Y-67625500D01*
X104944751Y-67625499D01*
X104959568Y-67622552D01*
X105003229Y-67613868D01*
X105003229Y-67613867D01*
X105003231Y-67613867D01*
X105069552Y-67569552D01*
X105113867Y-67503231D01*
X105113867Y-67503229D01*
X105113868Y-67503229D01*
X105125499Y-67444752D01*
X105125500Y-67444750D01*
X105125500Y-66555249D01*
X105125499Y-66555247D01*
X105113868Y-66496770D01*
X105113867Y-66496769D01*
X105069552Y-66430447D01*
X105003230Y-66386132D01*
X105003229Y-66386131D01*
X104944752Y-66374500D01*
X104944748Y-66374500D01*
X104055252Y-66374500D01*
X104055247Y-66374500D01*
X103996770Y-66386131D01*
X103996769Y-66386132D01*
X103930447Y-66430447D01*
X103886132Y-66496769D01*
X103886131Y-66496770D01*
X103874500Y-66555247D01*
X103874500Y-67444752D01*
X96000500Y-67444752D01*
X96000500Y-64520000D01*
X98000000Y-64520000D01*
X98000000Y-64817844D01*
X98006401Y-64877372D01*
X98006403Y-64877379D01*
X98056645Y-65012086D01*
X98056649Y-65012093D01*
X98142809Y-65127187D01*
X98142812Y-65127190D01*
X98257906Y-65213350D01*
X98257913Y-65213354D01*
X98392620Y-65263596D01*
X98392627Y-65263598D01*
X98452155Y-65269999D01*
X98452172Y-65270000D01*
X98750000Y-65270000D01*
X98750000Y-64520000D01*
X98000000Y-64520000D01*
X96000500Y-64520000D01*
X96000500Y-64020000D01*
X98000000Y-64020000D01*
X98785517Y-64020000D01*
X98714199Y-64104993D01*
X98675000Y-64212694D01*
X98675000Y-64327306D01*
X98714199Y-64435007D01*
X98787871Y-64522805D01*
X98887129Y-64580112D01*
X98971564Y-64595000D01*
X99028436Y-64595000D01*
X99112871Y-64580112D01*
X99212129Y-64522805D01*
X99214483Y-64520000D01*
X99250000Y-64520000D01*
X99250000Y-65270000D01*
X99547828Y-65270000D01*
X99547844Y-65269999D01*
X99607372Y-65263598D01*
X99607379Y-65263596D01*
X99742086Y-65213354D01*
X99742093Y-65213350D01*
X99857187Y-65127190D01*
X99857190Y-65127187D01*
X99943350Y-65012093D01*
X99943354Y-65012086D01*
X99993596Y-64877379D01*
X99993598Y-64877372D01*
X99999999Y-64817844D01*
X100000000Y-64817827D01*
X100000000Y-64520000D01*
X99250000Y-64520000D01*
X99214483Y-64520000D01*
X99285801Y-64435007D01*
X99325000Y-64327306D01*
X99325000Y-64212694D01*
X99285801Y-64104993D01*
X99214483Y-64020000D01*
X100000000Y-64020000D01*
X100000000Y-63722172D01*
X99999999Y-63722155D01*
X99993598Y-63662627D01*
X99993596Y-63662620D01*
X99943354Y-63527913D01*
X99943350Y-63527906D01*
X99857190Y-63412812D01*
X99857187Y-63412809D01*
X99742093Y-63326649D01*
X99740166Y-63325597D01*
X99738612Y-63324043D01*
X99734989Y-63321331D01*
X99735379Y-63320809D01*
X99690761Y-63276191D01*
X99675910Y-63207918D01*
X99683654Y-63172789D01*
X99685140Y-63168872D01*
X99705645Y-63000000D01*
X99685140Y-62831128D01*
X99676005Y-62807042D01*
X99663231Y-62773358D01*
X99624818Y-62672070D01*
X99623377Y-62669983D01*
X99569440Y-62591842D01*
X99528183Y-62532071D01*
X99400852Y-62419266D01*
X99400849Y-62419263D01*
X99250226Y-62340210D01*
X99085056Y-62299500D01*
X98914944Y-62299500D01*
X98749773Y-62340210D01*
X98599150Y-62419263D01*
X98471816Y-62532072D01*
X98375182Y-62672068D01*
X98314860Y-62831125D01*
X98314859Y-62831130D01*
X98294355Y-63000000D01*
X98314859Y-63168869D01*
X98314860Y-63168873D01*
X98316349Y-63172798D01*
X98316585Y-63175871D01*
X98316655Y-63176153D01*
X98316608Y-63176164D01*
X98321713Y-63242462D01*
X98288563Y-63303967D01*
X98259846Y-63325589D01*
X98257921Y-63326640D01*
X98142809Y-63412813D01*
X98056649Y-63527906D01*
X98056645Y-63527913D01*
X98006403Y-63662620D01*
X98006401Y-63662627D01*
X98000000Y-63722155D01*
X98000000Y-64020000D01*
X96000500Y-64020000D01*
X96000500Y-57000000D01*
X102354785Y-57000000D01*
X102373602Y-57203082D01*
X102373603Y-57203084D01*
X102429413Y-57399238D01*
X102429422Y-57399259D01*
X102444431Y-57429403D01*
X102452124Y-57448786D01*
X102453239Y-57452475D01*
X102453241Y-57452480D01*
X102492911Y-57526872D01*
X102494496Y-57529946D01*
X102520328Y-57581824D01*
X102520878Y-57582552D01*
X102531333Y-57598925D01*
X102639045Y-57800915D01*
X102648278Y-57816528D01*
X102649410Y-57818262D01*
X102660007Y-57833029D01*
X102797208Y-58007379D01*
X102849441Y-58073755D01*
X102850146Y-58074646D01*
X102903828Y-58142093D01*
X102989112Y-58249246D01*
X103005098Y-58275424D01*
X103082585Y-58446980D01*
X103092806Y-58484206D01*
X103129612Y-58812497D01*
X103129666Y-58812683D01*
X103129706Y-58812971D01*
X103130630Y-58817625D01*
X103130370Y-58817676D01*
X103134500Y-58846969D01*
X103134500Y-60337549D01*
X103134478Y-60337623D01*
X103134478Y-60598167D01*
X103134479Y-60598178D01*
X103165852Y-60996770D01*
X103167315Y-61015363D01*
X103232783Y-61428690D01*
X103315543Y-61773400D01*
X103330476Y-61835601D01*
X103330478Y-61835611D01*
X103459799Y-62233611D01*
X103459801Y-62233616D01*
X103619945Y-62620231D01*
X103809922Y-62993076D01*
X103809938Y-62993105D01*
X104028582Y-63349896D01*
X104028587Y-63349903D01*
X104028589Y-63349906D01*
X104274566Y-63688462D01*
X104418012Y-63856414D01*
X104546343Y-64006670D01*
X104674168Y-64134494D01*
X106733623Y-66193949D01*
X106754431Y-66221579D01*
X106831677Y-66361133D01*
X106835180Y-66367950D01*
X106899483Y-66503231D01*
X106923240Y-66553209D01*
X106925717Y-66558768D01*
X107015983Y-66775497D01*
X107017785Y-66780079D01*
X107109538Y-67027644D01*
X107110885Y-67031470D01*
X107193118Y-67277786D01*
X107199500Y-67317053D01*
X107199500Y-67504269D01*
X107202353Y-67534699D01*
X107202353Y-67534701D01*
X107242007Y-67648022D01*
X107247207Y-67662882D01*
X107327850Y-67772150D01*
X107437118Y-67852793D01*
X107479057Y-67867468D01*
X107565299Y-67897646D01*
X107595730Y-67900500D01*
X107595734Y-67900500D01*
X108404270Y-67900500D01*
X108434699Y-67897646D01*
X108434701Y-67897646D01*
X108509720Y-67871395D01*
X108562882Y-67852793D01*
X108672150Y-67772150D01*
X108752793Y-67662882D01*
X108778890Y-67588300D01*
X108797646Y-67534701D01*
X108797646Y-67534699D01*
X108800500Y-67504269D01*
X109199500Y-67504269D01*
X109202353Y-67534699D01*
X109202353Y-67534701D01*
X109242007Y-67648022D01*
X109247207Y-67662882D01*
X109327850Y-67772150D01*
X109437118Y-67852793D01*
X109479057Y-67867468D01*
X109565299Y-67897646D01*
X109595730Y-67900500D01*
X109595734Y-67900500D01*
X110404270Y-67900500D01*
X110434693Y-67897647D01*
X110434694Y-67897646D01*
X110434699Y-67897646D01*
X110509756Y-67871381D01*
X110512869Y-67870386D01*
X110516498Y-67869023D01*
X110562882Y-67852793D01*
X110672150Y-67772150D01*
X110679921Y-67761619D01*
X110702012Y-67738598D01*
X110711233Y-67731188D01*
X110722208Y-67723314D01*
X110840278Y-67648014D01*
X110854002Y-67640439D01*
X110964498Y-67588295D01*
X110981116Y-67581871D01*
X111084373Y-67550269D01*
X111103436Y-67546043D01*
X111218451Y-67529922D01*
X111218457Y-67529919D01*
X111218464Y-67529919D01*
X111223346Y-67528828D01*
X111223548Y-67529735D01*
X111251499Y-67525500D01*
X114518024Y-67525500D01*
X114569022Y-67536473D01*
X114642331Y-67569552D01*
X114652796Y-67574274D01*
X114669190Y-67583214D01*
X114790827Y-67661973D01*
X114803390Y-67671282D01*
X114922937Y-67772150D01*
X114934349Y-67781779D01*
X114943769Y-67790606D01*
X115082082Y-67934453D01*
X115089106Y-67942414D01*
X115232046Y-68119126D01*
X115239075Y-68127362D01*
X115244514Y-68133405D01*
X115244384Y-68133521D01*
X115246632Y-68136102D01*
X115246816Y-68135919D01*
X115255450Y-68144554D01*
X115321769Y-68188867D01*
X115321770Y-68188868D01*
X115380247Y-68200499D01*
X115380250Y-68200500D01*
X115380252Y-68200500D01*
X117019750Y-68200500D01*
X117019751Y-68200499D01*
X117034568Y-68197552D01*
X117078229Y-68188868D01*
X117078229Y-68188867D01*
X117078231Y-68188867D01*
X117144552Y-68144552D01*
X117188867Y-68078231D01*
X117188867Y-68078229D01*
X117188868Y-68078229D01*
X117200499Y-68019752D01*
X117200500Y-68019750D01*
X117200500Y-66380249D01*
X117200499Y-66380247D01*
X117188868Y-66321770D01*
X117188867Y-66321769D01*
X117144552Y-66255447D01*
X117078230Y-66211132D01*
X117078229Y-66211131D01*
X117019752Y-66199500D01*
X117019748Y-66199500D01*
X115380252Y-66199500D01*
X115380249Y-66199500D01*
X115321771Y-66211131D01*
X115301159Y-66224904D01*
X115295467Y-66228343D01*
X115290083Y-66231996D01*
X115286177Y-66234913D01*
X115255451Y-66255445D01*
X115251904Y-66258992D01*
X115236222Y-66276417D01*
X115236332Y-66276525D01*
X115233969Y-66278921D01*
X115232726Y-66280303D01*
X115232061Y-66280856D01*
X115232056Y-66280861D01*
X115089108Y-66457581D01*
X115082084Y-66465542D01*
X114943768Y-66609392D01*
X114934348Y-66618219D01*
X114803393Y-66728713D01*
X114790824Y-66738027D01*
X114669197Y-66816780D01*
X114652803Y-66825720D01*
X114569020Y-66863526D01*
X114518019Y-66874500D01*
X111292676Y-66874500D01*
X111233661Y-66859556D01*
X111196697Y-66839553D01*
X111181397Y-66829761D01*
X111108916Y-66775497D01*
X111094260Y-66764524D01*
X111082889Y-66754892D01*
X110986504Y-66662728D01*
X110978157Y-66653925D01*
X110953731Y-66625499D01*
X110874847Y-66533698D01*
X110868724Y-66525969D01*
X110783685Y-66409355D01*
X110766835Y-66377249D01*
X110752794Y-66337120D01*
X110752793Y-66337118D01*
X110711274Y-66280862D01*
X110672150Y-66227850D01*
X110562882Y-66147207D01*
X110562880Y-66147206D01*
X110434700Y-66102353D01*
X110404270Y-66099500D01*
X110404266Y-66099500D01*
X109595734Y-66099500D01*
X109595730Y-66099500D01*
X109565300Y-66102353D01*
X109565298Y-66102353D01*
X109437119Y-66147206D01*
X109437117Y-66147207D01*
X109327850Y-66227850D01*
X109247207Y-66337117D01*
X109247206Y-66337119D01*
X109202353Y-66465298D01*
X109202353Y-66465300D01*
X109199500Y-66495730D01*
X109199500Y-67504269D01*
X108800500Y-67504269D01*
X108800500Y-66495730D01*
X108797646Y-66465300D01*
X108797646Y-66465298D01*
X108758544Y-66353553D01*
X108752793Y-66337118D01*
X108672150Y-66227850D01*
X108562882Y-66147207D01*
X108562880Y-66147206D01*
X108434700Y-66102353D01*
X108404270Y-66099500D01*
X108404266Y-66099500D01*
X108189868Y-66099500D01*
X108159812Y-66095172D01*
X108159791Y-66095283D01*
X108157318Y-66094813D01*
X108154881Y-66094462D01*
X108153803Y-66094145D01*
X108153802Y-66094144D01*
X108153799Y-66094144D01*
X107978382Y-66078378D01*
X107962212Y-66075840D01*
X107793301Y-66037761D01*
X107778468Y-66033431D01*
X107605304Y-65970922D01*
X107592259Y-65965350D01*
X107414119Y-65876895D01*
X107403013Y-65870649D01*
X107218873Y-65754255D01*
X107197446Y-65737120D01*
X105156561Y-63696235D01*
X105152844Y-63692353D01*
X104882771Y-63397623D01*
X104875823Y-63389342D01*
X104845562Y-63349906D01*
X104634166Y-63074412D01*
X104627962Y-63065552D01*
X104579108Y-62988867D01*
X104414657Y-62730735D01*
X104409261Y-62721388D01*
X104225956Y-62369265D01*
X104221384Y-62359462D01*
X104221109Y-62358798D01*
X104069461Y-61992693D01*
X104065767Y-61982543D01*
X104053851Y-61944752D01*
X103946391Y-61603939D01*
X103943593Y-61593496D01*
X103941200Y-61582702D01*
X103857666Y-61205917D01*
X103855793Y-61195290D01*
X103803972Y-60801691D01*
X103803032Y-60790949D01*
X103785618Y-60392135D01*
X103785500Y-60386726D01*
X103785500Y-58847105D01*
X103789921Y-58818630D01*
X103789117Y-58818459D01*
X103790385Y-58812504D01*
X103790385Y-58812501D01*
X103790386Y-58812499D01*
X103827189Y-58484211D01*
X103837409Y-58446990D01*
X103914904Y-58275416D01*
X103930888Y-58249240D01*
X104069812Y-58074697D01*
X104070517Y-58073806D01*
X104259987Y-57833033D01*
X104270589Y-57818260D01*
X104271718Y-57816530D01*
X104280952Y-57800915D01*
X104366585Y-57640328D01*
X104415498Y-57590437D01*
X104483620Y-57574909D01*
X104549324Y-57598677D01*
X104591747Y-57654193D01*
X104600000Y-57698675D01*
X104600000Y-57947844D01*
X104606401Y-58007372D01*
X104606403Y-58007379D01*
X104656645Y-58142086D01*
X104656649Y-58142093D01*
X104742809Y-58257187D01*
X104742812Y-58257190D01*
X104857906Y-58343350D01*
X104857913Y-58343354D01*
X104992620Y-58393596D01*
X104992627Y-58393598D01*
X105052155Y-58399999D01*
X105052172Y-58400000D01*
X105750000Y-58400000D01*
X105750000Y-57374189D01*
X105802547Y-57410016D01*
X105932173Y-57450000D01*
X106033724Y-57450000D01*
X106134138Y-57434865D01*
X106250000Y-57379068D01*
X106250000Y-58400000D01*
X106947828Y-58400000D01*
X106947844Y-58399999D01*
X107007372Y-58393598D01*
X107007379Y-58393596D01*
X107142086Y-58343354D01*
X107142093Y-58343350D01*
X107257187Y-58257190D01*
X107257190Y-58257187D01*
X107343350Y-58142093D01*
X107343354Y-58142086D01*
X107393596Y-58007379D01*
X107393598Y-58007372D01*
X107399999Y-57947844D01*
X107400000Y-57947827D01*
X107400000Y-57250000D01*
X106375278Y-57250000D01*
X106423625Y-57166260D01*
X106453810Y-57034008D01*
X106443673Y-56898735D01*
X106394113Y-56772459D01*
X106376203Y-56750000D01*
X107400000Y-56750000D01*
X107400000Y-56052172D01*
X107399999Y-56052155D01*
X107393598Y-55992627D01*
X107393596Y-55992620D01*
X107343354Y-55857913D01*
X107343350Y-55857906D01*
X107257190Y-55742812D01*
X107257187Y-55742809D01*
X107142093Y-55656649D01*
X107142086Y-55656645D01*
X107007379Y-55606403D01*
X107007372Y-55606401D01*
X106947844Y-55600000D01*
X106250000Y-55600000D01*
X106250000Y-56625810D01*
X106197453Y-56589984D01*
X106067827Y-56550000D01*
X105966276Y-56550000D01*
X105865862Y-56565135D01*
X105750000Y-56620931D01*
X105750000Y-55600000D01*
X105052155Y-55600000D01*
X104992627Y-55606401D01*
X104992620Y-55606403D01*
X104857913Y-55656645D01*
X104857906Y-55656649D01*
X104742812Y-55742809D01*
X104742809Y-55742812D01*
X104656649Y-55857906D01*
X104656645Y-55857913D01*
X104606403Y-55992620D01*
X104606401Y-55992627D01*
X104600000Y-56052155D01*
X104600000Y-56313488D01*
X104580315Y-56380527D01*
X104527511Y-56426282D01*
X104458353Y-56436226D01*
X104394797Y-56407201D01*
X104377046Y-56388215D01*
X104285140Y-56266513D01*
X104276764Y-56255421D01*
X104126041Y-56118019D01*
X104126039Y-56118017D01*
X103952642Y-56010655D01*
X103952635Y-56010651D01*
X103857546Y-55973814D01*
X103762456Y-55936976D01*
X103561976Y-55899500D01*
X103358024Y-55899500D01*
X103157544Y-55936976D01*
X103157541Y-55936976D01*
X103157541Y-55936977D01*
X102967364Y-56010651D01*
X102967357Y-56010655D01*
X102793960Y-56118017D01*
X102793958Y-56118019D01*
X102643237Y-56255418D01*
X102520327Y-56418178D01*
X102429422Y-56600739D01*
X102429417Y-56600752D01*
X102373602Y-56796917D01*
X102354785Y-56999999D01*
X102354785Y-57000000D01*
X96000500Y-57000000D01*
X96000500Y-52714432D01*
X119699499Y-52714432D01*
X119699500Y-52714445D01*
X119699500Y-70204811D01*
X119699518Y-70205231D01*
X119699518Y-70300769D01*
X119728443Y-70557512D01*
X119728447Y-70557539D01*
X119785935Y-70809421D01*
X119785940Y-70809436D01*
X119871272Y-71053315D01*
X119871273Y-71053316D01*
X119983381Y-71286118D01*
X119983382Y-71286119D01*
X120120844Y-71504893D01*
X120120850Y-71504902D01*
X120281946Y-71706914D01*
X120326507Y-71751476D01*
X120326520Y-71751491D01*
X120373296Y-71798267D01*
X120373297Y-71798269D01*
X120414016Y-71838988D01*
X120414022Y-71838993D01*
X122442467Y-73867438D01*
X122459384Y-73890639D01*
X122460144Y-73890150D01*
X122463448Y-73895273D01*
X122463450Y-73895277D01*
X122633198Y-74109117D01*
X122641498Y-74119572D01*
X122660806Y-74153999D01*
X122714555Y-74300663D01*
X122721496Y-74330837D01*
X122732027Y-74434835D01*
X122741117Y-74524591D01*
X122741310Y-74526416D01*
X122747436Y-74581955D01*
X122771316Y-74798464D01*
X122771317Y-74798470D01*
X122774206Y-74816917D01*
X122774210Y-74816937D01*
X122774632Y-74819010D01*
X122779241Y-74837309D01*
X122811734Y-74945148D01*
X122880411Y-75173077D01*
X122883572Y-75182703D01*
X122883955Y-75183779D01*
X122883956Y-75183781D01*
X122886258Y-75190248D01*
X122886127Y-75190294D01*
X122889134Y-75197962D01*
X122891187Y-75204730D01*
X122984086Y-75378532D01*
X122984090Y-75378539D01*
X123109116Y-75530883D01*
X123261460Y-75655909D01*
X123261467Y-75655913D01*
X123435266Y-75748811D01*
X123435269Y-75748811D01*
X123435273Y-75748814D01*
X123623868Y-75806024D01*
X123820000Y-75825341D01*
X124016132Y-75806024D01*
X124204727Y-75748814D01*
X124378538Y-75655910D01*
X124530883Y-75530883D01*
X124655910Y-75378538D01*
X124715893Y-75266317D01*
X124748811Y-75204733D01*
X124748812Y-75204730D01*
X124748814Y-75204727D01*
X124806024Y-75016132D01*
X124825341Y-74820000D01*
X124806024Y-74623868D01*
X124748814Y-74435273D01*
X124748811Y-74435269D01*
X124748811Y-74435266D01*
X124655913Y-74261467D01*
X124655909Y-74261460D01*
X124530883Y-74109116D01*
X124378539Y-73984090D01*
X124378532Y-73984086D01*
X124204734Y-73891189D01*
X124204727Y-73891186D01*
X124189584Y-73886592D01*
X124178354Y-73882586D01*
X124173067Y-73880408D01*
X123837309Y-73779241D01*
X123828419Y-73777002D01*
X123819023Y-73774635D01*
X123819017Y-73774633D01*
X123819010Y-73774632D01*
X123816923Y-73774207D01*
X123798471Y-73771317D01*
X123798465Y-73771316D01*
X123798456Y-73771315D01*
X123526521Y-73741321D01*
X123526466Y-73741315D01*
X123526419Y-73741310D01*
X123524651Y-73741123D01*
X123330841Y-73721497D01*
X123300666Y-73714556D01*
X123154000Y-73660807D01*
X123119573Y-73641499D01*
X123099418Y-73625500D01*
X122945390Y-73503230D01*
X122895280Y-73463452D01*
X122890941Y-73460565D01*
X122891122Y-73460292D01*
X122867569Y-73442598D01*
X121704971Y-72280000D01*
X122814659Y-72280000D01*
X122833975Y-72476129D01*
X122891188Y-72664733D01*
X122984086Y-72838532D01*
X122984090Y-72838539D01*
X123109116Y-72990883D01*
X123261460Y-73115909D01*
X123261467Y-73115913D01*
X123435266Y-73208811D01*
X123435269Y-73208811D01*
X123435273Y-73208814D01*
X123623868Y-73266024D01*
X123820000Y-73285341D01*
X124016132Y-73266024D01*
X124204727Y-73208814D01*
X124378538Y-73115910D01*
X124530883Y-72990883D01*
X124655910Y-72838538D01*
X124748814Y-72664727D01*
X124806024Y-72476132D01*
X124825341Y-72280000D01*
X124806024Y-72083868D01*
X124748814Y-71895273D01*
X124748811Y-71895269D01*
X124748811Y-71895266D01*
X124655913Y-71721467D01*
X124655909Y-71721460D01*
X124530883Y-71569116D01*
X124378539Y-71444090D01*
X124378532Y-71444086D01*
X124204733Y-71351188D01*
X124204727Y-71351186D01*
X124016132Y-71293976D01*
X124016129Y-71293975D01*
X123820000Y-71274659D01*
X123623870Y-71293975D01*
X123435266Y-71351188D01*
X123261467Y-71444086D01*
X123261460Y-71444090D01*
X123109116Y-71569116D01*
X122984090Y-71721460D01*
X122984086Y-71721467D01*
X122891188Y-71895266D01*
X122833975Y-72083870D01*
X122814659Y-72280000D01*
X121704971Y-72280000D01*
X120801157Y-71376186D01*
X120795609Y-71370263D01*
X120728708Y-71293976D01*
X120657053Y-71212267D01*
X120647187Y-71199408D01*
X120590177Y-71114084D01*
X120532714Y-71028082D01*
X120524604Y-71014035D01*
X120433473Y-70829234D01*
X120427266Y-70814250D01*
X120425632Y-70809436D01*
X120361031Y-70619121D01*
X120356839Y-70603478D01*
X120316640Y-70401369D01*
X120314524Y-70385301D01*
X120300765Y-70175315D01*
X120300500Y-70167205D01*
X120300501Y-70123982D01*
X120300500Y-70123978D01*
X120300500Y-69740000D01*
X122814659Y-69740000D01*
X122833975Y-69936129D01*
X122891188Y-70124733D01*
X122984086Y-70298532D01*
X122984090Y-70298539D01*
X123109116Y-70450883D01*
X123261460Y-70575909D01*
X123261467Y-70575913D01*
X123435266Y-70668811D01*
X123435269Y-70668811D01*
X123435273Y-70668814D01*
X123623868Y-70726024D01*
X123820000Y-70745341D01*
X124016132Y-70726024D01*
X124204727Y-70668814D01*
X124378538Y-70575910D01*
X124530883Y-70450883D01*
X124655910Y-70298538D01*
X124748814Y-70124727D01*
X124806024Y-69936132D01*
X124825341Y-69740000D01*
X124806024Y-69543868D01*
X124748814Y-69355273D01*
X124748811Y-69355269D01*
X124748811Y-69355266D01*
X124655913Y-69181467D01*
X124655909Y-69181460D01*
X124530883Y-69029116D01*
X124378539Y-68904090D01*
X124378532Y-68904086D01*
X124204733Y-68811188D01*
X124204727Y-68811186D01*
X124016132Y-68753976D01*
X124016129Y-68753975D01*
X123820000Y-68734659D01*
X123623870Y-68753975D01*
X123435266Y-68811188D01*
X123261467Y-68904086D01*
X123261460Y-68904090D01*
X123109116Y-69029116D01*
X122984090Y-69181460D01*
X122984086Y-69181467D01*
X122891188Y-69355266D01*
X122833975Y-69543870D01*
X122814659Y-69740000D01*
X120300500Y-69740000D01*
X120300500Y-67200000D01*
X122814659Y-67200000D01*
X122833975Y-67396129D01*
X122833976Y-67396132D01*
X122890319Y-67581870D01*
X122891188Y-67584733D01*
X122984086Y-67758532D01*
X122984090Y-67758539D01*
X123109116Y-67910883D01*
X123261460Y-68035909D01*
X123261467Y-68035913D01*
X123333240Y-68074276D01*
X123435273Y-68128814D01*
X123448631Y-68132865D01*
X123460618Y-68137186D01*
X123465564Y-68139261D01*
X123465568Y-68139263D01*
X123664167Y-68200499D01*
X123798103Y-68241797D01*
X123807628Y-68244298D01*
X123814897Y-68246207D01*
X123816829Y-68246628D01*
X123816834Y-68246629D01*
X123819403Y-68247075D01*
X123833980Y-68249611D01*
X124095494Y-68283753D01*
X124095598Y-68283773D01*
X124100702Y-68284433D01*
X124102118Y-68284618D01*
X124102124Y-68284618D01*
X124104565Y-68284937D01*
X124104743Y-68284956D01*
X124293295Y-68309342D01*
X124322640Y-68316871D01*
X124469799Y-68374559D01*
X124502250Y-68393374D01*
X124726016Y-68573319D01*
X124726017Y-68573320D01*
X124726628Y-68573660D01*
X124727499Y-68574318D01*
X124730372Y-68576252D01*
X124730267Y-68576407D01*
X124753997Y-68594323D01*
X125322005Y-69162331D01*
X125322537Y-69162819D01*
X125431820Y-69272104D01*
X125721164Y-69514896D01*
X126030558Y-69731541D01*
X126030562Y-69731543D01*
X126030563Y-69731544D01*
X126357667Y-69920402D01*
X126699987Y-70080032D01*
X126822798Y-70124733D01*
X127054898Y-70209214D01*
X127054905Y-70209216D01*
X127054916Y-70209220D01*
X127419754Y-70306982D01*
X127791724Y-70372574D01*
X128120888Y-70401376D01*
X128167995Y-70405498D01*
X128167996Y-70405498D01*
X128313940Y-70405498D01*
X128313946Y-70405500D01*
X128328379Y-70405500D01*
X128356850Y-70405500D01*
X128408404Y-70405500D01*
X132815031Y-70405500D01*
X132868357Y-70417552D01*
X132989322Y-70475176D01*
X133005412Y-70484377D01*
X133167917Y-70594178D01*
X133180149Y-70603603D01*
X133351964Y-70753940D01*
X133361074Y-70762774D01*
X133540148Y-70955156D01*
X133546913Y-70963064D01*
X133673031Y-71123692D01*
X133698948Y-71188574D01*
X133699453Y-71199275D01*
X133699500Y-71199752D01*
X133711131Y-71258229D01*
X133711132Y-71258230D01*
X133755447Y-71324552D01*
X133821769Y-71368867D01*
X133821770Y-71368868D01*
X133880247Y-71380499D01*
X133880250Y-71380500D01*
X133880252Y-71380500D01*
X136119750Y-71380500D01*
X136119751Y-71380499D01*
X136141436Y-71376186D01*
X136178229Y-71368868D01*
X136178229Y-71368867D01*
X136178231Y-71368867D01*
X136244552Y-71324552D01*
X136288867Y-71258231D01*
X136288867Y-71258229D01*
X136288868Y-71258229D01*
X136300499Y-71199752D01*
X136300500Y-71199750D01*
X136300500Y-68960249D01*
X136300499Y-68960247D01*
X136288868Y-68901770D01*
X136288867Y-68901769D01*
X136244552Y-68835447D01*
X136178230Y-68791132D01*
X136178229Y-68791131D01*
X136119752Y-68779500D01*
X136119748Y-68779500D01*
X133880252Y-68779500D01*
X133880247Y-68779500D01*
X133821770Y-68791131D01*
X133821769Y-68791132D01*
X133755447Y-68835447D01*
X133711132Y-68901769D01*
X133711131Y-68901770D01*
X133699500Y-68960247D01*
X133698903Y-68966312D01*
X133697605Y-68966184D01*
X133679815Y-69026772D01*
X133673036Y-69036300D01*
X133633499Y-69086657D01*
X133546921Y-69196925D01*
X133540155Y-69204834D01*
X133361078Y-69397219D01*
X133351968Y-69406053D01*
X133180149Y-69556394D01*
X133167918Y-69565819D01*
X133005415Y-69675619D01*
X132989321Y-69684820D01*
X132868355Y-69742446D01*
X132815026Y-69754500D01*
X128359566Y-69754500D01*
X128354156Y-69754382D01*
X128042013Y-69740750D01*
X128031236Y-69739807D01*
X127724153Y-69699375D01*
X127713500Y-69697496D01*
X127411128Y-69630458D01*
X127400679Y-69627659D01*
X127105274Y-69534515D01*
X127095109Y-69530815D01*
X126808957Y-69412284D01*
X126799153Y-69407712D01*
X126524420Y-69264691D01*
X126515052Y-69259282D01*
X126253830Y-69092862D01*
X126244969Y-69086657D01*
X125999253Y-68898109D01*
X125990966Y-68891156D01*
X125820181Y-68734659D01*
X125760043Y-68679552D01*
X125756169Y-68675843D01*
X125722138Y-68641811D01*
X125722137Y-68641810D01*
X125717806Y-68637479D01*
X125717797Y-68637471D01*
X125214385Y-68134059D01*
X125197258Y-68110725D01*
X125196656Y-68111120D01*
X125193319Y-68106017D01*
X125013374Y-67882251D01*
X124994559Y-67849800D01*
X124936872Y-67702643D01*
X124929342Y-67673292D01*
X124927996Y-67662882D01*
X124905452Y-67488575D01*
X124905440Y-67488424D01*
X124904617Y-67482123D01*
X124904618Y-67482118D01*
X124904452Y-67480852D01*
X124903989Y-67477267D01*
X124903972Y-67477174D01*
X124869611Y-67213980D01*
X124866628Y-67196829D01*
X124866207Y-67194897D01*
X124861796Y-67178100D01*
X124759263Y-66845568D01*
X124756267Y-66836593D01*
X124755901Y-66835575D01*
X124755899Y-66835572D01*
X124753594Y-66829158D01*
X124753736Y-66829106D01*
X124750564Y-66821042D01*
X124748814Y-66815273D01*
X124655910Y-66641462D01*
X124655909Y-66641460D01*
X124530883Y-66489116D01*
X124378539Y-66364090D01*
X124378532Y-66364086D01*
X124204733Y-66271188D01*
X124204727Y-66271186D01*
X124061868Y-66227850D01*
X124016129Y-66213975D01*
X123820000Y-66194659D01*
X123623870Y-66213975D01*
X123435266Y-66271188D01*
X123261467Y-66364086D01*
X123261460Y-66364090D01*
X123109116Y-66489116D01*
X122984090Y-66641460D01*
X122984086Y-66641467D01*
X122891188Y-66815266D01*
X122833975Y-67003870D01*
X122814659Y-67200000D01*
X120300500Y-67200000D01*
X120300500Y-66000002D01*
X144695034Y-66000002D01*
X144714858Y-66226599D01*
X144714860Y-66226610D01*
X144773730Y-66446317D01*
X144773735Y-66446331D01*
X144869863Y-66652478D01*
X144920974Y-66725472D01*
X145602046Y-66044400D01*
X145614835Y-66125148D01*
X145672359Y-66238045D01*
X145761955Y-66327641D01*
X145874852Y-66385165D01*
X145955599Y-66397953D01*
X145274526Y-67079025D01*
X145347513Y-67130132D01*
X145347521Y-67130136D01*
X145553668Y-67226264D01*
X145553682Y-67226269D01*
X145773389Y-67285139D01*
X145773400Y-67285141D01*
X145999998Y-67304966D01*
X146000002Y-67304966D01*
X146226599Y-67285141D01*
X146226610Y-67285139D01*
X146446317Y-67226269D01*
X146446331Y-67226264D01*
X146652478Y-67130136D01*
X146725471Y-67079024D01*
X146044400Y-66397953D01*
X146125148Y-66385165D01*
X146238045Y-66327641D01*
X146327641Y-66238045D01*
X146385165Y-66125148D01*
X146397953Y-66044400D01*
X147079024Y-66725471D01*
X147130136Y-66652478D01*
X147226264Y-66446331D01*
X147226269Y-66446317D01*
X147226688Y-66444752D01*
X163874500Y-66444752D01*
X163886131Y-66503229D01*
X163886132Y-66503230D01*
X163930447Y-66569552D01*
X163996769Y-66613867D01*
X163996770Y-66613868D01*
X164055247Y-66625499D01*
X164055250Y-66625500D01*
X164055252Y-66625500D01*
X164944750Y-66625500D01*
X164944751Y-66625499D01*
X164959568Y-66622552D01*
X165003229Y-66613868D01*
X165003229Y-66613867D01*
X165003231Y-66613867D01*
X165069552Y-66569552D01*
X165113867Y-66503231D01*
X165113867Y-66503229D01*
X165113868Y-66503229D01*
X165125499Y-66444752D01*
X165125500Y-66444750D01*
X165125500Y-65555249D01*
X165125499Y-65555247D01*
X165113868Y-65496770D01*
X165113867Y-65496769D01*
X165069552Y-65430447D01*
X165003230Y-65386132D01*
X165003229Y-65386131D01*
X164944752Y-65374500D01*
X164944748Y-65374500D01*
X164055252Y-65374500D01*
X164055247Y-65374500D01*
X163996770Y-65386131D01*
X163996769Y-65386132D01*
X163930447Y-65430447D01*
X163886132Y-65496769D01*
X163886131Y-65496770D01*
X163874500Y-65555247D01*
X163874500Y-66444752D01*
X147226688Y-66444752D01*
X147285139Y-66226610D01*
X147285141Y-66226599D01*
X147304966Y-66000002D01*
X147304966Y-65999997D01*
X147285141Y-65773400D01*
X147285139Y-65773389D01*
X147226269Y-65553682D01*
X147226264Y-65553668D01*
X147130136Y-65347521D01*
X147130132Y-65347513D01*
X147079025Y-65274526D01*
X146397953Y-65955598D01*
X146385165Y-65874852D01*
X146327641Y-65761955D01*
X146238045Y-65672359D01*
X146125148Y-65614835D01*
X146044400Y-65602046D01*
X146609628Y-65036819D01*
X146670951Y-65003334D01*
X146697309Y-65000500D01*
X146819750Y-65000500D01*
X146819751Y-65000499D01*
X146834568Y-64997552D01*
X146878229Y-64988868D01*
X146878229Y-64988867D01*
X146878231Y-64988867D01*
X146944552Y-64944552D01*
X146988867Y-64878231D01*
X146988867Y-64878229D01*
X146988868Y-64878229D01*
X147000499Y-64819752D01*
X147000500Y-64819750D01*
X147000500Y-64407473D01*
X147009419Y-64361295D01*
X147023058Y-64327306D01*
X147137168Y-64042928D01*
X147138740Y-64039191D01*
X147282465Y-63712957D01*
X147284486Y-63708605D01*
X147426724Y-63417357D01*
X147429387Y-63412213D01*
X147569717Y-63156053D01*
X147573240Y-63150032D01*
X147708563Y-62933090D01*
X147726090Y-62911040D01*
X147732781Y-62904349D01*
X147817377Y-62819752D01*
X170999500Y-62819752D01*
X171011131Y-62878229D01*
X171011132Y-62878230D01*
X171055447Y-62944552D01*
X171121769Y-62988867D01*
X171121770Y-62988868D01*
X171180247Y-63000499D01*
X171180250Y-63000500D01*
X171180252Y-63000500D01*
X172819750Y-63000500D01*
X172819751Y-63000499D01*
X172846524Y-62995174D01*
X172878229Y-62988868D01*
X172878229Y-62988867D01*
X172878231Y-62988867D01*
X172944552Y-62944552D01*
X172988867Y-62878231D01*
X172988867Y-62878229D01*
X172988868Y-62878229D01*
X173000499Y-62819752D01*
X173000500Y-62819750D01*
X173000500Y-62697309D01*
X173020185Y-62630270D01*
X173036819Y-62609628D01*
X173602046Y-62044400D01*
X173614835Y-62125148D01*
X173672359Y-62238045D01*
X173761955Y-62327641D01*
X173874852Y-62385165D01*
X173955599Y-62397953D01*
X173274526Y-63079025D01*
X173347513Y-63130132D01*
X173347521Y-63130136D01*
X173553668Y-63226264D01*
X173553682Y-63226269D01*
X173773389Y-63285139D01*
X173773400Y-63285141D01*
X173999998Y-63304966D01*
X174000002Y-63304966D01*
X174226599Y-63285141D01*
X174226610Y-63285139D01*
X174446317Y-63226269D01*
X174446331Y-63226264D01*
X174652478Y-63130136D01*
X174725471Y-63079024D01*
X174044400Y-62397953D01*
X174125148Y-62385165D01*
X174238045Y-62327641D01*
X174327641Y-62238045D01*
X174385165Y-62125148D01*
X174397953Y-62044400D01*
X175079024Y-62725471D01*
X175130136Y-62652478D01*
X175226264Y-62446331D01*
X175226269Y-62446317D01*
X175285139Y-62226610D01*
X175285141Y-62226599D01*
X175304966Y-62000002D01*
X175304966Y-61999997D01*
X175300133Y-61944752D01*
X189374500Y-61944752D01*
X189386131Y-62003229D01*
X189386132Y-62003230D01*
X189430447Y-62069552D01*
X189496769Y-62113867D01*
X189496770Y-62113868D01*
X189555247Y-62125499D01*
X189555250Y-62125500D01*
X189555252Y-62125500D01*
X190444750Y-62125500D01*
X190444751Y-62125499D01*
X190467497Y-62120975D01*
X190503229Y-62113868D01*
X190503229Y-62113867D01*
X190503231Y-62113867D01*
X190569552Y-62069552D01*
X190613867Y-62003231D01*
X190613867Y-62003229D01*
X190613868Y-62003229D01*
X190625499Y-61944752D01*
X190625500Y-61944750D01*
X190625500Y-61055249D01*
X190625499Y-61055247D01*
X190613868Y-60996770D01*
X190613867Y-60996769D01*
X190569552Y-60930447D01*
X190503230Y-60886132D01*
X190503229Y-60886131D01*
X190444752Y-60874500D01*
X190444748Y-60874500D01*
X189555252Y-60874500D01*
X189555247Y-60874500D01*
X189496770Y-60886131D01*
X189496769Y-60886132D01*
X189430447Y-60930447D01*
X189386132Y-60996769D01*
X189386131Y-60996770D01*
X189374500Y-61055247D01*
X189374500Y-61944752D01*
X175300133Y-61944752D01*
X175285141Y-61773400D01*
X175285139Y-61773389D01*
X175226269Y-61553682D01*
X175226264Y-61553668D01*
X175130136Y-61347521D01*
X175130132Y-61347513D01*
X175079025Y-61274526D01*
X174397953Y-61955598D01*
X174385165Y-61874852D01*
X174327641Y-61761955D01*
X174238045Y-61672359D01*
X174125148Y-61614835D01*
X174044401Y-61602046D01*
X174725472Y-60920974D01*
X174652478Y-60869863D01*
X174446331Y-60773735D01*
X174446317Y-60773730D01*
X174226610Y-60714860D01*
X174226599Y-60714858D01*
X174000002Y-60695034D01*
X173999998Y-60695034D01*
X173773400Y-60714858D01*
X173773389Y-60714860D01*
X173553682Y-60773730D01*
X173553673Y-60773734D01*
X173347516Y-60869866D01*
X173347512Y-60869868D01*
X173274526Y-60920973D01*
X173274526Y-60920974D01*
X173955599Y-61602046D01*
X173874852Y-61614835D01*
X173761955Y-61672359D01*
X173672359Y-61761955D01*
X173614835Y-61874852D01*
X173602046Y-61955599D01*
X173036819Y-61390372D01*
X173003334Y-61329049D01*
X173000500Y-61302691D01*
X173000500Y-61180249D01*
X173000499Y-61180247D01*
X172988868Y-61121770D01*
X172988867Y-61121769D01*
X172944552Y-61055447D01*
X172878230Y-61011132D01*
X172878229Y-61011131D01*
X172819752Y-60999500D01*
X172819748Y-60999500D01*
X171180252Y-60999500D01*
X171180247Y-60999500D01*
X171121770Y-61011131D01*
X171121769Y-61011132D01*
X171055447Y-61055447D01*
X171011132Y-61121769D01*
X171011131Y-61121770D01*
X170999500Y-61180247D01*
X170999500Y-62819752D01*
X147817377Y-62819752D01*
X147830091Y-62807038D01*
X148001695Y-62591848D01*
X148148127Y-62358798D01*
X148267545Y-62110818D01*
X148358446Y-61851026D01*
X148419689Y-61582690D01*
X148450502Y-61309185D01*
X148450500Y-61171567D01*
X148450500Y-61146739D01*
X148450500Y-60199752D01*
X165699500Y-60199752D01*
X165711131Y-60258229D01*
X165711132Y-60258230D01*
X165755447Y-60324552D01*
X165821769Y-60368867D01*
X165821770Y-60368868D01*
X165880247Y-60380499D01*
X165880250Y-60380500D01*
X165880252Y-60380500D01*
X168119750Y-60380500D01*
X168119751Y-60380499D01*
X168134568Y-60377552D01*
X168178229Y-60368868D01*
X168178229Y-60368867D01*
X168178231Y-60368867D01*
X168244552Y-60324552D01*
X168288867Y-60258231D01*
X168288867Y-60258229D01*
X168288868Y-60258229D01*
X168300499Y-60199752D01*
X168300500Y-60199750D01*
X168300500Y-57960249D01*
X168300499Y-57960247D01*
X168288868Y-57901770D01*
X168288867Y-57901769D01*
X168244552Y-57835447D01*
X168178230Y-57791132D01*
X168178229Y-57791131D01*
X168119752Y-57779500D01*
X168119748Y-57779500D01*
X165880252Y-57779500D01*
X165880247Y-57779500D01*
X165821770Y-57791131D01*
X165821769Y-57791132D01*
X165755447Y-57835447D01*
X165711132Y-57901769D01*
X165711131Y-57901770D01*
X165699500Y-57960247D01*
X165699500Y-60199752D01*
X148450500Y-60199752D01*
X148450500Y-56077215D01*
X148465267Y-56018529D01*
X148469499Y-56010652D01*
X148566614Y-55829890D01*
X148570526Y-55823131D01*
X148698623Y-55617073D01*
X148704124Y-55608959D01*
X148827015Y-55442335D01*
X148834914Y-55432684D01*
X148949900Y-55305835D01*
X148961421Y-55294675D01*
X149013738Y-55250183D01*
X149069880Y-55223028D01*
X149073824Y-55222243D01*
X149078231Y-55221367D01*
X149098583Y-55207766D01*
X149113144Y-55199405D01*
X149115042Y-55198479D01*
X149132284Y-55190075D01*
X149302156Y-55060954D01*
X149312032Y-55054174D01*
X149399747Y-55000002D01*
X179695034Y-55000002D01*
X179714858Y-55226599D01*
X179714860Y-55226610D01*
X179773730Y-55446317D01*
X179773735Y-55446331D01*
X179869863Y-55652478D01*
X179920974Y-55725472D01*
X180602046Y-55044400D01*
X180614835Y-55125148D01*
X180672359Y-55238045D01*
X180761955Y-55327641D01*
X180874852Y-55385165D01*
X180955599Y-55397953D01*
X180274526Y-56079025D01*
X180347513Y-56130132D01*
X180347521Y-56130136D01*
X180553668Y-56226264D01*
X180553682Y-56226269D01*
X180773389Y-56285139D01*
X180773400Y-56285141D01*
X180999998Y-56304966D01*
X181000002Y-56304966D01*
X181226599Y-56285141D01*
X181226610Y-56285139D01*
X181446317Y-56226269D01*
X181446331Y-56226264D01*
X181652478Y-56130136D01*
X181725471Y-56079024D01*
X181044400Y-55397953D01*
X181125148Y-55385165D01*
X181238045Y-55327641D01*
X181327641Y-55238045D01*
X181385165Y-55125148D01*
X181397953Y-55044400D01*
X182079024Y-55725471D01*
X182130136Y-55652478D01*
X182226264Y-55446331D01*
X182226269Y-55446317D01*
X182285139Y-55226610D01*
X182285141Y-55226599D01*
X182304966Y-55000002D01*
X182304966Y-54999997D01*
X182285141Y-54773400D01*
X182285139Y-54773389D01*
X182226269Y-54553682D01*
X182226264Y-54553668D01*
X182210564Y-54520000D01*
X189000000Y-54520000D01*
X189000000Y-54817844D01*
X189006401Y-54877372D01*
X189006403Y-54877379D01*
X189056645Y-55012086D01*
X189056649Y-55012093D01*
X189142809Y-55127187D01*
X189142812Y-55127190D01*
X189257906Y-55213350D01*
X189257913Y-55213354D01*
X189392620Y-55263596D01*
X189392627Y-55263598D01*
X189452155Y-55269999D01*
X189452172Y-55270000D01*
X189750000Y-55270000D01*
X189750000Y-54520000D01*
X189000000Y-54520000D01*
X182210564Y-54520000D01*
X182130136Y-54347521D01*
X182130132Y-54347513D01*
X182079025Y-54274526D01*
X181397953Y-54955598D01*
X181385165Y-54874852D01*
X181327641Y-54761955D01*
X181238045Y-54672359D01*
X181125148Y-54614835D01*
X181044400Y-54602046D01*
X181609628Y-54036819D01*
X181640430Y-54020000D01*
X189000000Y-54020000D01*
X189785517Y-54020000D01*
X189714199Y-54104993D01*
X189675000Y-54212694D01*
X189675000Y-54327306D01*
X189714199Y-54435007D01*
X189787871Y-54522805D01*
X189887129Y-54580112D01*
X189971564Y-54595000D01*
X190028436Y-54595000D01*
X190112871Y-54580112D01*
X190212129Y-54522805D01*
X190214483Y-54520000D01*
X190250000Y-54520000D01*
X190250000Y-55270000D01*
X190547828Y-55270000D01*
X190547844Y-55269999D01*
X190607372Y-55263598D01*
X190607379Y-55263596D01*
X190742086Y-55213354D01*
X190742093Y-55213350D01*
X190857187Y-55127190D01*
X190857190Y-55127187D01*
X190943350Y-55012093D01*
X190943354Y-55012086D01*
X190993596Y-54877379D01*
X190993598Y-54877372D01*
X190999999Y-54817844D01*
X191000000Y-54817827D01*
X191000000Y-54520000D01*
X190250000Y-54520000D01*
X190214483Y-54520000D01*
X190285801Y-54435007D01*
X190325000Y-54327306D01*
X190325000Y-54212694D01*
X190285801Y-54104993D01*
X190214483Y-54020000D01*
X191000000Y-54020000D01*
X191000000Y-53722172D01*
X190999999Y-53722155D01*
X190993598Y-53662627D01*
X190993596Y-53662620D01*
X190943354Y-53527913D01*
X190943350Y-53527906D01*
X190857190Y-53412812D01*
X190857187Y-53412809D01*
X190742093Y-53326649D01*
X190740166Y-53325597D01*
X190738612Y-53324043D01*
X190734989Y-53321331D01*
X190735379Y-53320809D01*
X190690761Y-53276191D01*
X190675910Y-53207918D01*
X190683654Y-53172789D01*
X190685140Y-53168872D01*
X190705645Y-53000000D01*
X190685140Y-52831128D01*
X190624818Y-52672070D01*
X190616182Y-52659559D01*
X190575540Y-52600679D01*
X190528183Y-52532071D01*
X190400852Y-52419266D01*
X190400849Y-52419263D01*
X190250226Y-52340210D01*
X190085056Y-52299500D01*
X189914944Y-52299500D01*
X189749773Y-52340210D01*
X189599150Y-52419263D01*
X189471816Y-52532072D01*
X189375182Y-52672068D01*
X189314860Y-52831125D01*
X189314859Y-52831130D01*
X189294355Y-53000000D01*
X189314859Y-53168869D01*
X189314860Y-53168873D01*
X189316349Y-53172798D01*
X189316585Y-53175871D01*
X189316655Y-53176153D01*
X189316608Y-53176164D01*
X189321713Y-53242462D01*
X189288563Y-53303967D01*
X189259846Y-53325589D01*
X189257921Y-53326640D01*
X189142809Y-53412813D01*
X189056649Y-53527906D01*
X189056645Y-53527913D01*
X189006403Y-53662620D01*
X189006401Y-53662627D01*
X189000000Y-53722155D01*
X189000000Y-54020000D01*
X181640430Y-54020000D01*
X181670951Y-54003334D01*
X181697309Y-54000500D01*
X181819750Y-54000500D01*
X181819751Y-54000499D01*
X181834568Y-53997552D01*
X181878229Y-53988868D01*
X181878229Y-53988867D01*
X181878231Y-53988867D01*
X181944552Y-53944552D01*
X181988867Y-53878231D01*
X181988867Y-53878229D01*
X181988868Y-53878229D01*
X182000499Y-53819752D01*
X182000500Y-53819750D01*
X182000500Y-52180249D01*
X182000499Y-52180247D01*
X181988868Y-52121770D01*
X181988867Y-52121769D01*
X181944552Y-52055447D01*
X181878230Y-52011132D01*
X181878229Y-52011131D01*
X181819752Y-51999500D01*
X181819748Y-51999500D01*
X180180252Y-51999500D01*
X180180247Y-51999500D01*
X180121770Y-52011131D01*
X180121769Y-52011132D01*
X180055447Y-52055447D01*
X180011132Y-52121769D01*
X180011131Y-52121770D01*
X179999500Y-52180247D01*
X179999500Y-53819752D01*
X180011131Y-53878229D01*
X180011132Y-53878230D01*
X180055447Y-53944552D01*
X180121769Y-53988867D01*
X180121770Y-53988868D01*
X180180247Y-54000499D01*
X180180250Y-54000500D01*
X180302691Y-54000500D01*
X180369730Y-54020185D01*
X180390372Y-54036819D01*
X180955599Y-54602046D01*
X180874852Y-54614835D01*
X180761955Y-54672359D01*
X180672359Y-54761955D01*
X180614835Y-54874852D01*
X180602046Y-54955598D01*
X179920974Y-54274526D01*
X179920973Y-54274526D01*
X179869868Y-54347512D01*
X179869866Y-54347516D01*
X179773734Y-54553673D01*
X179773730Y-54553682D01*
X179714860Y-54773389D01*
X179714858Y-54773400D01*
X179695034Y-54999997D01*
X179695034Y-55000002D01*
X149399747Y-55000002D01*
X149473596Y-54954394D01*
X149485523Y-54947904D01*
X149641436Y-54873835D01*
X149655505Y-54868177D01*
X149805993Y-54818132D01*
X149821951Y-54813983D01*
X149981346Y-54783696D01*
X149981346Y-54783695D01*
X149985898Y-54782831D01*
X149986045Y-54783609D01*
X150009607Y-54780500D01*
X153974227Y-54780500D01*
X154001759Y-54780500D01*
X154001871Y-54780532D01*
X154053154Y-54780531D01*
X154053154Y-54780532D01*
X154237838Y-54780530D01*
X154606066Y-54751546D01*
X154970885Y-54693760D01*
X155330046Y-54607529D01*
X155681334Y-54493385D01*
X156022583Y-54352031D01*
X156351690Y-54184339D01*
X156666626Y-53991342D01*
X156670033Y-53988867D01*
X156822308Y-53878230D01*
X156965448Y-53774231D01*
X157246315Y-53534343D01*
X157336729Y-53443926D01*
X157336734Y-53443922D01*
X157346938Y-53433717D01*
X157346940Y-53433717D01*
X159643669Y-51136985D01*
X159668229Y-51117936D01*
X159673084Y-51115065D01*
X159958101Y-50859731D01*
X159971904Y-50849019D01*
X160209613Y-50690058D01*
X160228275Y-50679780D01*
X160442226Y-50584927D01*
X160461661Y-50578178D01*
X160680413Y-50522059D01*
X160694282Y-50519334D01*
X160822570Y-50501659D01*
X160839494Y-50500500D01*
X160914335Y-50500500D01*
X161159614Y-50459571D01*
X161394810Y-50378828D01*
X161613509Y-50260474D01*
X161809744Y-50107738D01*
X161978164Y-49924785D01*
X161981260Y-49920047D01*
X162033408Y-49840227D01*
X162114173Y-49716607D01*
X162214063Y-49488881D01*
X162275108Y-49247821D01*
X162277997Y-49212960D01*
X162295643Y-49000005D01*
X162295643Y-48999994D01*
X162289015Y-48920001D01*
X165694532Y-48920001D01*
X165714364Y-49146686D01*
X165714366Y-49146697D01*
X165773258Y-49366488D01*
X165773261Y-49366497D01*
X165869431Y-49572732D01*
X165869432Y-49572734D01*
X165999954Y-49759141D01*
X166160858Y-49920045D01*
X166160861Y-49920047D01*
X166347266Y-50050568D01*
X166553504Y-50146739D01*
X166553509Y-50146740D01*
X166553511Y-50146741D01*
X166572937Y-50151946D01*
X166773308Y-50205635D01*
X166935230Y-50219801D01*
X166999998Y-50225468D01*
X167000000Y-50225468D01*
X167000002Y-50225468D01*
X167056673Y-50220509D01*
X167226692Y-50205635D01*
X167446496Y-50146739D01*
X167652734Y-50050568D01*
X167839139Y-49920047D01*
X168000047Y-49759139D01*
X168130568Y-49572734D01*
X168226739Y-49366496D01*
X168285635Y-49146692D01*
X168305468Y-48920000D01*
X168301618Y-48876000D01*
X168290786Y-48752187D01*
X168285635Y-48693308D01*
X168229515Y-48483864D01*
X168226741Y-48473511D01*
X168226738Y-48473502D01*
X168183208Y-48380152D01*
X168130568Y-48267266D01*
X168000047Y-48080861D01*
X168000045Y-48080858D01*
X167839141Y-47919954D01*
X167652734Y-47789432D01*
X167652732Y-47789431D01*
X167446497Y-47693261D01*
X167446488Y-47693258D01*
X167226697Y-47634366D01*
X167226693Y-47634365D01*
X167226692Y-47634365D01*
X167226691Y-47634364D01*
X167226686Y-47634364D01*
X167000002Y-47614532D01*
X166999998Y-47614532D01*
X166773313Y-47634364D01*
X166773302Y-47634366D01*
X166553511Y-47693258D01*
X166553502Y-47693261D01*
X166347267Y-47789431D01*
X166347265Y-47789432D01*
X166160858Y-47919954D01*
X165999954Y-48080858D01*
X165869432Y-48267265D01*
X165869431Y-48267267D01*
X165773261Y-48473502D01*
X165773258Y-48473511D01*
X165714366Y-48693302D01*
X165714364Y-48693313D01*
X165694532Y-48919998D01*
X165694532Y-48920001D01*
X162289015Y-48920001D01*
X162275109Y-48752187D01*
X162275107Y-48752175D01*
X162214063Y-48511118D01*
X162114173Y-48283393D01*
X161978166Y-48075217D01*
X161923193Y-48015501D01*
X161809744Y-47892262D01*
X161613509Y-47739526D01*
X161613507Y-47739525D01*
X161613506Y-47739524D01*
X161394811Y-47621172D01*
X161394802Y-47621169D01*
X161159616Y-47540429D01*
X160914335Y-47499500D01*
X160665665Y-47499500D01*
X160420383Y-47540429D01*
X160185197Y-47621169D01*
X160185188Y-47621172D01*
X159966493Y-47739524D01*
X159770257Y-47892261D01*
X159601833Y-48075217D01*
X159465826Y-48283393D01*
X159365936Y-48511118D01*
X159304892Y-48752175D01*
X159304890Y-48752187D01*
X159284357Y-48999992D01*
X159284357Y-49005123D01*
X159284134Y-49005123D01*
X159283504Y-49026909D01*
X159274470Y-49090834D01*
X159271730Y-49104569D01*
X159214780Y-49324482D01*
X159208048Y-49343768D01*
X159112318Y-49559103D01*
X159102075Y-49577677D01*
X158942128Y-49816775D01*
X158931427Y-49830562D01*
X158674928Y-50116920D01*
X158674918Y-50116933D01*
X158670902Y-50123516D01*
X158652732Y-50146610D01*
X156388393Y-52410948D01*
X156383986Y-52415144D01*
X156150835Y-52626465D01*
X156141428Y-52634185D01*
X155891144Y-52819810D01*
X155881027Y-52826571D01*
X155613737Y-52986783D01*
X155603005Y-52992519D01*
X155321312Y-53125753D01*
X155310069Y-53130410D01*
X155016668Y-53235393D01*
X155005024Y-53238925D01*
X154702758Y-53314643D01*
X154690823Y-53317018D01*
X154382574Y-53362745D01*
X154370464Y-53363938D01*
X154056821Y-53379351D01*
X154050735Y-53379500D01*
X150009845Y-53379500D01*
X149986696Y-53377320D01*
X149821976Y-53346019D01*
X149805997Y-53341864D01*
X149655520Y-53291825D01*
X149641439Y-53286164D01*
X149485526Y-53212095D01*
X149473578Y-53205592D01*
X149312043Y-53105829D01*
X149302164Y-53099048D01*
X149132284Y-52969923D01*
X149132281Y-52969921D01*
X149100413Y-52952776D01*
X149090278Y-52946682D01*
X149078231Y-52938633D01*
X149078230Y-52938632D01*
X149078228Y-52938631D01*
X149078229Y-52938631D01*
X149040072Y-52931042D01*
X149038518Y-52930723D01*
X149017777Y-52926320D01*
X149014930Y-52926227D01*
X149004170Y-52927000D01*
X148257628Y-52927000D01*
X148190589Y-52907315D01*
X148144834Y-52854511D01*
X148134890Y-52785353D01*
X148163915Y-52721797D01*
X148222693Y-52684023D01*
X148246186Y-52679529D01*
X148260271Y-52678224D01*
X148465796Y-52619747D01*
X148657077Y-52524500D01*
X148827599Y-52395728D01*
X148971556Y-52237815D01*
X149084045Y-52056138D01*
X149161236Y-51856885D01*
X149200500Y-51646841D01*
X149200500Y-51433159D01*
X149161236Y-51223115D01*
X149084045Y-51023862D01*
X149075197Y-51009572D01*
X148971557Y-50842186D01*
X148971555Y-50842184D01*
X148970126Y-50840617D01*
X148935425Y-50802551D01*
X148827601Y-50684273D01*
X148657079Y-50555501D01*
X148657071Y-50555496D01*
X148465806Y-50460257D01*
X148465791Y-50460251D01*
X148260272Y-50401776D01*
X148260270Y-50401775D01*
X148185187Y-50394818D01*
X148170642Y-50393470D01*
X148105706Y-50367685D01*
X148065018Y-50310885D01*
X148061498Y-50241104D01*
X148096263Y-50180497D01*
X148158276Y-50148307D01*
X148170639Y-50146529D01*
X148260271Y-50138224D01*
X148465796Y-50079747D01*
X148657077Y-49984500D01*
X148827599Y-49855728D01*
X148854744Y-49825952D01*
X148971557Y-49697814D01*
X148971557Y-49697813D01*
X148987497Y-49672070D01*
X149084045Y-49516138D01*
X149161236Y-49316885D01*
X149200500Y-49106841D01*
X149200500Y-49000005D01*
X154284357Y-49000005D01*
X154304890Y-49247812D01*
X154304892Y-49247824D01*
X154365936Y-49488881D01*
X154465826Y-49716606D01*
X154601833Y-49924782D01*
X154601836Y-49924785D01*
X154770256Y-50107738D01*
X154966491Y-50260474D01*
X154966493Y-50260475D01*
X155164599Y-50367685D01*
X155185190Y-50378828D01*
X155420386Y-50459571D01*
X155665665Y-50500500D01*
X155914335Y-50500500D01*
X156159614Y-50459571D01*
X156394810Y-50378828D01*
X156613509Y-50260474D01*
X156809744Y-50107738D01*
X156978164Y-49924785D01*
X156981260Y-49920047D01*
X157033408Y-49840227D01*
X157114173Y-49716607D01*
X157214063Y-49488881D01*
X157275108Y-49247821D01*
X157277997Y-49212960D01*
X157295643Y-49000005D01*
X157295643Y-48999994D01*
X157275109Y-48752187D01*
X157275107Y-48752175D01*
X157214063Y-48511118D01*
X157114173Y-48283393D01*
X156978166Y-48075217D01*
X156923193Y-48015501D01*
X156809744Y-47892262D01*
X156613509Y-47739526D01*
X156613507Y-47739525D01*
X156613506Y-47739524D01*
X156394811Y-47621172D01*
X156394802Y-47621169D01*
X156159616Y-47540429D01*
X155914335Y-47499500D01*
X155665665Y-47499500D01*
X155420383Y-47540429D01*
X155185197Y-47621169D01*
X155185188Y-47621172D01*
X154966493Y-47739524D01*
X154770257Y-47892261D01*
X154601833Y-48075217D01*
X154465826Y-48283393D01*
X154365936Y-48511118D01*
X154304892Y-48752175D01*
X154304890Y-48752187D01*
X154284357Y-48999994D01*
X154284357Y-49000005D01*
X149200500Y-49000005D01*
X149200500Y-48893159D01*
X149161236Y-48683115D01*
X149098378Y-48520859D01*
X149084046Y-48483864D01*
X149084043Y-48483858D01*
X148971557Y-48302186D01*
X148971555Y-48302184D01*
X148827601Y-48144273D01*
X148657079Y-48015501D01*
X148657071Y-48015496D01*
X148465806Y-47920257D01*
X148465791Y-47920251D01*
X148260272Y-47861776D01*
X148260270Y-47861775D01*
X148138205Y-47850465D01*
X148100811Y-47847000D01*
X147899189Y-47847000D01*
X147864505Y-47850213D01*
X147739729Y-47861775D01*
X147739727Y-47861776D01*
X147534208Y-47920251D01*
X147534193Y-47920257D01*
X147342928Y-48015496D01*
X147342920Y-48015501D01*
X147172398Y-48144273D01*
X147028444Y-48302184D01*
X147028442Y-48302186D01*
X146915956Y-48483858D01*
X146915953Y-48483864D01*
X146838765Y-48683112D01*
X146838764Y-48683115D01*
X146799500Y-48893159D01*
X146799500Y-49106841D01*
X146838764Y-49316885D01*
X146845097Y-49333232D01*
X146915953Y-49516135D01*
X146915956Y-49516141D01*
X147028442Y-49697813D01*
X147028443Y-49697814D01*
X147172398Y-49855726D01*
X147342920Y-49984498D01*
X147342928Y-49984503D01*
X147534193Y-50079742D01*
X147534197Y-50079743D01*
X147534204Y-50079747D01*
X147739729Y-50138224D01*
X147829356Y-50146529D01*
X147894293Y-50172315D01*
X147934981Y-50229115D01*
X147938501Y-50298896D01*
X147903736Y-50359503D01*
X147841723Y-50391693D01*
X147829357Y-50393470D01*
X147822479Y-50394108D01*
X147739729Y-50401775D01*
X147739727Y-50401776D01*
X147534208Y-50460251D01*
X147534193Y-50460257D01*
X147342928Y-50555496D01*
X147342920Y-50555501D01*
X147172398Y-50684273D01*
X147028444Y-50842184D01*
X147028442Y-50842186D01*
X146915956Y-51023858D01*
X146915953Y-51023864D01*
X146872129Y-51136989D01*
X146838764Y-51223115D01*
X146799500Y-51433159D01*
X146799500Y-51646841D01*
X146838764Y-51856885D01*
X146838765Y-51856887D01*
X146915953Y-52056135D01*
X146915956Y-52056141D01*
X147028442Y-52237813D01*
X147028444Y-52237815D01*
X147172398Y-52395726D01*
X147342920Y-52524498D01*
X147342928Y-52524503D01*
X147534193Y-52619742D01*
X147534197Y-52619743D01*
X147534204Y-52619747D01*
X147739729Y-52678224D01*
X147753813Y-52679529D01*
X147818750Y-52705315D01*
X147859438Y-52762115D01*
X147862958Y-52831896D01*
X147828193Y-52892503D01*
X147766181Y-52924693D01*
X147742372Y-52927000D01*
X146980247Y-52927000D01*
X146921770Y-52938631D01*
X146921769Y-52938632D01*
X146855447Y-52982947D01*
X146811132Y-53049269D01*
X146811131Y-53049270D01*
X146799500Y-53107747D01*
X146799500Y-55052252D01*
X146811131Y-55110729D01*
X146811132Y-55110730D01*
X146855447Y-55177052D01*
X146921768Y-55221366D01*
X146921767Y-55221366D01*
X146921769Y-55221367D01*
X146930118Y-55223027D01*
X146986257Y-55250183D01*
X147038583Y-55294682D01*
X147050107Y-55305848D01*
X147122007Y-55385165D01*
X147165060Y-55432659D01*
X147172982Y-55442338D01*
X147295860Y-55608947D01*
X147301375Y-55617080D01*
X147429471Y-55823131D01*
X147433393Y-55829907D01*
X147534733Y-56018529D01*
X147549500Y-56077215D01*
X147549500Y-61167513D01*
X147549235Y-61175622D01*
X147536777Y-61365723D01*
X147534660Y-61381804D01*
X147498292Y-61564651D01*
X147494094Y-61580318D01*
X147434169Y-61756857D01*
X147427962Y-61771842D01*
X147345511Y-61939043D01*
X147337401Y-61953091D01*
X147233824Y-62108107D01*
X147223950Y-62120975D01*
X147098535Y-62263985D01*
X147092994Y-62269902D01*
X147086310Y-62276587D01*
X147067022Y-62291277D01*
X147067379Y-62291783D01*
X147062405Y-62295291D01*
X147062402Y-62295293D01*
X146964352Y-62364461D01*
X146776658Y-62496866D01*
X146768735Y-62502014D01*
X146487334Y-62669983D01*
X146478195Y-62674931D01*
X146200090Y-62810751D01*
X146189704Y-62815248D01*
X145914830Y-62919655D01*
X145903269Y-62923410D01*
X145638762Y-62995174D01*
X145606293Y-62999500D01*
X145180247Y-62999500D01*
X145121770Y-63011131D01*
X145121769Y-63011132D01*
X145055447Y-63055447D01*
X145011132Y-63121769D01*
X145011131Y-63121770D01*
X144999500Y-63180247D01*
X144999500Y-64819752D01*
X145011131Y-64878229D01*
X145011132Y-64878230D01*
X145055447Y-64944552D01*
X145121769Y-64988867D01*
X145121770Y-64988868D01*
X145180247Y-65000499D01*
X145180250Y-65000500D01*
X145302691Y-65000500D01*
X145369730Y-65020185D01*
X145390372Y-65036819D01*
X145955599Y-65602046D01*
X145874852Y-65614835D01*
X145761955Y-65672359D01*
X145672359Y-65761955D01*
X145614835Y-65874852D01*
X145602046Y-65955598D01*
X144920974Y-65274526D01*
X144920973Y-65274526D01*
X144869868Y-65347512D01*
X144869866Y-65347516D01*
X144773734Y-65553673D01*
X144773730Y-65553682D01*
X144714860Y-65773389D01*
X144714858Y-65773400D01*
X144695034Y-65999997D01*
X144695034Y-66000002D01*
X120300500Y-66000002D01*
X120300500Y-59920001D01*
X133694532Y-59920001D01*
X133714364Y-60146686D01*
X133714366Y-60146697D01*
X133773258Y-60366488D01*
X133773261Y-60366497D01*
X133869431Y-60572732D01*
X133869432Y-60572734D01*
X133999954Y-60759141D01*
X134160858Y-60920045D01*
X134160861Y-60920047D01*
X134347266Y-61050568D01*
X134553504Y-61146739D01*
X134773308Y-61205635D01*
X134935230Y-61219801D01*
X134999998Y-61225468D01*
X135000000Y-61225468D01*
X135000002Y-61225468D01*
X135056673Y-61220509D01*
X135226692Y-61205635D01*
X135446496Y-61146739D01*
X135652734Y-61050568D01*
X135839139Y-60920047D01*
X136000047Y-60759139D01*
X136130568Y-60572734D01*
X136226739Y-60366496D01*
X136285635Y-60146692D01*
X136305468Y-59920000D01*
X136285635Y-59693308D01*
X136226739Y-59473504D01*
X136130568Y-59267266D01*
X136000047Y-59080861D01*
X136000045Y-59080858D01*
X135839141Y-58919954D01*
X135652734Y-58789432D01*
X135652732Y-58789431D01*
X135446497Y-58693261D01*
X135446488Y-58693258D01*
X135226697Y-58634366D01*
X135226693Y-58634365D01*
X135226692Y-58634365D01*
X135226691Y-58634364D01*
X135226686Y-58634364D01*
X135000002Y-58614532D01*
X134999998Y-58614532D01*
X134773313Y-58634364D01*
X134773302Y-58634366D01*
X134553511Y-58693258D01*
X134553502Y-58693261D01*
X134347267Y-58789431D01*
X134347265Y-58789432D01*
X134160858Y-58919954D01*
X133999954Y-59080858D01*
X133869432Y-59267265D01*
X133869431Y-59267267D01*
X133773261Y-59473502D01*
X133773258Y-59473511D01*
X133714366Y-59693302D01*
X133714364Y-59693313D01*
X133694532Y-59919998D01*
X133694532Y-59920001D01*
X120300500Y-59920001D01*
X120300500Y-54604004D01*
X128294732Y-54604004D01*
X128313777Y-54858154D01*
X128360065Y-55060957D01*
X128370492Y-55106637D01*
X128463607Y-55343888D01*
X128591041Y-55564612D01*
X128749950Y-55763877D01*
X128936783Y-55937232D01*
X129147366Y-56080805D01*
X129147371Y-56080807D01*
X129147372Y-56080808D01*
X129147373Y-56080809D01*
X129249803Y-56130136D01*
X129376992Y-56191387D01*
X129376993Y-56191387D01*
X129376996Y-56191389D01*
X129620542Y-56266513D01*
X129872565Y-56304500D01*
X130127435Y-56304500D01*
X130379458Y-56266513D01*
X130623004Y-56191389D01*
X130852634Y-56080805D01*
X131063217Y-55937232D01*
X131250050Y-55763877D01*
X131408959Y-55564612D01*
X131536393Y-55343888D01*
X131629508Y-55106637D01*
X131686222Y-54858157D01*
X131705268Y-54604004D01*
X132612732Y-54604004D01*
X132631777Y-54858154D01*
X132678065Y-55060957D01*
X132688492Y-55106637D01*
X132781607Y-55343888D01*
X132909041Y-55564612D01*
X133067950Y-55763877D01*
X133254783Y-55937232D01*
X133465366Y-56080805D01*
X133465371Y-56080807D01*
X133465372Y-56080808D01*
X133465373Y-56080809D01*
X133567803Y-56130136D01*
X133694992Y-56191387D01*
X133694993Y-56191387D01*
X133694996Y-56191389D01*
X133938542Y-56266513D01*
X134190565Y-56304500D01*
X134445435Y-56304500D01*
X134697458Y-56266513D01*
X134941004Y-56191389D01*
X135170634Y-56080805D01*
X135381217Y-55937232D01*
X135568050Y-55763877D01*
X135726959Y-55564612D01*
X135854393Y-55343888D01*
X135947508Y-55106637D01*
X136004222Y-54858157D01*
X136023268Y-54604004D01*
X136930732Y-54604004D01*
X136949777Y-54858154D01*
X136996065Y-55060957D01*
X137006492Y-55106637D01*
X137099607Y-55343888D01*
X137227041Y-55564612D01*
X137385950Y-55763877D01*
X137572783Y-55937232D01*
X137783366Y-56080805D01*
X137783371Y-56080807D01*
X137783372Y-56080808D01*
X137783373Y-56080809D01*
X137885803Y-56130136D01*
X138012992Y-56191387D01*
X138012993Y-56191387D01*
X138012996Y-56191389D01*
X138256542Y-56266513D01*
X138508565Y-56304500D01*
X138763435Y-56304500D01*
X139015458Y-56266513D01*
X139259004Y-56191389D01*
X139488634Y-56080805D01*
X139699217Y-55937232D01*
X139886050Y-55763877D01*
X140044959Y-55564612D01*
X140172393Y-55343888D01*
X140265508Y-55106637D01*
X140322222Y-54858157D01*
X140341268Y-54604000D01*
X140340968Y-54600000D01*
X140322386Y-54352031D01*
X140322222Y-54349843D01*
X140265508Y-54101363D01*
X140172393Y-53864112D01*
X140044959Y-53643388D01*
X139886050Y-53444123D01*
X139699217Y-53270768D01*
X139488634Y-53127195D01*
X139488630Y-53127193D01*
X139488627Y-53127191D01*
X139488626Y-53127190D01*
X139259006Y-53016612D01*
X139259008Y-53016612D01*
X139015466Y-52941489D01*
X139015462Y-52941488D01*
X139015458Y-52941487D01*
X138894231Y-52923214D01*
X138763440Y-52903500D01*
X138763435Y-52903500D01*
X138508565Y-52903500D01*
X138508559Y-52903500D01*
X138357784Y-52926227D01*
X138256542Y-52941487D01*
X138256539Y-52941488D01*
X138256533Y-52941489D01*
X138012992Y-53016612D01*
X137783373Y-53127190D01*
X137783372Y-53127191D01*
X137783366Y-53127194D01*
X137783366Y-53127195D01*
X137758639Y-53144053D01*
X137572782Y-53270768D01*
X137385952Y-53444121D01*
X137385950Y-53444123D01*
X137227041Y-53643388D01*
X137099608Y-53864109D01*
X137006492Y-54101362D01*
X137006490Y-54101369D01*
X136949777Y-54349845D01*
X136930732Y-54603995D01*
X136930732Y-54604004D01*
X136023268Y-54604004D01*
X136023268Y-54604000D01*
X136022968Y-54600000D01*
X136004386Y-54352031D01*
X136004222Y-54349843D01*
X135947508Y-54101363D01*
X135854393Y-53864112D01*
X135726959Y-53643388D01*
X135568050Y-53444123D01*
X135381217Y-53270768D01*
X135170634Y-53127195D01*
X135170630Y-53127193D01*
X135170627Y-53127191D01*
X135170626Y-53127190D01*
X134941006Y-53016612D01*
X134941008Y-53016612D01*
X134697466Y-52941489D01*
X134697462Y-52941488D01*
X134697458Y-52941487D01*
X134576231Y-52923214D01*
X134445440Y-52903500D01*
X134445435Y-52903500D01*
X134190565Y-52903500D01*
X134190559Y-52903500D01*
X134039784Y-52926227D01*
X133938542Y-52941487D01*
X133938539Y-52941488D01*
X133938533Y-52941489D01*
X133694992Y-53016612D01*
X133465373Y-53127190D01*
X133465372Y-53127191D01*
X133465366Y-53127194D01*
X133465366Y-53127195D01*
X133440639Y-53144053D01*
X133254782Y-53270768D01*
X133067952Y-53444121D01*
X133067950Y-53444123D01*
X132909041Y-53643388D01*
X132781608Y-53864109D01*
X132688492Y-54101362D01*
X132688490Y-54101369D01*
X132631777Y-54349845D01*
X132612732Y-54603995D01*
X132612732Y-54604004D01*
X131705268Y-54604004D01*
X131705268Y-54604000D01*
X131704968Y-54600000D01*
X131686386Y-54352031D01*
X131686222Y-54349843D01*
X131629508Y-54101363D01*
X131536393Y-53864112D01*
X131408959Y-53643388D01*
X131250050Y-53444123D01*
X131063217Y-53270768D01*
X130852634Y-53127195D01*
X130852630Y-53127193D01*
X130852627Y-53127191D01*
X130852626Y-53127190D01*
X130623006Y-53016612D01*
X130623008Y-53016612D01*
X130379466Y-52941489D01*
X130379462Y-52941488D01*
X130379458Y-52941487D01*
X130258231Y-52923214D01*
X130127440Y-52903500D01*
X130127435Y-52903500D01*
X129872565Y-52903500D01*
X129872559Y-52903500D01*
X129721784Y-52926227D01*
X129620542Y-52941487D01*
X129620539Y-52941488D01*
X129620533Y-52941489D01*
X129376992Y-53016612D01*
X129147373Y-53127190D01*
X129147372Y-53127191D01*
X129147366Y-53127194D01*
X129147366Y-53127195D01*
X129122639Y-53144053D01*
X128936782Y-53270768D01*
X128749952Y-53444121D01*
X128749950Y-53444123D01*
X128591041Y-53643388D01*
X128463608Y-53864109D01*
X128370492Y-54101362D01*
X128370490Y-54101369D01*
X128313777Y-54349845D01*
X128294732Y-54603995D01*
X128294732Y-54604004D01*
X120300500Y-54604004D01*
X120300500Y-52659559D01*
X120300618Y-52654149D01*
X120308700Y-52469085D01*
X120314345Y-52339817D01*
X120315285Y-52329075D01*
X120356007Y-52019788D01*
X120357878Y-52009180D01*
X120425397Y-51704634D01*
X120428191Y-51694209D01*
X120521990Y-51396729D01*
X120525688Y-51386570D01*
X120593394Y-51223115D01*
X120645064Y-51098373D01*
X120649617Y-51088611D01*
X120793664Y-50811906D01*
X120799057Y-50802565D01*
X120966668Y-50539474D01*
X120972852Y-50530644D01*
X121095796Y-50370422D01*
X121115649Y-50349941D01*
X121119593Y-50346714D01*
X121119594Y-50346712D01*
X121119597Y-50346711D01*
X121195000Y-50271523D01*
X121224050Y-50250003D01*
X121246696Y-50237888D01*
X121277406Y-50226380D01*
X121335824Y-50212959D01*
X121340672Y-50211948D01*
X121461212Y-50189384D01*
X121461210Y-50189384D01*
X121461223Y-50189382D01*
X121473997Y-50186566D01*
X121474004Y-50186564D01*
X121474014Y-50186562D01*
X121475466Y-50186193D01*
X121488173Y-50182525D01*
X121578051Y-50153413D01*
X121584590Y-50151946D01*
X121584489Y-50151566D01*
X121592338Y-50149462D01*
X121592341Y-50149460D01*
X121592346Y-50149460D01*
X121595289Y-50148240D01*
X121604515Y-50144841D01*
X121639953Y-50133364D01*
X121647515Y-50130751D01*
X121648364Y-50130439D01*
X121657907Y-50124352D01*
X121677125Y-50114343D01*
X121717774Y-50097505D01*
X121738425Y-50088952D01*
X121863866Y-49992698D01*
X121960120Y-49867257D01*
X122020628Y-49721178D01*
X122041266Y-49564416D01*
X122036476Y-49528035D01*
X122020628Y-49407655D01*
X122020628Y-49407654D01*
X121960120Y-49261575D01*
X121863866Y-49136134D01*
X121738425Y-49039880D01*
X121707110Y-49026909D01*
X121592346Y-48979372D01*
X121592344Y-48979371D01*
X121435585Y-48958734D01*
X121435583Y-48958734D01*
X121278823Y-48979371D01*
X121278821Y-48979372D01*
X121132744Y-49039879D01*
X121007300Y-49136135D01*
X120911049Y-49261572D01*
X120884572Y-49325491D01*
X120877590Y-49339704D01*
X120867252Y-49357737D01*
X120867250Y-49357741D01*
X120814245Y-49515483D01*
X120810468Y-49528035D01*
X120810097Y-49529428D01*
X120807173Y-49541971D01*
X120781525Y-49670036D01*
X120781444Y-49670434D01*
X120765222Y-49750076D01*
X120758475Y-49772301D01*
X120736514Y-49825952D01*
X120723509Y-49849846D01*
X120649944Y-49955469D01*
X120649166Y-49956829D01*
X120636560Y-49974897D01*
X120584953Y-50036399D01*
X120369563Y-50344004D01*
X120181794Y-50669223D01*
X120023085Y-51009566D01*
X120023083Y-51009572D01*
X119894651Y-51362423D01*
X119894642Y-51362454D01*
X119797453Y-51725152D01*
X119797449Y-51725170D01*
X119732236Y-52094988D01*
X119699501Y-52469085D01*
X119699501Y-52524498D01*
X119699500Y-52600679D01*
X119699500Y-52600681D01*
X119699500Y-52619747D01*
X119699500Y-52656851D01*
X119699500Y-52684023D01*
X119699499Y-52714432D01*
X96000500Y-52714432D01*
X96000500Y-50000000D01*
X98294355Y-50000000D01*
X98314859Y-50168869D01*
X98314860Y-50168874D01*
X98375181Y-50327928D01*
X98375182Y-50327930D01*
X98437983Y-50418912D01*
X98459866Y-50485266D01*
X98442401Y-50552918D01*
X98404826Y-50592453D01*
X98355447Y-50625447D01*
X98311132Y-50691769D01*
X98311131Y-50691770D01*
X98299500Y-50750247D01*
X98299500Y-51789752D01*
X98311131Y-51848229D01*
X98311132Y-51848230D01*
X98355447Y-51914552D01*
X98421769Y-51958867D01*
X98421770Y-51958868D01*
X98480247Y-51970499D01*
X98480250Y-51970500D01*
X98480252Y-51970500D01*
X99519749Y-51970500D01*
X99539242Y-51966622D01*
X99578231Y-51958867D01*
X99595215Y-51947517D01*
X99597402Y-51946228D01*
X99597380Y-51946193D01*
X99604419Y-51941632D01*
X99608621Y-51938560D01*
X99644549Y-51914554D01*
X99644548Y-51914554D01*
X99644552Y-51914552D01*
X99644554Y-51914548D01*
X99653188Y-51905915D01*
X99653466Y-51906193D01*
X99661338Y-51897630D01*
X99660841Y-51897119D01*
X99665205Y-51892874D01*
X99665211Y-51892870D01*
X99747636Y-51795260D01*
X99755029Y-51787249D01*
X99832255Y-51710634D01*
X99842095Y-51701861D01*
X99911822Y-51646077D01*
X99924850Y-51636962D01*
X99985293Y-51600220D01*
X100002080Y-51591691D01*
X100030193Y-51580001D01*
X100077797Y-51570500D01*
X100607530Y-51570500D01*
X100607604Y-51570521D01*
X100658934Y-51570521D01*
X100658934Y-51570522D01*
X100867192Y-51570521D01*
X101282423Y-51537839D01*
X101693809Y-51472679D01*
X102098816Y-51375443D01*
X102494944Y-51246731D01*
X102879753Y-51087335D01*
X102879765Y-51087329D01*
X102879766Y-51087329D01*
X103250841Y-50898254D01*
X103250845Y-50898251D01*
X103250870Y-50898239D01*
X103606007Y-50680609D01*
X103942973Y-50435786D01*
X104259693Y-50165279D01*
X104367231Y-50057740D01*
X104370633Y-50054338D01*
X104370639Y-50054334D01*
X104406953Y-50018019D01*
X104440607Y-49984364D01*
X104727156Y-49697815D01*
X104748019Y-49676953D01*
X104748018Y-49676952D01*
X104784195Y-49640777D01*
X104784337Y-49640602D01*
X104895263Y-49529678D01*
X105165769Y-49212960D01*
X105410591Y-48875994D01*
X105628220Y-48520859D01*
X105633183Y-48511119D01*
X105817309Y-48149757D01*
X105817309Y-48149756D01*
X105817309Y-48149754D01*
X105817315Y-48149744D01*
X105879340Y-48000004D01*
X128294732Y-48000004D01*
X128313777Y-48254154D01*
X128366206Y-48483862D01*
X128370492Y-48502637D01*
X128463607Y-48739888D01*
X128591041Y-48960612D01*
X128749950Y-49159877D01*
X128936783Y-49333232D01*
X129147366Y-49476805D01*
X129147371Y-49476807D01*
X129147372Y-49476808D01*
X129147373Y-49476809D01*
X129256639Y-49529428D01*
X129376992Y-49587387D01*
X129376993Y-49587387D01*
X129376996Y-49587389D01*
X129620542Y-49662513D01*
X129872565Y-49700500D01*
X130127435Y-49700500D01*
X130379458Y-49662513D01*
X130623004Y-49587389D01*
X130852634Y-49476805D01*
X131063217Y-49333232D01*
X131250050Y-49159877D01*
X131408959Y-48960612D01*
X131536393Y-48739888D01*
X131629508Y-48502637D01*
X131686222Y-48254157D01*
X131694457Y-48144272D01*
X131705268Y-48000004D01*
X132612732Y-48000004D01*
X132631777Y-48254154D01*
X132684206Y-48483862D01*
X132688492Y-48502637D01*
X132781607Y-48739888D01*
X132909041Y-48960612D01*
X133067950Y-49159877D01*
X133254783Y-49333232D01*
X133465366Y-49476805D01*
X133465371Y-49476807D01*
X133465372Y-49476808D01*
X133465373Y-49476809D01*
X133574639Y-49529428D01*
X133694992Y-49587387D01*
X133694993Y-49587387D01*
X133694996Y-49587389D01*
X133938542Y-49662513D01*
X134190565Y-49700500D01*
X134445435Y-49700500D01*
X134697458Y-49662513D01*
X134941004Y-49587389D01*
X135170634Y-49476805D01*
X135381217Y-49333232D01*
X135568050Y-49159877D01*
X135726959Y-48960612D01*
X135854393Y-48739888D01*
X135947508Y-48502637D01*
X136004222Y-48254157D01*
X136012457Y-48144272D01*
X136023268Y-48000004D01*
X136930732Y-48000004D01*
X136949777Y-48254154D01*
X137002206Y-48483862D01*
X137006492Y-48502637D01*
X137099607Y-48739888D01*
X137227041Y-48960612D01*
X137385950Y-49159877D01*
X137572783Y-49333232D01*
X137783366Y-49476805D01*
X137783371Y-49476807D01*
X137783372Y-49476808D01*
X137783373Y-49476809D01*
X137892639Y-49529428D01*
X138012992Y-49587387D01*
X138012993Y-49587387D01*
X138012996Y-49587389D01*
X138256542Y-49662513D01*
X138508565Y-49700500D01*
X138763435Y-49700500D01*
X139015458Y-49662513D01*
X139259004Y-49587389D01*
X139488634Y-49476805D01*
X139699217Y-49333232D01*
X139886050Y-49159877D01*
X140044959Y-48960612D01*
X140172393Y-48739888D01*
X140265508Y-48502637D01*
X140322222Y-48254157D01*
X140330457Y-48144272D01*
X140341268Y-48000004D01*
X140341268Y-47999995D01*
X140322222Y-47745845D01*
X140320779Y-47739524D01*
X140265508Y-47497363D01*
X140172393Y-47260112D01*
X140044959Y-47039388D01*
X139886050Y-46840123D01*
X139699217Y-46666768D01*
X139488634Y-46523195D01*
X139488630Y-46523193D01*
X139488627Y-46523191D01*
X139488626Y-46523190D01*
X139259006Y-46412612D01*
X139259008Y-46412612D01*
X139015466Y-46337489D01*
X139015462Y-46337488D01*
X139015458Y-46337487D01*
X138894231Y-46319214D01*
X138763440Y-46299500D01*
X138763435Y-46299500D01*
X138508565Y-46299500D01*
X138508559Y-46299500D01*
X138351609Y-46323157D01*
X138256542Y-46337487D01*
X138256539Y-46337488D01*
X138256533Y-46337489D01*
X138012992Y-46412612D01*
X137783373Y-46523190D01*
X137783372Y-46523191D01*
X137572782Y-46666768D01*
X137385952Y-46840121D01*
X137385950Y-46840123D01*
X137227041Y-47039388D01*
X137099608Y-47260109D01*
X137006492Y-47497362D01*
X137006490Y-47497369D01*
X136949777Y-47745845D01*
X136930732Y-47999995D01*
X136930732Y-48000004D01*
X136023268Y-48000004D01*
X136023268Y-47999995D01*
X136004222Y-47745845D01*
X136002779Y-47739524D01*
X135947508Y-47497363D01*
X135854393Y-47260112D01*
X135726959Y-47039388D01*
X135568050Y-46840123D01*
X135381217Y-46666768D01*
X135170634Y-46523195D01*
X135170630Y-46523193D01*
X135170627Y-46523191D01*
X135170626Y-46523190D01*
X134941006Y-46412612D01*
X134941008Y-46412612D01*
X134697466Y-46337489D01*
X134697462Y-46337488D01*
X134697458Y-46337487D01*
X134576231Y-46319214D01*
X134445440Y-46299500D01*
X134445435Y-46299500D01*
X134190565Y-46299500D01*
X134190559Y-46299500D01*
X134033609Y-46323157D01*
X133938542Y-46337487D01*
X133938539Y-46337488D01*
X133938533Y-46337489D01*
X133694992Y-46412612D01*
X133465373Y-46523190D01*
X133465372Y-46523191D01*
X133254782Y-46666768D01*
X133067952Y-46840121D01*
X133067950Y-46840123D01*
X132909041Y-47039388D01*
X132781608Y-47260109D01*
X132688492Y-47497362D01*
X132688490Y-47497369D01*
X132631777Y-47745845D01*
X132612732Y-47999995D01*
X132612732Y-48000004D01*
X131705268Y-48000004D01*
X131705268Y-47999995D01*
X131686222Y-47745845D01*
X131684779Y-47739524D01*
X131629508Y-47497363D01*
X131536393Y-47260112D01*
X131408959Y-47039388D01*
X131250050Y-46840123D01*
X131063217Y-46666768D01*
X130852634Y-46523195D01*
X130852630Y-46523193D01*
X130852627Y-46523191D01*
X130852626Y-46523190D01*
X130623006Y-46412612D01*
X130623008Y-46412612D01*
X130379466Y-46337489D01*
X130379462Y-46337488D01*
X130379458Y-46337487D01*
X130258231Y-46319214D01*
X130127440Y-46299500D01*
X130127435Y-46299500D01*
X129872565Y-46299500D01*
X129872559Y-46299500D01*
X129715609Y-46323157D01*
X129620542Y-46337487D01*
X129620539Y-46337488D01*
X129620533Y-46337489D01*
X129376992Y-46412612D01*
X129147373Y-46523190D01*
X129147372Y-46523191D01*
X128936782Y-46666768D01*
X128749952Y-46840121D01*
X128749950Y-46840123D01*
X128591041Y-47039388D01*
X128463608Y-47260109D01*
X128370492Y-47497362D01*
X128370490Y-47497369D01*
X128313777Y-47745845D01*
X128294732Y-47999995D01*
X128294732Y-48000004D01*
X105879340Y-48000004D01*
X105976710Y-47764937D01*
X106105422Y-47368810D01*
X106202658Y-46963805D01*
X106267817Y-46552420D01*
X106300499Y-46137191D01*
X106300500Y-45928934D01*
X106300501Y-45881339D01*
X106300500Y-45881335D01*
X106300500Y-45444323D01*
X106316081Y-45384146D01*
X106339486Y-45341978D01*
X106343618Y-45335072D01*
X106395592Y-45254273D01*
X106401379Y-45246032D01*
X106401386Y-45246024D01*
X106447906Y-45185189D01*
X106456174Y-45175460D01*
X106456181Y-45175453D01*
X106494619Y-45134678D01*
X106506557Y-45123578D01*
X106544673Y-45092560D01*
X106552603Y-45085763D01*
X106553481Y-45084971D01*
X106553481Y-45084970D01*
X106558584Y-45080368D01*
X106558711Y-45080509D01*
X106561128Y-45078402D01*
X106560915Y-45078188D01*
X106569548Y-45069554D01*
X106569552Y-45069552D01*
X106613867Y-45003231D01*
X106613867Y-45003230D01*
X106613868Y-45003229D01*
X106625499Y-44944752D01*
X106625500Y-44944750D01*
X106625500Y-44055249D01*
X106625499Y-44055247D01*
X106613868Y-43996770D01*
X106613867Y-43996769D01*
X106569552Y-43930447D01*
X106503230Y-43886132D01*
X106503229Y-43886131D01*
X106444752Y-43874500D01*
X106444748Y-43874500D01*
X105555252Y-43874500D01*
X105555247Y-43874500D01*
X105496770Y-43886131D01*
X105496769Y-43886132D01*
X105430447Y-43930447D01*
X105386132Y-43996769D01*
X105386131Y-43996770D01*
X105374500Y-44055247D01*
X105374500Y-44944752D01*
X105386131Y-45003228D01*
X105386132Y-45003229D01*
X105399535Y-45023288D01*
X105402746Y-45028620D01*
X105404201Y-45030778D01*
X105404204Y-45030784D01*
X105404207Y-45030788D01*
X105406380Y-45034011D01*
X105409485Y-45038182D01*
X105430443Y-45069547D01*
X105435328Y-45074431D01*
X105450839Y-45088431D01*
X105451001Y-45088269D01*
X105454458Y-45091698D01*
X105455072Y-45092252D01*
X105455325Y-45092558D01*
X105455326Y-45092559D01*
X105455328Y-45092561D01*
X105493426Y-45123567D01*
X105505382Y-45134683D01*
X105543816Y-45175453D01*
X105552085Y-45185182D01*
X105598622Y-45246037D01*
X105604402Y-45254268D01*
X105656387Y-45335085D01*
X105660516Y-45341986D01*
X105683917Y-45384143D01*
X105699500Y-45444324D01*
X105699500Y-45926504D01*
X105699404Y-45931373D01*
X105685202Y-46292780D01*
X105684438Y-46302486D01*
X105642210Y-46659250D01*
X105640687Y-46668867D01*
X105570596Y-47021226D01*
X105568323Y-47030693D01*
X105470803Y-47376464D01*
X105467794Y-47385724D01*
X105343447Y-47722775D01*
X105339721Y-47731770D01*
X105189309Y-48058034D01*
X105184897Y-48066694D01*
X105009349Y-48380152D01*
X105004262Y-48388453D01*
X104804668Y-48687163D01*
X104798945Y-48695040D01*
X104576533Y-48977166D01*
X104570210Y-48984570D01*
X104324296Y-49250597D01*
X104320924Y-49254103D01*
X104305862Y-49269166D01*
X104015635Y-49559393D01*
X104015634Y-49559395D01*
X103983702Y-49591326D01*
X103980193Y-49594699D01*
X103714583Y-49840227D01*
X103707180Y-49846550D01*
X103425053Y-50068964D01*
X103417176Y-50074687D01*
X103118465Y-50274281D01*
X103110164Y-50279368D01*
X102796714Y-50454911D01*
X102788038Y-50459332D01*
X102461767Y-50609746D01*
X102452772Y-50613471D01*
X102115730Y-50737815D01*
X102106470Y-50740824D01*
X101760698Y-50838344D01*
X101751231Y-50840617D01*
X101398870Y-50910709D01*
X101389253Y-50912232D01*
X101032487Y-50954460D01*
X101022781Y-50955224D01*
X100661933Y-50969404D01*
X100657064Y-50969500D01*
X100077803Y-50969500D01*
X100030191Y-50959995D01*
X100002084Y-50948307D01*
X99985286Y-50939771D01*
X99924866Y-50903043D01*
X99911813Y-50893911D01*
X99842112Y-50838149D01*
X99832242Y-50829350D01*
X99755043Y-50752760D01*
X99747638Y-50744736D01*
X99665211Y-50647129D01*
X99659532Y-50640681D01*
X99654302Y-50634991D01*
X99654568Y-50634746D01*
X99653614Y-50633659D01*
X99653189Y-50634085D01*
X99644551Y-50625447D01*
X99595175Y-50592455D01*
X99550370Y-50538842D01*
X99541663Y-50469517D01*
X99562017Y-50418912D01*
X99624816Y-50327933D01*
X99624817Y-50327931D01*
X99624816Y-50327931D01*
X99624818Y-50327930D01*
X99685140Y-50168872D01*
X99705645Y-50000000D01*
X99685140Y-49831128D01*
X99624818Y-49672070D01*
X99618221Y-49662513D01*
X99569084Y-49591326D01*
X99528183Y-49532071D01*
X99400852Y-49419266D01*
X99400849Y-49419263D01*
X99250226Y-49340210D01*
X99085056Y-49299500D01*
X98914944Y-49299500D01*
X98749773Y-49340210D01*
X98599150Y-49419263D01*
X98471816Y-49532072D01*
X98375182Y-49672068D01*
X98314860Y-49831125D01*
X98314859Y-49831130D01*
X98294355Y-50000000D01*
X96000500Y-50000000D01*
X96000500Y-44944752D01*
X100874500Y-44944752D01*
X100886131Y-45003229D01*
X100886132Y-45003230D01*
X100930447Y-45069552D01*
X100996769Y-45113867D01*
X100996770Y-45113868D01*
X101055247Y-45125499D01*
X101055250Y-45125500D01*
X101055252Y-45125500D01*
X101944750Y-45125500D01*
X101944751Y-45125499D01*
X101959568Y-45122552D01*
X102003229Y-45113868D01*
X102003229Y-45113867D01*
X102003231Y-45113867D01*
X102069552Y-45069552D01*
X102113867Y-45003231D01*
X102113867Y-45003229D01*
X102113868Y-45003229D01*
X102125499Y-44944752D01*
X102125500Y-44944750D01*
X102125500Y-44055249D01*
X102125499Y-44055247D01*
X102113868Y-43996770D01*
X102113867Y-43996769D01*
X102069552Y-43930447D01*
X102003230Y-43886132D01*
X102003229Y-43886131D01*
X101944752Y-43874500D01*
X101944748Y-43874500D01*
X101055252Y-43874500D01*
X101055247Y-43874500D01*
X100996770Y-43886131D01*
X100996769Y-43886132D01*
X100930447Y-43930447D01*
X100886132Y-43996769D01*
X100886131Y-43996770D01*
X100874500Y-44055247D01*
X100874500Y-44944752D01*
X96000500Y-44944752D01*
X96000500Y-42004065D01*
X96000765Y-41995956D01*
X96005954Y-41916781D01*
X96005979Y-41916401D01*
X96006004Y-41916046D01*
X96018709Y-41738407D01*
X96020771Y-41723099D01*
X96042955Y-41611573D01*
X96043364Y-41609606D01*
X96073788Y-41469749D01*
X96077519Y-41456305D01*
X96116243Y-41342230D01*
X96117404Y-41338967D01*
X96165068Y-41211177D01*
X96170017Y-41199713D01*
X96224481Y-41089272D01*
X96226777Y-41084851D01*
X96290855Y-40967501D01*
X96296562Y-40958075D01*
X96365639Y-40854694D01*
X96369425Y-40849344D01*
X96448850Y-40743246D01*
X96454823Y-40735878D01*
X96537161Y-40641989D01*
X96542648Y-40636131D01*
X96636131Y-40542648D01*
X96641989Y-40537161D01*
X96735878Y-40454823D01*
X96743246Y-40448850D01*
X96849344Y-40369425D01*
X96854694Y-40365639D01*
X96958075Y-40296562D01*
X96967501Y-40290855D01*
X97084851Y-40226777D01*
X97089272Y-40224481D01*
X97199713Y-40170017D01*
X97211177Y-40165068D01*
X97338967Y-40117404D01*
X97342230Y-40116243D01*
X97456305Y-40077519D01*
X97469749Y-40073788D01*
X97609606Y-40043364D01*
X97611573Y-40042955D01*
X97723099Y-40020771D01*
X97738407Y-40018709D01*
X97916193Y-40005992D01*
X97995957Y-40000764D01*
X98004065Y-40000500D01*
X190995935Y-40000500D01*
X191004042Y-40000764D01*
G37*
G04 #@! TD.AperFunction*
G04 #@! TA.AperFunction,Conductor*
G36*
X133908663Y-69087910D02*
G01*
X133909304Y-69088451D01*
X134991464Y-70071339D01*
X134995285Y-70079438D01*
X134992259Y-70087866D01*
X134991464Y-70088661D01*
X133909304Y-71071548D01*
X133900876Y-71074574D01*
X133892777Y-71070753D01*
X133892236Y-71070112D01*
X133700012Y-70825287D01*
X133700009Y-70825284D01*
X133700006Y-70825281D01*
X133700000Y-70825273D01*
X133500000Y-70610410D01*
X133499998Y-70610408D01*
X133499995Y-70610405D01*
X133300005Y-70435415D01*
X133300003Y-70435413D01*
X133299999Y-70435410D01*
X133286195Y-70426083D01*
X133100006Y-70300278D01*
X133100002Y-70300276D01*
X133099999Y-70300274D01*
X132984776Y-70245385D01*
X132906668Y-70208176D01*
X132900673Y-70201524D01*
X132900000Y-70197613D01*
X132900000Y-69962386D01*
X132903427Y-69954113D01*
X132906665Y-69951824D01*
X133099999Y-69859725D01*
X133100007Y-69859719D01*
X133100010Y-69859718D01*
X133158190Y-69820406D01*
X133299999Y-69724589D01*
X133500000Y-69549589D01*
X133700000Y-69334726D01*
X133892238Y-69089885D01*
X133900040Y-69085496D01*
X133908663Y-69087910D01*
G37*
G04 #@! TD.AperFunction*
G04 #@! TA.AperFunction,Conductor*
G36*
X107105200Y-65925514D02*
G01*
X107209946Y-65991724D01*
X107307528Y-66053406D01*
X107307533Y-66053408D01*
X107307540Y-66053413D01*
X107517787Y-66157810D01*
X107728034Y-66233706D01*
X107938281Y-66281103D01*
X108135408Y-66298820D01*
X108143341Y-66302974D01*
X108146013Y-66311520D01*
X108145808Y-66312888D01*
X108001982Y-66994661D01*
X107996921Y-67002049D01*
X107994996Y-67003062D01*
X107411589Y-67243746D01*
X107402634Y-67243733D01*
X107396311Y-67237392D01*
X107396034Y-67236648D01*
X107304103Y-66961281D01*
X107208206Y-66702534D01*
X107112310Y-66472287D01*
X107016413Y-66270540D01*
X107016394Y-66270505D01*
X106924784Y-66105002D01*
X106923775Y-66096104D01*
X106926745Y-66091065D01*
X107090679Y-65927131D01*
X107098951Y-65923705D01*
X107105200Y-65925514D01*
G37*
G04 #@! TD.AperFunction*
G04 #@! TA.AperFunction,Conductor*
G36*
X106008263Y-44507282D02*
G01*
X106008283Y-44507302D01*
X106415856Y-44915834D01*
X106419273Y-44924111D01*
X106415836Y-44932380D01*
X106414958Y-44933172D01*
X106359997Y-44977901D01*
X106295000Y-45046847D01*
X106294990Y-45046859D01*
X106230002Y-45131844D01*
X106164998Y-45232898D01*
X106103343Y-45343978D01*
X106096332Y-45349549D01*
X106093113Y-45350000D01*
X105906887Y-45350000D01*
X105898614Y-45346573D01*
X105896657Y-45343978D01*
X105835000Y-45232898D01*
X105770000Y-45131848D01*
X105730000Y-45079542D01*
X105705008Y-45046859D01*
X105704998Y-45046847D01*
X105640001Y-44977901D01*
X105585041Y-44933172D01*
X105580787Y-44925291D01*
X105583351Y-44916712D01*
X105584129Y-44915849D01*
X105991717Y-44507301D01*
X105999986Y-44503865D01*
X106008263Y-44507282D01*
G37*
G04 #@! TD.AperFunction*
G04 #@! TA.AperFunction,Conductor*
G36*
X99507545Y-50778998D02*
G01*
X99508203Y-50779714D01*
X99599995Y-50888413D01*
X99599999Y-50888417D01*
X99600000Y-50888418D01*
X99700000Y-50987628D01*
X99799999Y-51067628D01*
X99899999Y-51128418D01*
X99992793Y-51167003D01*
X99999115Y-51173342D01*
X100000000Y-51177805D01*
X100000000Y-51362194D01*
X99996573Y-51370467D01*
X99992792Y-51372997D01*
X99900001Y-51411580D01*
X99799995Y-51472373D01*
X99699997Y-51552373D01*
X99599995Y-51651585D01*
X99508203Y-51760285D01*
X99500247Y-51764395D01*
X99491715Y-51761675D01*
X99490999Y-51761017D01*
X99381344Y-51651581D01*
X99007296Y-51278280D01*
X99003862Y-51270012D01*
X99007280Y-51261735D01*
X99491000Y-50778981D01*
X99499276Y-50775563D01*
X99507545Y-50778998D01*
G37*
G04 #@! TD.AperFunction*
G04 #@! TA.AperFunction,Conductor*
G36*
X148008267Y-54087276D02*
G01*
X148943540Y-55023531D01*
X148946963Y-55031805D01*
X148943532Y-55040076D01*
X148942843Y-55040712D01*
X148811999Y-55151986D01*
X148671497Y-55306982D01*
X148531000Y-55497480D01*
X148530994Y-55497488D01*
X148390507Y-55723473D01*
X148390503Y-55723481D01*
X148253311Y-55978837D01*
X148246376Y-55984503D01*
X148243004Y-55985000D01*
X147756996Y-55985000D01*
X147748723Y-55981573D01*
X147746689Y-55978837D01*
X147725003Y-55938474D01*
X147609499Y-55723487D01*
X147609493Y-55723478D01*
X147609491Y-55723473D01*
X147469004Y-55497488D01*
X147468998Y-55497480D01*
X147328501Y-55306982D01*
X147187999Y-55151986D01*
X147057156Y-55040712D01*
X147053074Y-55032742D01*
X147055823Y-55024219D01*
X147056439Y-55023550D01*
X147991724Y-54087284D01*
X147999994Y-54083854D01*
X148008267Y-54087276D01*
G37*
G04 #@! TD.AperFunction*
G04 #@! TA.AperFunction,Conductor*
G36*
X122767510Y-73624403D02*
G01*
X123033413Y-73835480D01*
X123268880Y-73921773D01*
X123268884Y-73921773D01*
X123268886Y-73921774D01*
X123358848Y-73930883D01*
X123503991Y-73945582D01*
X123767812Y-73974681D01*
X123775926Y-73975576D01*
X123778018Y-73976002D01*
X124113778Y-74077169D01*
X124120710Y-74082836D01*
X124121605Y-74091746D01*
X124121217Y-74092836D01*
X123822562Y-74816212D01*
X123816237Y-74822551D01*
X123816212Y-74822562D01*
X123092836Y-75121217D01*
X123083881Y-75121206D01*
X123077556Y-75114867D01*
X123077173Y-75113791D01*
X122976002Y-74778018D01*
X122975576Y-74775926D01*
X122945582Y-74503991D01*
X122945571Y-74503887D01*
X122921774Y-74268886D01*
X122921773Y-74268883D01*
X122921773Y-74268880D01*
X122835480Y-74033413D01*
X122624403Y-73767510D01*
X122621945Y-73758901D01*
X122625294Y-73751965D01*
X122751965Y-73625294D01*
X122760237Y-73621868D01*
X122767510Y-73624403D01*
G37*
G04 #@! TD.AperFunction*
G04 #@! TA.AperFunction,Conductor*
G36*
X104279594Y-57339472D02*
G01*
X104285920Y-57345811D01*
X104285911Y-57354765D01*
X104285430Y-57355782D01*
X104099623Y-57704220D01*
X104098494Y-57705950D01*
X103909065Y-57946672D01*
X103909024Y-57946723D01*
X103744525Y-58153401D01*
X103628754Y-58409716D01*
X103628753Y-58409720D01*
X103586165Y-58789604D01*
X103581838Y-58797443D01*
X103574538Y-58800000D01*
X103345461Y-58800000D01*
X103337188Y-58796573D01*
X103333834Y-58789604D01*
X103291245Y-58409720D01*
X103291244Y-58409716D01*
X103175475Y-58153404D01*
X103010934Y-57946672D01*
X102821504Y-57705950D01*
X102820375Y-57704220D01*
X102634569Y-57355782D01*
X102633700Y-57346870D01*
X102639388Y-57339953D01*
X102640391Y-57339478D01*
X103455512Y-57000863D01*
X103464465Y-57000855D01*
X104279594Y-57339472D01*
G37*
G04 #@! TD.AperFunction*
G04 #@! TA.AperFunction,Conductor*
G36*
X115408283Y-66408363D02*
G01*
X115409193Y-66409182D01*
X116192711Y-67191722D01*
X116196143Y-67199993D01*
X116192721Y-67208268D01*
X116192711Y-67208278D01*
X115409193Y-67990817D01*
X115400918Y-67994239D01*
X115392647Y-67990807D01*
X115391828Y-67989897D01*
X115239997Y-67802194D01*
X115079998Y-67635794D01*
X114920005Y-67500799D01*
X114919997Y-67500793D01*
X114760005Y-67397198D01*
X114606888Y-67328108D01*
X114600756Y-67321581D01*
X114600000Y-67317443D01*
X114600000Y-67082556D01*
X114603427Y-67074283D01*
X114606884Y-67071893D01*
X114760000Y-67002803D01*
X114920000Y-66899204D01*
X115079999Y-66764204D01*
X115239999Y-66597803D01*
X115391829Y-66410101D01*
X115399696Y-66405825D01*
X115408283Y-66408363D01*
G37*
G04 #@! TD.AperFunction*
G04 #@! TA.AperFunction,Conductor*
G36*
X124556195Y-66898762D02*
G01*
X124562520Y-66905101D01*
X124562886Y-66906119D01*
X124665419Y-67238651D01*
X124665840Y-67240583D01*
X124700847Y-67508721D01*
X124700845Y-67508728D01*
X124700848Y-67508734D01*
X124730744Y-67739879D01*
X124821635Y-67971742D01*
X124821636Y-67971743D01*
X125033179Y-68234801D01*
X125035693Y-68243395D01*
X125032334Y-68250405D01*
X124870405Y-68412334D01*
X124862132Y-68415761D01*
X124854801Y-68413179D01*
X124591743Y-68201636D01*
X124591742Y-68201635D01*
X124359879Y-68110744D01*
X124128734Y-68080848D01*
X124128728Y-68080844D01*
X124128721Y-68080847D01*
X123860583Y-68045840D01*
X123858651Y-68045419D01*
X123526119Y-67942886D01*
X123519222Y-67937173D01*
X123518385Y-67928258D01*
X123518751Y-67927240D01*
X123596105Y-67739879D01*
X123817438Y-67203785D01*
X123823762Y-67197448D01*
X123823764Y-67197446D01*
X124547240Y-66898751D01*
X124556195Y-66898762D01*
G37*
G04 #@! TD.AperFunction*
G04 #@! TA.AperFunction,Conductor*
G36*
X160781306Y-48998276D02*
G01*
X160789162Y-49002572D01*
X160791685Y-49008697D01*
X160922792Y-50268992D01*
X160920240Y-50277576D01*
X160912752Y-50281794D01*
X160729821Y-50306997D01*
X160647593Y-50318326D01*
X160647590Y-50318326D01*
X160647588Y-50318327D01*
X160384022Y-50385943D01*
X160384019Y-50385943D01*
X160119007Y-50503435D01*
X159838316Y-50691140D01*
X159535963Y-50962002D01*
X159527514Y-50964969D01*
X159519883Y-50961560D01*
X158828438Y-50270115D01*
X158825011Y-50261842D01*
X158827995Y-50254037D01*
X159100012Y-49950356D01*
X159288610Y-49668427D01*
X159406891Y-49402367D01*
X159475341Y-49138046D01*
X159512865Y-48872545D01*
X159517416Y-48864835D01*
X159525704Y-48862552D01*
X160781306Y-48998276D01*
G37*
G04 #@! TD.AperFunction*
G04 #@! TA.AperFunction,Conductor*
G36*
X147195874Y-62464504D02*
G01*
X147535886Y-62804516D01*
X147539313Y-62812789D01*
X147537540Y-62818981D01*
X147393982Y-63049124D01*
X147393958Y-63049165D01*
X147245488Y-63320181D01*
X147245461Y-63320233D01*
X147096988Y-63624248D01*
X146948486Y-63961326D01*
X146804401Y-64320402D01*
X146798140Y-64326804D01*
X146789186Y-64326903D01*
X146789077Y-64326859D01*
X146003785Y-64002562D01*
X145997447Y-63996238D01*
X145718282Y-63320233D01*
X145673701Y-63212279D01*
X145673710Y-63203324D01*
X145680049Y-63196999D01*
X145681443Y-63196523D01*
X145972685Y-63117507D01*
X146276741Y-63002015D01*
X146580796Y-62853522D01*
X146884852Y-62672030D01*
X147180860Y-62463215D01*
X147189592Y-62461248D01*
X147195874Y-62464504D01*
G37*
G04 #@! TD.AperFunction*
G04 #@! TA.AperFunction,Conductor*
G36*
X121077583Y-49416095D02*
G01*
X121094833Y-49423192D01*
X121431707Y-49561787D01*
X121438054Y-49568104D01*
X121438074Y-49568153D01*
X121583845Y-49922278D01*
X121583826Y-49931233D01*
X121577480Y-49937551D01*
X121576631Y-49937863D01*
X121424851Y-49987024D01*
X121423399Y-49987393D01*
X121296299Y-50011186D01*
X121188534Y-50035946D01*
X121188533Y-50035946D01*
X121084295Y-50091711D01*
X121084293Y-50091712D01*
X120974497Y-50201191D01*
X120966219Y-50204606D01*
X120958814Y-50201950D01*
X120820756Y-50088647D01*
X120816534Y-50080750D01*
X120818577Y-50072916D01*
X120861571Y-50011186D01*
X120912920Y-49937461D01*
X120960401Y-49821469D01*
X120982984Y-49710595D01*
X121008669Y-49582341D01*
X121009043Y-49580937D01*
X121062050Y-49423191D01*
X121067934Y-49416442D01*
X121076868Y-49415828D01*
X121077583Y-49416095D01*
G37*
G04 #@! TD.AperFunction*
G04 #@! TA.AperFunction,Conductor*
G36*
X149007929Y-53133527D02*
G01*
X149190500Y-53272299D01*
X149380999Y-53389949D01*
X149571500Y-53480450D01*
X149762000Y-53543800D01*
X149762010Y-53543802D01*
X149784294Y-53548036D01*
X149942985Y-53578191D01*
X149950472Y-53583102D01*
X149952500Y-53589685D01*
X149952500Y-54570314D01*
X149949073Y-54578587D01*
X149942984Y-54581808D01*
X149762010Y-54616196D01*
X149762000Y-54616198D01*
X149571504Y-54679547D01*
X149571494Y-54679551D01*
X149381002Y-54770048D01*
X149190494Y-54887704D01*
X149007929Y-55026472D01*
X148999269Y-55028750D01*
X148992784Y-55025633D01*
X148471891Y-54529979D01*
X148007906Y-54088475D01*
X148004276Y-54080290D01*
X148007496Y-54071935D01*
X148007895Y-54071535D01*
X148992784Y-53134365D01*
X149001139Y-53131146D01*
X149007929Y-53133527D01*
G37*
G04 #@! TD.AperFunction*
G04 #@! TA.AperFunction,Conductor*
G36*
X110594917Y-66499340D02*
G01*
X110595526Y-66500106D01*
X110710422Y-66657662D01*
X110832819Y-66800102D01*
X110955211Y-66917133D01*
X110955212Y-66917134D01*
X111077603Y-67008766D01*
X111077612Y-67008772D01*
X111136095Y-67040419D01*
X111193869Y-67071682D01*
X111199513Y-67078632D01*
X111200000Y-67081971D01*
X111200000Y-67314825D01*
X111196573Y-67323098D01*
X111189924Y-67326412D01*
X111049137Y-67346147D01*
X111049130Y-67346148D01*
X110898268Y-67392318D01*
X110747409Y-67463509D01*
X110747404Y-67463511D01*
X110747402Y-67463513D01*
X110709054Y-67487969D01*
X110596537Y-67559728D01*
X110455715Y-67672898D01*
X110447120Y-67675409D01*
X110439266Y-67671107D01*
X110438603Y-67670195D01*
X110366145Y-67559730D01*
X110004613Y-67008558D01*
X110002942Y-66999762D01*
X110006736Y-66993299D01*
X110578413Y-66498155D01*
X110586910Y-66495330D01*
X110594917Y-66499340D01*
G37*
G04 #@! TD.AperFunction*
M02*
