G04 #@! TF.GenerationSoftware,KiCad,Pcbnew,7.0.10*
G04 #@! TF.CreationDate,2024-02-12T15:02:02-05:00*
G04 #@! TF.ProjectId,breakout_pcb,62726561-6b6f-4757-945f-7063622e6b69,rev?*
G04 #@! TF.SameCoordinates,Original*
G04 #@! TF.FileFunction,Legend,Bot*
G04 #@! TF.FilePolarity,Positive*
%FSLAX46Y46*%
G04 Gerber Fmt 4.6, Leading zero omitted, Abs format (unit mm)*
G04 Created by KiCad (PCBNEW 7.0.10) date 2024-02-12 15:02:02*
%MOMM*%
%LPD*%
G01*
G04 APERTURE LIST*
G04 Aperture macros list*
%AMRoundRect*
0 Rectangle with rounded corners*
0 $1 Rounding radius*
0 $2 $3 $4 $5 $6 $7 $8 $9 X,Y pos of 4 corners*
0 Add a 4 corners polygon primitive as box body*
4,1,4,$2,$3,$4,$5,$6,$7,$8,$9,$2,$3,0*
0 Add four circle primitives for the rounded corners*
1,1,$1+$1,$2,$3*
1,1,$1+$1,$4,$5*
1,1,$1+$1,$6,$7*
1,1,$1+$1,$8,$9*
0 Add four rect primitives between the rounded corners*
20,1,$1+$1,$2,$3,$4,$5,0*
20,1,$1+$1,$4,$5,$6,$7,0*
20,1,$1+$1,$6,$7,$8,$9,0*
20,1,$1+$1,$8,$9,$2,$3,0*%
G04 Aperture macros list end*
%ADD10C,0.150000*%
%ADD11C,0.120000*%
%ADD12R,0.850000X0.850000*%
%ADD13R,1.600000X1.600000*%
%ADD14O,1.600000X1.600000*%
%ADD15C,3.000000*%
%ADD16R,1.000000X1.000000*%
%ADD17O,1.000000X1.000000*%
%ADD18C,1.600000*%
%ADD19R,2.200000X2.200000*%
%ADD20O,2.200000X2.200000*%
%ADD21C,2.600000*%
%ADD22R,2.000000X1.905000*%
%ADD23O,2.000000X1.905000*%
%ADD24R,1.800000X1.800000*%
%ADD25C,1.800000*%
%ADD26RoundRect,0.250000X0.350000X0.450000X-0.350000X0.450000X-0.350000X-0.450000X0.350000X-0.450000X0*%
G04 APERTURE END LIST*
D10*
X109642857Y-65804819D02*
X109976190Y-65328628D01*
X110214285Y-65804819D02*
X110214285Y-64804819D01*
X110214285Y-64804819D02*
X109833333Y-64804819D01*
X109833333Y-64804819D02*
X109738095Y-64852438D01*
X109738095Y-64852438D02*
X109690476Y-64900057D01*
X109690476Y-64900057D02*
X109642857Y-64995295D01*
X109642857Y-64995295D02*
X109642857Y-65138152D01*
X109642857Y-65138152D02*
X109690476Y-65233390D01*
X109690476Y-65233390D02*
X109738095Y-65281009D01*
X109738095Y-65281009D02*
X109833333Y-65328628D01*
X109833333Y-65328628D02*
X110214285Y-65328628D01*
X108690476Y-65804819D02*
X109261904Y-65804819D01*
X108976190Y-65804819D02*
X108976190Y-64804819D01*
X108976190Y-64804819D02*
X109071428Y-64947676D01*
X109071428Y-64947676D02*
X109166666Y-65042914D01*
X109166666Y-65042914D02*
X109261904Y-65090533D01*
X108071428Y-64804819D02*
X107976190Y-64804819D01*
X107976190Y-64804819D02*
X107880952Y-64852438D01*
X107880952Y-64852438D02*
X107833333Y-64900057D01*
X107833333Y-64900057D02*
X107785714Y-64995295D01*
X107785714Y-64995295D02*
X107738095Y-65185771D01*
X107738095Y-65185771D02*
X107738095Y-65423866D01*
X107738095Y-65423866D02*
X107785714Y-65614342D01*
X107785714Y-65614342D02*
X107833333Y-65709580D01*
X107833333Y-65709580D02*
X107880952Y-65757200D01*
X107880952Y-65757200D02*
X107976190Y-65804819D01*
X107976190Y-65804819D02*
X108071428Y-65804819D01*
X108071428Y-65804819D02*
X108166666Y-65757200D01*
X108166666Y-65757200D02*
X108214285Y-65709580D01*
X108214285Y-65709580D02*
X108261904Y-65614342D01*
X108261904Y-65614342D02*
X108309523Y-65423866D01*
X108309523Y-65423866D02*
X108309523Y-65185771D01*
X108309523Y-65185771D02*
X108261904Y-64995295D01*
X108261904Y-64995295D02*
X108214285Y-64900057D01*
X108214285Y-64900057D02*
X108166666Y-64852438D01*
X108166666Y-64852438D02*
X108071428Y-64804819D01*
D11*
X109227064Y-67735000D02*
X108772936Y-67735000D01*
X109227064Y-66265000D02*
X108772936Y-66265000D01*
%LPC*%
D12*
X190000000Y-61500000D03*
X101500000Y-44500000D03*
D13*
X116200000Y-67200000D03*
D14*
X116200000Y-69740000D03*
X116200000Y-72280000D03*
X116200000Y-74820000D03*
X123820000Y-74820000D03*
X123820000Y-72280000D03*
X123820000Y-69740000D03*
X123820000Y-67200000D03*
D15*
X138636000Y-54604000D03*
X134318000Y-54604000D03*
X138636000Y-48000000D03*
X134318000Y-48000000D03*
X130000000Y-54604000D03*
X130000000Y-48000000D03*
D16*
X190000000Y-54270000D03*
D17*
X190000000Y-53000000D03*
D12*
X106000000Y-44500000D03*
D13*
X181000000Y-53000000D03*
D18*
X181000000Y-55000000D03*
D19*
X167000000Y-59080000D03*
D20*
X167000000Y-48920000D03*
D12*
X104500000Y-67000000D03*
D16*
X99000000Y-51270000D03*
D17*
X99000000Y-50000000D03*
D21*
X160790000Y-49000000D03*
X155790000Y-49000000D03*
D22*
X148000000Y-54080000D03*
D23*
X148000000Y-51540000D03*
X148000000Y-49000000D03*
D13*
X146000000Y-64000000D03*
D18*
X146000000Y-66000000D03*
D12*
X164500000Y-66000000D03*
D19*
X135000000Y-70080000D03*
D20*
X135000000Y-59920000D03*
D12*
X99000000Y-73000000D03*
D24*
X106000000Y-57000000D03*
D25*
X103460000Y-57000000D03*
D16*
X99000000Y-64270000D03*
D17*
X99000000Y-63000000D03*
D13*
X172000000Y-62000000D03*
D18*
X174000000Y-62000000D03*
D26*
X110000000Y-67000000D03*
X108000000Y-67000000D03*
G36*
X191004418Y-64000316D02*
G01*
X191275785Y-64019724D01*
X191293297Y-64022242D01*
X191554794Y-64079127D01*
X191571770Y-64084111D01*
X191822524Y-64177638D01*
X191838617Y-64184988D01*
X192073496Y-64313241D01*
X192088380Y-64322806D01*
X192302624Y-64483188D01*
X192315994Y-64494774D01*
X192505225Y-64684005D01*
X192516811Y-64697375D01*
X192677193Y-64911619D01*
X192686758Y-64926503D01*
X192815011Y-65161382D01*
X192822361Y-65177475D01*
X192915888Y-65428229D01*
X192920872Y-65445205D01*
X192977757Y-65706702D01*
X192980275Y-65724214D01*
X192999684Y-65995581D01*
X193000000Y-66004427D01*
X193000000Y-76927477D01*
X192999980Y-76929691D01*
X192998765Y-76997739D01*
X192998607Y-77002163D01*
X192994963Y-77070135D01*
X192994825Y-77072342D01*
X192989980Y-77140090D01*
X192989585Y-77144500D01*
X192975070Y-77279507D01*
X192973811Y-77288268D01*
X192950100Y-77419694D01*
X192948218Y-77428345D01*
X192915191Y-77557741D01*
X192912697Y-77566234D01*
X192870520Y-77692952D01*
X192867427Y-77701245D01*
X192816322Y-77824624D01*
X192812645Y-77832675D01*
X192752872Y-77952087D01*
X192748630Y-77959856D01*
X192680479Y-78074719D01*
X192675693Y-78082166D01*
X192599525Y-78191868D01*
X192594220Y-78198954D01*
X192510433Y-78302927D01*
X192504637Y-78309617D01*
X192413627Y-78407368D01*
X192407368Y-78413626D01*
X192309626Y-78504628D01*
X192302936Y-78510425D01*
X192198942Y-78594229D01*
X192191856Y-78599534D01*
X192082166Y-78675693D01*
X192074719Y-78680479D01*
X191959856Y-78748630D01*
X191952087Y-78752872D01*
X191832671Y-78812647D01*
X191824620Y-78816324D01*
X191701237Y-78867431D01*
X191692943Y-78870524D01*
X191566234Y-78912697D01*
X191557740Y-78915191D01*
X191428325Y-78948221D01*
X191419676Y-78950103D01*
X191288268Y-78973811D01*
X191279507Y-78975070D01*
X191144500Y-78989585D01*
X191140090Y-78989980D01*
X191072342Y-78994825D01*
X191070135Y-78994963D01*
X191002163Y-78998607D01*
X190997739Y-78998765D01*
X190929692Y-78999980D01*
X190927478Y-79000000D01*
X182004428Y-79000000D01*
X181995582Y-78999684D01*
X181724214Y-78980275D01*
X181706702Y-78977757D01*
X181445205Y-78920872D01*
X181428229Y-78915888D01*
X181177475Y-78822361D01*
X181161382Y-78815011D01*
X180926503Y-78686758D01*
X180911619Y-78677193D01*
X180697375Y-78516811D01*
X180684005Y-78505225D01*
X180494774Y-78315994D01*
X180483188Y-78302624D01*
X180322806Y-78088380D01*
X180313241Y-78073496D01*
X180184988Y-77838617D01*
X180177638Y-77822524D01*
X180084111Y-77571770D01*
X180079127Y-77554794D01*
X180022242Y-77293297D01*
X180019724Y-77275785D01*
X180000316Y-77004418D01*
X180000000Y-76995572D01*
X180000000Y-66004427D01*
X180000316Y-65995581D01*
X180019724Y-65724214D01*
X180022242Y-65706702D01*
X180079127Y-65445205D01*
X180084111Y-65428229D01*
X180177638Y-65177475D01*
X180184988Y-65161382D01*
X180313241Y-64926503D01*
X180322806Y-64911619D01*
X180483188Y-64697375D01*
X180494774Y-64684005D01*
X180684005Y-64494774D01*
X180697375Y-64483188D01*
X180911619Y-64322806D01*
X180926503Y-64313241D01*
X181161382Y-64184988D01*
X181177475Y-64177638D01*
X181428229Y-64084111D01*
X181445205Y-64079127D01*
X181706702Y-64022242D01*
X181724214Y-64019724D01*
X181995582Y-64000316D01*
X182004428Y-64000000D01*
X190995572Y-64000000D01*
X191004418Y-64000316D01*
G37*
%LPD*%
M02*
